<svg width="43" height="43" viewBox="0 0 43 43" fill="none" xmlns="http://www.w3.org/2000/svg">
<g clip-path="url(#clip0_1685_12264)">
<path d="M34.9984 41.0026C36.8393 41.0026 38.3317 39.5102 38.3317 37.6693C38.3317 35.8283 36.8393 34.3359 34.9984 34.3359C33.1574 34.3359 31.665 35.8283 31.665 37.6693C31.665 39.5102 33.1574 41.0026 34.9984 41.0026Z" stroke="black" stroke-width="3.33333" stroke-miterlimit="10" stroke-linecap="round" stroke-linejoin="round"/>
<path d="M37.9984 24.6667C39.8393 24.6667 41.3317 23.1743 41.3317 21.3333C41.3317 19.4924 39.8393 18 37.9984 18C36.1574 18 34.665 19.4924 34.665 21.3333C34.665 23.1743 36.1574 24.6667 37.9984 24.6667Z" stroke="black" stroke-width="3.33333" stroke-miterlimit="10" stroke-linecap="round" stroke-linejoin="round"/>
<path d="M34.9984 8.33463C36.8393 8.33463 38.3317 6.84225 38.3317 5.0013C38.3317 3.16035 36.8393 1.66797 34.9984 1.66797C33.1574 1.66797 31.665 3.16035 31.665 5.0013C31.665 6.84225 33.1574 8.33463 34.9984 8.33463Z" stroke="black" stroke-width="3.33333" stroke-miterlimit="10" stroke-linecap="round" stroke-linejoin="round"/>
<path d="M21.999 31.3359H28.6657L32.642 35.3123" stroke="black" stroke-width="3.33333" stroke-miterlimit="10" stroke-linecap="round" stroke-linejoin="round"/>
<path d="M21.999 11.3357H28.6657L32.642 7.35938" stroke="black" stroke-width="3.33333" stroke-miterlimit="10" stroke-linecap="round" stroke-linejoin="round"/>
<path d="M34.665 21.3359H18.665" stroke="black" stroke-width="3.33333" stroke-miterlimit="10" stroke-linecap="round" stroke-linejoin="round"/>
<path d="M12.9374 33.4179C12.3469 34.2389 11.999 35.2461 11.999 36.3346C11.999 39.096 14.2376 41.0013 16.999 41.0013C19.7604 41.0013 21.999 38.7627 21.999 36.0013V6.66797C21.999 3.90655 19.7604 1.66797 16.999 1.66797C14.2376 1.66797 11.999 3.57322 11.999 6.33464C11.999 7.42314 12.3469 8.43038 12.9374 9.25138" stroke="black" stroke-width="3.33333" stroke-miterlimit="10" stroke-linecap="round" stroke-linejoin="round"/>
<path d="M12.2814 4.67389C12.1879 4.6698 12.0936 4.66797 11.999 4.66797C8.31719 4.66797 5.33236 7.65255 5.33236 11.3346C5.33236 11.9822 5.42469 12.6085 5.59702 13.2005C3.51802 13.8066 1.99902 15.7266 1.99902 18.0013C1.99902 18.0016 1.99902 18.0017 1.99902 18.002C1.99927 19.8428 3.49152 21.3346 5.33236 21.3346M5.33236 21.3346H8.66569M5.33236 21.3346C3.49169 21.3346 1.99927 22.8266 1.99902 24.6673C1.99902 24.6676 1.99902 24.6677 1.99902 24.668C1.99902 26.9426 3.51802 28.8625 5.59702 29.4686C5.42469 30.0608 5.33236 30.6869 5.33236 31.3346C5.33236 35.0165 8.31719 38.0013 11.999 38.0013C12.0936 38.0013 12.1879 37.9993 12.2814 37.9954" stroke="black" stroke-width="3.33333" stroke-miterlimit="10" stroke-linecap="round" stroke-linejoin="round"/>
</g>
<defs>
<clipPath id="clip0_1685_12264">
<rect width="42.6667" height="42.6667" fill="white" transform="translate(0.333008)"/>
</clipPath>
</defs>
</svg>
