<svg width="937" height="690" viewBox="0 0 937 690" fill="none" xmlns="http://www.w3.org/2000/svg">
<path d="M465.972 83.0977C465.972 83.0977 459.78 132.63 441.682 155.491C401.506 206.24 357.38 193.002 322.607 218.5C294.09 239.411 280.636 281.5 280.637 322.039" stroke="#3F3F3F" stroke-width="8"/>
<path d="M86.0009 230.5C86.0009 230.5 81.3362 176.871 137.501 124C193.666 71.1286 315.501 68.9997 425.501 69" stroke="#3F3F3F" stroke-width="8"/>
<path d="M851.499 230.5C851.499 230.5 856.164 176.871 799.999 124C743.834 71.1286 621.999 68.9997 511.999 69" stroke="#3F3F3F" stroke-width="8"/>
<path d="M469 82L469 496" stroke="#3F3F3F" stroke-width="8"/>
<path d="M470.636 83.1016C470.636 83.1016 476.827 132.633 494.926 155.495C535.101 206.244 579.227 193.006 614 218.504C642.517 239.415 655.971 281.504 655.971 322.043" stroke="#3F3F3F" stroke-width="8"/>
<path d="M506.115 6.48317H474.415C472.373 6.48317 470.379 5.87405 468.686 4.73476L464.277 1.76814C462.564 0.61569 460.548 0 458.484 0H432.451C429.441 0 427.002 2.43908 427.002 5.44912V34.1629H511.565V11.9323C511.565 8.92225 509.126 6.48317 506.116 6.48317H506.115Z" fill="#FF8F1F"/>
<path d="M499.493 12.8535H440.577C438.414 12.8535 436.66 14.6072 436.66 16.77V21.8139H503.409V16.77C503.409 14.6072 501.656 12.8535 499.493 12.8535Z" fill="white"/>
<path d="M511.563 72.872V27.2636C511.563 24.2535 509.124 21.8145 506.114 21.8145H432.449C429.439 21.8145 427 24.2535 427 27.2636V72.8733C427 73.493 427.503 73.9955 428.122 73.9955H510.443C511.062 73.9955 511.565 73.493 511.565 72.8733L511.563 72.872Z" fill="#FFBA40"/>
<path d="M511.564 70.1211V74.552C511.564 77.5607 509.125 79.9998 506.115 79.9998H432.448C430.38 79.9998 428.581 78.8473 427.658 77.1489C427.24 76.3767 427.002 75.4926 427.002 74.552V70.1224C440.066 71.2788 451.379 71.9563 468.394 71.9563C485.408 71.9563 498.5 71.2788 511.564 70.1211Z" fill="#FCA72D"/>
<path d="M492.273 43.7207C492.107 43.2498 491.916 42.7893 491.701 42.3433C491.445 41.8131 491.524 41.1817 491.878 40.712L492.848 39.4227C493.291 38.832 493.278 38.0151 492.816 37.4375C492.012 36.4311 491.098 35.5194 490.093 34.7156C489.515 34.2538 488.698 34.2407 488.108 34.6853L486.817 35.6549C486.348 36.0088 485.717 36.0878 485.187 35.8325C484.743 35.6181 484.283 35.4286 483.814 35.2629C483.259 35.0682 482.87 34.5656 482.789 33.9841L482.563 32.3844C482.46 31.6595 481.884 31.0872 481.156 31.0057C480.516 30.9333 479.864 30.8965 479.207 30.8965C478.549 30.8965 477.902 30.9333 477.264 31.0057C476.536 31.0886 475.96 31.6608 475.857 32.3844L475.631 33.9855C475.549 34.5669 475.16 35.0695 474.606 35.2642C474.135 35.4286 473.676 35.6194 473.231 35.8338C472.701 36.0891 472.072 36.0101 471.603 35.6576L470.304 34.684C469.713 34.2407 468.896 34.2552 468.32 34.7169C467.316 35.5194 466.406 36.4311 465.604 37.4336C465.143 38.0098 465.127 38.8255 465.569 39.4162L466.544 40.7186C466.897 41.1896 466.974 41.8197 466.719 42.3486C466.503 42.7933 466.314 43.2511 466.147 43.722C465.952 44.2746 465.451 44.6614 464.872 44.7443L463.268 44.9745C462.545 45.0784 461.975 45.6533 461.892 46.3795C461.82 47.0149 461.783 47.6609 461.783 48.3187C461.783 48.9765 461.82 49.6277 461.894 50.2684C461.977 50.9959 462.548 51.5721 463.272 51.6747L464.868 51.901C465.45 51.9839 465.952 52.372 466.147 52.9258C466.313 53.3981 466.503 53.8573 466.717 54.3032C466.97 54.8321 466.892 55.4596 466.54 55.9293L465.569 57.2278C465.127 57.8185 465.143 58.6354 465.604 59.2117C466.407 60.2141 467.319 61.1245 468.32 61.927C468.896 62.3888 469.713 62.4032 470.304 61.9612L471.592 60.9956C472.062 60.643 472.691 60.5641 473.221 60.8193C473.669 61.035 474.132 61.2271 474.606 61.3929C475.16 61.5876 475.548 62.0901 475.631 62.6716L475.856 64.2622C475.958 64.987 476.535 65.558 477.261 65.6409C477.899 65.7132 478.547 65.7501 479.204 65.7501C479.86 65.7501 480.514 65.7132 481.155 65.6396C481.882 65.5567 482.459 64.9857 482.561 64.2608L482.786 62.6703C482.869 62.0888 483.257 61.5876 483.811 61.3929C484.283 61.2271 484.744 61.0364 485.19 60.8206C485.719 60.5654 486.349 60.6443 486.82 60.9969L488.108 61.9625C488.698 62.4046 489.514 62.3914 490.09 61.9296C491.097 61.1258 492.011 60.2128 492.816 59.2051C493.277 58.6289 493.291 57.8119 492.849 57.2212L491.881 55.9293C491.528 55.4596 491.449 54.8308 491.703 54.3019C491.916 53.8573 492.107 53.3981 492.273 52.9258C492.468 52.372 492.97 51.9826 493.552 51.901L495.147 51.6747C495.872 51.5721 496.443 50.9959 496.526 50.2684C496.598 49.6277 496.637 48.9765 496.637 48.3187C496.637 47.6609 496.6 47.0149 496.527 46.3795C496.444 45.6533 495.875 45.0784 495.151 44.9745L493.548 44.7443C492.967 44.6614 492.468 44.2733 492.273 43.722V43.7207ZM488.184 48.3239C488.184 53.2771 484.166 57.3014 479.207 57.3014C474.247 57.3014 470.236 53.2758 470.236 48.3239C470.236 43.3721 474.247 39.3451 479.207 39.3451C484.166 39.3451 488.184 43.3629 488.184 48.3239Z" fill="white"/>
<path d="M479.212 43.5684C476.592 43.5684 474.459 45.7009 474.459 48.3215C474.459 50.9422 476.592 53.0747 479.212 53.0747C481.833 53.0747 483.965 50.9422 483.965 48.3215C483.965 45.7009 481.833 43.5684 479.212 43.5684Z" fill="#FF8F1F"/>
<path d="M446.16 36.7787L446.076 37.5233C445.943 38.6968 445.233 39.7072 444.208 40.2952C444.201 40.2992 444.195 40.3031 444.188 40.3071C444.183 40.3097 444.177 40.3137 444.177 40.3137C443.15 40.9096 441.92 41.0201 440.837 40.5478L440.151 40.2492C439.615 40.0163 438.989 40.2216 438.697 40.7281L437.181 43.354C436.889 43.8591 437.023 44.5038 437.493 44.8498L438.11 45.3063C439.035 45.9904 439.587 47.0731 439.574 48.2229C439.574 48.2926 439.574 48.3624 439.574 48.4308C439.587 49.5766 439.031 50.6554 438.109 51.3356L437.493 51.7894C437.023 52.1368 436.889 52.7814 437.181 53.2866L438.697 55.9125C438.989 56.4176 439.614 56.6242 440.149 56.3913L440.852 56.0848C441.903 55.627 443.113 55.6849 444.099 56.2677C444.158 56.3032 444.218 56.3374 444.279 56.3716C445.281 56.936 445.943 57.9556 446.072 59.0988L446.159 59.8605C446.225 60.4407 446.715 60.8801 447.301 60.8801H450.333C450.917 60.8801 451.407 60.4407 451.472 59.8605L451.557 59.1133C451.689 57.9398 452.4 56.9307 453.423 56.3427L453.439 56.3334C453.446 56.3295 453.452 56.3255 453.46 56.3216C454.481 55.7283 455.711 55.6191 456.794 56.0914L457.483 56.3913C458.019 56.6242 458.642 56.419 458.934 55.9138L460.451 53.2879C460.743 52.7814 460.609 52.1368 460.139 51.7894L459.524 51.3342C458.599 50.6501 458.045 49.5674 458.058 48.4163C458.058 48.3466 458.058 48.2768 458.058 48.2071C458.045 47.0613 458.601 45.9851 459.522 45.3036L460.138 44.8485C460.608 44.5011 460.742 43.8565 460.45 43.3513L458.934 40.7254C458.642 40.2189 458.017 40.0137 457.482 40.2466L456.782 40.5518C455.731 41.0096 454.519 40.953 453.534 40.3689C453.473 40.3334 453.413 40.2979 453.352 40.2637C452.35 39.7006 451.688 38.6797 451.559 37.5365L451.472 36.7761C451.407 36.1959 450.916 35.7578 450.332 35.7578H447.299C446.715 35.7578 446.225 36.1959 446.159 36.7774L446.16 36.7787ZM452.22 46.3548C453.304 48.2334 452.656 50.6344 450.778 51.7184C448.9 52.8024 446.501 52.1604 445.417 50.2818C444.333 48.4031 444.976 46.0048 446.853 44.9208C448.731 43.8368 451.136 44.4761 452.22 46.3548Z" fill="white"/>
<g filter="url(#filter0_d_2135_16724)">
<rect x="7" y="267" width="157.992" height="152.438" rx="8" fill="white" shape-rendering="crispEdges"/>
<path d="M34.4852 304.882L37.418 301.109L41.1907 304.042L38.2579 307.815L34.4852 304.882Z" fill="black"/>
<path d="M54.1468 320.57L57.4746 316.289L61.7556 319.617L58.4277 323.898L54.1468 320.57Z" fill="black"/>
<path d="M63.3773 323.257L65.8965 325.215L65.0919 326.25L62.5727 324.292L63.3773 323.257Z" fill="black"/>
<path d="M31.3122 304.709L36.4667 298.078C36.6631 297.826 37.027 297.78 37.2796 297.977L39.085 299.38C39.3376 299.576 39.3832 299.94 39.1868 300.193L34.0323 306.824C33.8359 307.076 33.472 307.122 33.2194 306.926L31.4141 305.522C31.1615 305.326 31.1159 304.962 31.3122 304.709Z" fill="white" stroke="black" stroke-width="1.48148" stroke-miterlimit="10"/>
<path d="M57.7706 319.956C60.0695 316.998 64.3331 316.465 67.291 318.764L58.963 329.477C56.0051 327.178 55.4717 322.914 57.7706 319.956Z" fill="white" stroke="black" stroke-width="1.48148" stroke-linecap="round" stroke-linejoin="round"/>
<path d="M65.5634 327.741C66.158 328.204 67.0132 328.097 67.4761 327.502C67.9389 326.907 67.8316 326.052 67.237 325.592C66.6423 325.129 65.7872 325.237 65.3243 325.831C64.8615 326.426 64.9688 327.281 65.5634 327.741Z" stroke="#161623" stroke-width="1.48148" stroke-miterlimit="10"/>
<path d="M53.9144 306.757L51.166 310.293L49.3922 308.914L52.1406 305.378L53.9144 306.757Z" fill="black"/>
<path d="M64.1285 291.787L66.3017 293.476C66.501 293.629 66.5469 293.908 66.409 294.11L56.6372 308.513C56.4871 308.734 56.1775 308.78 55.9598 308.612L52.8977 306.233L49.8356 303.854C49.618 303.686 49.5843 303.373 49.7621 303.174L61.3147 290.15C61.4771 289.966 61.7591 289.945 61.9553 290.098L64.1285 291.787Z" fill="white" stroke="black" stroke-width="1.48148" stroke-miterlimit="10"/>
<path d="M42.566 317.688L45.3145 314.152L47.0883 315.531L44.3399 319.067L42.566 317.688Z" fill="black"/>
<path d="M32.3553 332.661L30.1821 330.972C29.9829 330.819 29.9369 330.54 30.0748 330.338L39.8466 315.934C39.9967 315.714 40.3063 315.668 40.524 315.836L43.5861 318.215L46.6482 320.593C46.8658 320.762 46.8995 321.075 46.7217 321.274L35.1752 334.295C35.0128 334.479 34.7308 334.5 34.5346 334.347L32.3614 332.658L32.3553 332.661Z" fill="white" stroke="black" stroke-width="1.48148" stroke-miterlimit="10"/>
<path d="M35.4968 308.235L41.163 300.946C41.5422 300.458 42.2451 300.37 42.7329 300.749L59.3437 313.662C59.8315 314.041 59.9196 314.744 59.5404 315.232L53.8742 322.521C53.495 323.008 52.7921 323.096 52.3043 322.717L35.6935 309.805C35.2056 309.426 35.1176 308.723 35.4968 308.235Z" fill="white" stroke="black" stroke-width="1.48148" stroke-miterlimit="10"/>
<path d="M27.7361 365.613C26.7374 365.613 25.8554 365.399 25.0901 364.969C24.3248 364.531 23.7228 363.933 23.2841 363.177C22.8548 362.412 22.6401 361.539 22.6401 360.559C22.6401 359.561 22.8548 358.683 23.2841 357.927C23.7228 357.162 24.3248 356.565 25.0901 356.135C25.8554 355.697 26.7374 355.477 27.7361 355.477C28.2588 355.477 28.7674 355.566 29.2621 355.743C29.7568 355.911 30.2094 356.145 30.6201 356.443C31.0308 356.742 31.3621 357.083 31.6141 357.465L30.6761 358.109C30.4894 357.811 30.2374 357.545 29.9201 357.311C29.6028 357.069 29.2528 356.882 28.8701 356.751C28.4968 356.621 28.1188 356.555 27.7361 356.555C26.9801 356.555 26.3081 356.728 25.7201 357.073C25.1321 357.409 24.6701 357.876 24.3341 358.473C23.9981 359.071 23.8301 359.766 23.8301 360.559C23.8301 361.325 23.9934 362.011 24.3201 362.617C24.6561 363.215 25.1181 363.686 25.7061 364.031C26.3034 364.377 26.9801 364.549 27.7361 364.549C28.3708 364.549 28.9308 364.419 29.4161 364.157C29.9108 363.887 30.2981 363.518 30.5781 363.051C30.8581 362.575 30.9981 362.029 30.9981 361.413L32.1321 361.329C32.1321 362.188 31.9454 362.939 31.5721 363.583C31.1988 364.218 30.6808 364.717 30.0181 365.081C29.3554 365.436 28.5948 365.613 27.7361 365.613ZM28.5901 361.469V360.447H32.1321V361.371L31.5721 361.469H28.5901ZM36.6788 365.613C35.9975 365.613 35.3955 365.459 34.8728 365.151C34.3501 364.834 33.9395 364.4 33.6408 363.849C33.3515 363.299 33.2068 362.664 33.2068 361.945C33.2068 361.227 33.3515 360.592 33.6408 360.041C33.9395 359.491 34.3455 359.061 34.8588 358.753C35.3815 358.436 35.9788 358.277 36.6508 358.277C37.2948 358.277 37.8548 358.441 38.3308 358.767C38.8161 359.085 39.1895 359.533 39.4508 360.111C39.7121 360.69 39.8428 361.371 39.8428 362.155H38.7228C38.7228 361.558 38.6435 361.049 38.4848 360.629C38.3261 360.2 38.0881 359.869 37.7708 359.635C37.4628 359.402 37.0848 359.285 36.6368 359.285C36.1795 359.285 35.7735 359.397 35.4188 359.621C35.0735 359.836 34.8075 360.144 34.6208 360.545C34.4341 360.947 34.3408 361.418 34.3408 361.959C34.3408 362.491 34.4435 362.953 34.6488 363.345C34.8541 363.728 35.1388 364.031 35.5028 364.255C35.8668 364.47 36.2775 364.577 36.7348 364.577C37.2201 364.577 37.6308 364.461 37.9668 364.227C38.3028 363.994 38.5688 363.691 38.7648 363.317L39.7448 363.807C39.5675 364.171 39.3295 364.489 39.0308 364.759C38.7415 365.03 38.3961 365.24 37.9948 365.389C37.6028 365.539 37.1641 365.613 36.6788 365.613ZM33.9488 362.155L33.9628 361.189H39.1568V362.155H33.9488ZM44.3494 365.613C43.6681 365.613 43.0614 365.459 42.5294 365.151C42.0067 364.834 41.5961 364.4 41.2974 363.849C40.9987 363.299 40.8494 362.664 40.8494 361.945C40.8494 361.227 40.9941 360.592 41.2834 360.041C41.5821 359.491 41.9927 359.061 42.5154 358.753C43.0474 358.436 43.6494 358.277 44.3214 358.277C45.0121 358.277 45.6187 358.436 46.1414 358.753C46.6734 359.061 47.0841 359.491 47.3734 360.041C47.6721 360.592 47.8214 361.227 47.8214 361.945C47.8214 362.664 47.6721 363.299 47.3734 363.849C47.0841 364.4 46.6781 364.834 46.1554 365.151C45.6327 365.459 45.0307 365.613 44.3494 365.613ZM44.3494 364.577C44.8161 364.577 45.2221 364.465 45.5674 364.241C45.9127 364.017 46.1834 363.709 46.3794 363.317C46.5847 362.925 46.6874 362.468 46.6874 361.945C46.6874 361.423 46.5847 360.965 46.3794 360.573C46.1834 360.181 45.9081 359.873 45.5534 359.649C45.1987 359.425 44.7881 359.313 44.3214 359.313C43.8641 359.313 43.4581 359.425 43.1034 359.649C42.7581 359.873 42.4827 360.181 42.2774 360.573C42.0814 360.965 41.9834 361.423 41.9834 361.945C41.9834 362.459 42.0814 362.916 42.2774 363.317C42.4827 363.709 42.7627 364.017 43.1174 364.241C43.4814 364.465 43.8921 364.577 44.3494 364.577ZM51.8265 365.613C51.3132 365.613 50.8652 365.539 50.4825 365.389C50.0998 365.231 49.7778 365.025 49.5165 364.773C49.2645 364.521 49.0825 364.246 48.9705 363.947L49.9505 363.541C50.1092 363.859 50.3472 364.115 50.6645 364.311C50.9818 364.507 51.3318 364.605 51.7145 364.605C52.1532 364.605 52.5218 364.521 52.8205 364.353C53.1192 364.176 53.2685 363.929 53.2685 363.611C53.2685 363.322 53.1565 363.089 52.9325 362.911C52.7178 362.734 52.3958 362.589 51.9665 362.477L51.2945 362.295C50.6598 362.127 50.1652 361.875 49.8105 361.539C49.4558 361.194 49.2785 360.807 49.2785 360.377C49.2785 359.715 49.4932 359.201 49.9225 358.837C50.3612 358.464 51.0098 358.277 51.8685 358.277C52.2792 358.277 52.6525 358.338 52.9885 358.459C53.3245 358.581 53.6138 358.753 53.8565 358.977C54.0992 359.192 54.2765 359.449 54.3885 359.747L53.4085 360.181C53.2872 359.864 53.0865 359.635 52.8065 359.495C52.5265 359.355 52.1858 359.285 51.7845 359.285C51.3552 359.285 51.0192 359.379 50.7765 359.565C50.5338 359.743 50.4125 359.995 50.4125 360.321C50.4125 360.508 50.5105 360.685 50.7065 360.853C50.9118 361.012 51.2105 361.143 51.6025 361.245L52.3025 361.427C52.7598 361.539 53.1425 361.707 53.4505 361.931C53.7585 362.146 53.9918 362.393 54.1505 362.673C54.3092 362.953 54.3885 363.252 54.3885 363.569C54.3885 363.989 54.2765 364.353 54.0525 364.661C53.8285 364.969 53.5252 365.207 53.1425 365.375C52.7598 365.534 52.3212 365.613 51.8265 365.613ZM55.968 368.245V358.445H57.018L57.088 359.733V368.245H55.968ZM59.454 365.613C58.866 365.613 58.348 365.459 57.9 365.151C57.4613 364.843 57.1206 364.414 56.878 363.863C56.6353 363.303 56.514 362.664 56.514 361.945C56.514 361.217 56.6353 360.578 56.878 360.027C57.1206 359.477 57.4613 359.047 57.9 358.739C58.348 358.431 58.866 358.277 59.454 358.277C60.0793 358.277 60.63 358.431 61.106 358.739C61.582 359.047 61.9506 359.477 62.212 360.027C62.4826 360.578 62.618 361.217 62.618 361.945C62.618 362.664 62.4826 363.303 62.212 363.863C61.9506 364.414 61.582 364.843 61.106 365.151C60.63 365.459 60.0793 365.613 59.454 365.613ZM59.202 364.591C59.6406 364.591 60.028 364.479 60.364 364.255C60.7093 364.031 60.98 363.719 61.176 363.317C61.3813 362.916 61.484 362.459 61.484 361.945C61.484 361.432 61.386 360.975 61.19 360.573C61.0033 360.172 60.7373 359.859 60.392 359.635C60.0466 359.411 59.6546 359.299 59.216 359.299C58.8053 359.299 58.4366 359.411 58.11 359.635C57.7926 359.859 57.5406 360.172 57.354 360.573C57.1766 360.975 57.088 361.432 57.088 361.945C57.088 362.459 57.1766 362.916 57.354 363.317C57.5406 363.719 57.7926 364.031 58.11 364.255C58.4273 364.479 58.7913 364.591 59.202 364.591ZM68.4815 365.445L68.4115 364.297V361.749C68.4115 361.199 68.3461 360.746 68.2155 360.391C68.0941 360.027 67.9028 359.757 67.6415 359.579C67.3895 359.393 67.0535 359.299 66.6335 359.299C66.2321 359.299 65.8821 359.379 65.5835 359.537C65.2941 359.696 65.0561 359.943 64.8695 360.279L63.8615 359.873C64.0481 359.547 64.2721 359.262 64.5335 359.019C64.7948 358.777 65.0981 358.595 65.4435 358.473C65.7981 358.343 66.1995 358.277 66.6475 358.277C67.2915 358.277 67.8281 358.403 68.2575 358.655C68.6868 358.907 69.0088 359.285 69.2235 359.789C69.4381 360.284 69.5408 360.905 69.5315 361.651L69.5175 365.445H68.4815ZM66.3815 365.613C65.5601 365.613 64.9161 365.427 64.4495 365.053C63.9921 364.671 63.7635 364.143 63.7635 363.471C63.7635 362.762 63.9968 362.221 64.4635 361.847C64.9395 361.465 65.6021 361.273 66.4515 361.273H68.4535V362.211H66.7035C66.0501 362.211 65.5835 362.319 65.3035 362.533C65.0328 362.748 64.8975 363.056 64.8975 363.457C64.8975 363.821 65.0328 364.111 65.3035 364.325C65.5741 364.531 65.9521 364.633 66.4375 364.633C66.8388 364.633 67.1888 364.54 67.4875 364.353C67.7861 364.167 68.0148 363.915 68.1735 363.597C68.3321 363.271 68.4115 362.902 68.4115 362.491H69.0975C69.0975 363.443 68.8641 364.204 68.3975 364.773C67.9308 365.333 67.2588 365.613 66.3815 365.613ZM73.9382 365.613C73.2568 365.613 72.7295 365.436 72.3562 365.081C71.9828 364.727 71.7962 364.227 71.7962 363.583V356.261H72.9162V363.471C72.9162 363.826 73.0095 364.101 73.1962 364.297C73.3922 364.484 73.6628 364.577 74.0082 364.577C74.1202 364.577 74.2275 364.563 74.3302 364.535C74.4422 364.498 74.5868 364.414 74.7642 364.283L75.1982 365.193C74.9555 365.352 74.7362 365.459 74.5402 365.515C74.3442 365.581 74.1435 365.613 73.9382 365.613ZM70.5782 359.439V358.445H75.0162V359.439H70.5782ZM76.6672 365.445L76.6952 358.445H77.8152L77.7872 365.445H76.6672ZM77.2412 356.821C77.0545 356.821 76.8912 356.751 76.7512 356.611C76.6112 356.471 76.5412 356.308 76.5412 356.121C76.5412 355.925 76.6112 355.762 76.7512 355.631C76.8912 355.491 77.0545 355.421 77.2412 355.421C77.4372 355.421 77.6005 355.491 77.7312 355.631C77.8712 355.762 77.9412 355.925 77.9412 356.121C77.9412 356.308 77.8712 356.471 77.7312 356.611C77.6005 356.751 77.4372 356.821 77.2412 356.821ZM84.1631 365.445L84.0931 364.297V361.749C84.0931 361.199 84.0278 360.746 83.8971 360.391C83.7758 360.027 83.5844 359.757 83.3231 359.579C83.0711 359.393 82.7351 359.299 82.3151 359.299C81.9138 359.299 81.5638 359.379 81.2651 359.537C80.9758 359.696 80.7378 359.943 80.5511 360.279L79.5431 359.873C79.7298 359.547 79.9538 359.262 80.2151 359.019C80.4764 358.777 80.7798 358.595 81.1251 358.473C81.4798 358.343 81.8811 358.277 82.3291 358.277C82.9731 358.277 83.5098 358.403 83.9391 358.655C84.3684 358.907 84.6904 359.285 84.9051 359.789C85.1198 360.284 85.2224 360.905 85.2131 361.651L85.1991 365.445H84.1631ZM82.0631 365.613C81.2418 365.613 80.5978 365.427 80.1311 365.053C79.6738 364.671 79.4451 364.143 79.4451 363.471C79.4451 362.762 79.6784 362.221 80.1451 361.847C80.6211 361.465 81.2838 361.273 82.1331 361.273H84.1351V362.211H82.3851C81.7318 362.211 81.2651 362.319 80.9851 362.533C80.7144 362.748 80.5791 363.056 80.5791 363.457C80.5791 363.821 80.7144 364.111 80.9851 364.325C81.2558 364.531 81.6338 364.633 82.1191 364.633C82.5204 364.633 82.8704 364.54 83.1691 364.353C83.4678 364.167 83.6964 363.915 83.8551 363.597C84.0138 363.271 84.0931 362.902 84.0931 362.491H84.7791C84.7791 363.443 84.5458 364.204 84.0791 364.773C83.6124 365.333 82.9404 365.613 82.0631 365.613ZM86.9878 365.445V355.645H88.1078V365.445H86.9878Z" fill="black"/>
<path d="M22.0679 384.919C21.9243 383.534 21.9961 381.647 22.2833 380.766C22.4988 379.759 23.5759 379.256 24.6531 379.507C26.3048 379.759 26.592 380.514 26.592 383.66C26.592 387.058 26.3766 387.435 24.4377 387.435C22.8578 387.435 22.2115 386.806 22.0679 384.919Z" fill="#C8C8C9"/>
<path d="M31.6936 384.919C31.55 383.534 31.6218 381.647 31.909 380.766C32.1245 379.759 33.2016 379.256 34.2788 379.507C35.9305 379.759 36.2177 380.514 36.2177 383.66C36.2177 387.058 36.0023 387.435 34.0634 387.435C32.4835 387.435 31.8372 386.806 31.6936 384.919Z" fill="#C8C8C9"/>
<path d="M41.3222 384.78C41.1786 383.396 41.2504 381.508 41.4658 380.627C41.8249 379.495 43.5483 379.117 53.7455 379.746V387.297H47.6416C42.1121 387.297 41.5376 387.045 41.3222 384.78Z" fill="#C8C8C9"/>
<path d="M58.8471 384.78C58.7035 383.396 58.7753 381.508 59.0625 380.627C59.3498 379.495 60.8578 379.117 69.1161 379.746V387.297H64.0893C59.637 387.297 59.0625 387.045 58.8471 384.78Z" fill="#C8C8C9"/>
<path d="M74.2206 384.78C74.077 383.396 74.1488 381.508 74.3642 380.627C74.7233 379.495 77.0212 379.117 93.1069 379.746V387.297H83.7715C75.0105 387.297 74.436 387.171 74.2206 384.78Z" fill="#C8C8C9"/>
<path d="M98.2114 384.78C98.0678 383.396 98.1396 381.508 98.355 380.627C98.7141 379.495 101.227 379.117 119.252 379.746V387.297H108.839C99.0013 387.297 98.4268 387.171 98.2114 384.78Z" fill="#C8C8C9"/>
<path d="M124.354 384.925C124.21 383.541 124.282 381.653 124.569 380.773C124.856 379.682 126.125 379.262 128.375 379.514C131.607 379.892 131.75 380.018 131.75 383.667C131.75 387.316 131.678 387.442 128.16 387.442C125.144 387.442 124.569 387.065 124.354 384.925Z" fill="#C8C8C9"/>
<path d="M136.855 384.78C136.711 383.396 136.783 381.508 136.998 380.627C137.357 379.495 139.153 379.117 149.996 379.746V387.297H143.533C137.645 387.297 137.07 387.045 136.855 384.78Z" fill="#C8C8C9"/>
<path d="M22.0335 402.304C21.8898 401.046 22.1771 399.158 22.6079 398.151C23.2542 396.515 25.9112 396.264 38.6218 396.264C46.9519 396.264 54.2048 396.767 54.7075 397.271C55.2102 397.774 55.5692 399.536 55.2102 404.443H38.6936C23.5415 404.443 22.1771 404.318 22.0335 402.304Z" fill="#C8C8C9"/>
<rect x="7.62483" y="267.625" width="156.742" height="151.189" rx="7.37517" stroke="#F2F2F2" stroke-width="1.24966" shape-rendering="crispEdges"/>
</g>
<g filter="url(#filter1_d_2135_16724)">
<rect x="191.922" y="366.846" width="157.992" height="131.522" rx="8" fill="white" shape-rendering="crispEdges"/>
<path d="M229.352 397.545C229.999 397.545 230.523 397.021 230.523 396.373V394.014C230.523 393.366 229.999 392.842 229.352 392.842C228.704 392.842 228.18 393.366 228.18 394.014V396.373C228.18 397.021 228.704 397.545 229.352 397.545Z" fill="black"/>
<path d="M218.72 401.835L216.676 400.655C216.115 400.332 215.399 400.524 215.075 401.084C214.752 401.645 214.944 402.361 215.504 402.685L217.548 403.865C218.107 404.188 218.824 403.998 219.149 403.436C219.472 402.875 219.28 402.159 218.72 401.835Z" fill="black"/>
<path d="M217.548 414.788L215.504 415.968C214.944 416.292 214.752 417.008 215.075 417.569C215.4 418.132 216.118 418.32 216.676 417.998L218.72 416.818C219.28 416.494 219.472 415.778 219.149 415.217C218.825 414.657 218.108 414.464 217.548 414.788Z" fill="black"/>
<path d="M241.154 403.865L243.198 402.685C243.759 402.361 243.951 401.645 243.627 401.084C243.303 400.524 242.587 400.332 242.026 400.655L239.983 401.835C239.422 402.159 239.23 402.875 239.554 403.436C239.879 403.999 240.597 404.187 241.154 403.865Z" fill="black"/>
<path d="M246.083 410.99C244.742 407.675 241.487 405.483 237.908 405.498C236.441 402.232 233.158 399.951 229.351 399.951C224.182 399.951 219.977 404.157 219.977 409.326C219.977 412.643 221.708 415.561 224.314 417.228C221.536 421.618 224.695 427.373 229.893 427.373C248.332 427.354 247.323 427.42 247.644 427.321C251.74 426.859 254.919 423.385 254.919 419.17C254.919 414.357 250.806 410.62 246.083 410.99ZM222.32 409.326C222.32 405.449 225.475 402.295 229.352 402.295C231.966 402.295 234.25 403.73 235.462 405.853C231.759 406.938 229.188 410.319 229.146 414.198C227.982 414.326 226.885 414.761 225.939 415.471C223.783 414.269 222.32 411.966 222.32 409.326ZM247.201 425.009C246.783 425.043 236.149 425.023 229.893 425.029C226.029 425.029 224.146 420.24 227.021 417.614C227.884 416.826 229.033 416.407 230.286 416.521C231.041 416.589 231.656 415.935 231.552 415.191C231.009 411.314 234.011 407.842 237.934 407.842C240.836 407.842 243.394 409.795 244.154 412.592C244.316 413.19 244.916 413.557 245.522 413.432C249.175 412.677 252.575 415.469 252.575 419.17C252.575 422.198 250.214 424.763 247.201 425.009Z" fill="black"/>
<path d="M216.004 461.375L219.028 451.575H220.218L217.18 461.375H216.004ZM210.04 461.375L207.044 451.575H208.234L211.202 461.375H210.04ZM210.166 461.375L213.05 451.575H214.184L211.3 461.375H210.166ZM215.906 461.375L213.092 451.575H214.226L217.082 461.375H215.906ZM223.829 461.543C223.148 461.543 222.546 461.389 222.023 461.081C221.501 460.764 221.09 460.33 220.791 459.779C220.502 459.228 220.357 458.594 220.357 457.875C220.357 457.156 220.502 456.522 220.791 455.971C221.09 455.42 221.496 454.991 222.009 454.683C222.532 454.366 223.129 454.207 223.801 454.207C224.445 454.207 225.005 454.37 225.481 454.697C225.967 455.014 226.34 455.462 226.601 456.041C226.863 456.62 226.993 457.301 226.993 458.085H225.873C225.873 457.488 225.794 456.979 225.635 456.559C225.477 456.13 225.239 455.798 224.921 455.565C224.613 455.332 224.235 455.215 223.787 455.215C223.33 455.215 222.924 455.327 222.569 455.551C222.224 455.766 221.958 456.074 221.771 456.475C221.585 456.876 221.491 457.348 221.491 457.889C221.491 458.421 221.594 458.883 221.799 459.275C222.005 459.658 222.289 459.961 222.653 460.185C223.017 460.4 223.428 460.507 223.885 460.507C224.371 460.507 224.781 460.39 225.117 460.157C225.453 459.924 225.719 459.62 225.915 459.247L226.895 459.737C226.718 460.101 226.48 460.418 226.181 460.689C225.892 460.96 225.547 461.17 225.145 461.319C224.753 461.468 224.315 461.543 223.829 461.543ZM221.099 458.085L221.113 457.119H226.307V458.085H221.099ZM232.718 461.375L232.648 460.227V457.679C232.648 457.128 232.582 456.676 232.452 456.321C232.33 455.957 232.139 455.686 231.878 455.509C231.626 455.322 231.29 455.229 230.87 455.229C230.468 455.229 230.118 455.308 229.82 455.467C229.53 455.626 229.292 455.873 229.106 456.209L228.098 455.803C228.284 455.476 228.508 455.192 228.77 454.949C229.031 454.706 229.334 454.524 229.68 454.403C230.034 454.272 230.436 454.207 230.884 454.207C231.528 454.207 232.064 454.333 232.494 454.585C232.923 454.837 233.245 455.215 233.46 455.719C233.674 456.214 233.777 456.834 233.768 457.581L233.754 461.375H232.718ZM230.618 461.543C229.796 461.543 229.152 461.356 228.686 460.983C228.228 460.6 228 460.073 228 459.401C228 458.692 228.233 458.15 228.7 457.777C229.176 457.394 229.838 457.203 230.688 457.203H232.69V458.141H230.94C230.286 458.141 229.82 458.248 229.54 458.463C229.269 458.678 229.134 458.986 229.134 459.387C229.134 459.751 229.269 460.04 229.54 460.255C229.81 460.46 230.188 460.563 230.674 460.563C231.075 460.563 231.425 460.47 231.724 460.283C232.022 460.096 232.251 459.844 232.41 459.527C232.568 459.2 232.648 458.832 232.648 458.421H233.334C233.334 459.373 233.1 460.134 232.634 460.703C232.167 461.263 231.495 461.543 230.618 461.543ZM238.175 461.543C237.493 461.543 236.966 461.366 236.593 461.011C236.219 460.656 236.033 460.157 236.033 459.513V452.191H237.153V459.401C237.153 459.756 237.246 460.031 237.433 460.227C237.629 460.414 237.899 460.507 238.245 460.507C238.357 460.507 238.464 460.493 238.567 460.465C238.679 460.428 238.823 460.344 239.001 460.213L239.435 461.123C239.192 461.282 238.973 461.389 238.777 461.445C238.581 461.51 238.38 461.543 238.175 461.543ZM234.815 455.369V454.375H239.253V455.369H234.815ZM240.834 461.375V451.393H241.954V461.375H240.834ZM245.762 461.375V457.791L246.882 457.371V461.375H245.762ZM245.762 457.791C245.762 457.1 245.678 456.573 245.51 456.209C245.351 455.845 245.132 455.598 244.852 455.467C244.572 455.327 244.254 455.257 243.9 455.257C243.284 455.257 242.803 455.476 242.458 455.915C242.122 456.344 241.954 456.956 241.954 457.749H241.408C241.408 457.012 241.515 456.377 241.73 455.845C241.944 455.313 242.257 454.907 242.668 454.627C243.078 454.347 243.573 454.207 244.152 454.207C244.992 454.207 245.659 454.468 246.154 454.991C246.648 455.514 246.891 456.307 246.882 457.371L245.762 457.791ZM251.706 461.543C251.025 461.543 250.423 461.389 249.9 461.081C249.377 460.764 248.967 460.33 248.668 459.779C248.379 459.228 248.234 458.594 248.234 457.875C248.234 457.156 248.379 456.522 248.668 455.971C248.967 455.42 249.373 454.991 249.886 454.683C250.409 454.366 251.006 454.207 251.678 454.207C252.322 454.207 252.882 454.37 253.358 454.697C253.843 455.014 254.217 455.462 254.478 456.041C254.739 456.62 254.87 457.301 254.87 458.085H253.75C253.75 457.488 253.671 456.979 253.512 456.559C253.353 456.13 253.115 455.798 252.798 455.565C252.49 455.332 252.112 455.215 251.664 455.215C251.207 455.215 250.801 455.327 250.446 455.551C250.101 455.766 249.835 456.074 249.648 456.475C249.461 456.876 249.368 457.348 249.368 457.889C249.368 458.421 249.471 458.883 249.676 459.275C249.881 459.658 250.166 459.961 250.53 460.185C250.894 460.4 251.305 460.507 251.762 460.507C252.247 460.507 252.658 460.39 252.994 460.157C253.33 459.924 253.596 459.62 253.792 459.247L254.772 459.737C254.595 460.101 254.357 460.418 254.058 460.689C253.769 460.96 253.423 461.17 253.022 461.319C252.63 461.468 252.191 461.543 251.706 461.543ZM248.976 458.085L248.99 457.119H254.184V458.085H248.976ZM256.899 457.581C256.899 456.825 257.043 456.214 257.333 455.747C257.622 455.271 257.991 454.921 258.439 454.697C258.896 454.464 259.377 454.347 259.881 454.347V455.397C259.47 455.397 259.073 455.467 258.691 455.607C258.317 455.738 258.009 455.957 257.767 456.265C257.524 456.573 257.403 456.993 257.403 457.525L256.899 457.581ZM256.283 461.375V454.375H257.403V461.375H256.283Z" fill="black"/>
<path d="M206.993 480.735C206.849 479.351 206.921 477.464 207.137 476.583C207.498 475.325 211.177 475.074 239.672 475.703V483.251H223.441C207.787 483.251 207.209 483.125 206.993 480.735Z" fill="#C8C8C9"/>
<path d="M244.796 480.855C244.652 479.471 244.724 477.584 245.013 476.704C245.301 475.571 246.672 475.194 249.558 475.446C253.597 475.823 253.669 475.949 253.669 479.597C253.669 483.371 253.669 483.371 249.341 483.371C245.59 483.371 245.013 482.994 244.796 480.855Z" fill="#C8C8C9"/>
<path d="M258.797 480.706C258.653 479.322 258.725 477.435 258.942 476.555C259.302 475.423 261.611 475.045 277.77 475.674V483.222H268.392C259.591 483.222 259.014 483.096 258.797 480.706Z" fill="#C8C8C9"/>
<path d="M282.897 480.706C282.753 479.322 282.825 477.435 283.042 476.555C283.402 475.423 285.927 475.045 304.034 475.674V483.222H293.574C283.691 483.222 283.114 483.096 282.897 480.706Z" fill="#C8C8C9"/>
<path d="M309.159 480.851C309.014 479.468 309.087 477.58 309.375 476.7C309.664 475.61 310.938 475.19 313.198 475.442C316.445 475.819 316.589 475.945 316.589 479.593C316.589 483.242 316.517 483.367 312.982 483.367C309.952 483.367 309.375 482.99 309.159 480.851Z" fill="#C8C8C9"/>
<path d="M321.717 480.706C321.572 479.322 321.645 477.435 321.861 476.555C322.222 475.423 324.025 475.045 334.918 475.674V483.222H328.426C322.51 483.222 321.933 482.971 321.717 480.706Z" fill="#C8C8C9"/>
<rect x="192.547" y="367.471" width="156.742" height="130.272" rx="7.37517" stroke="#F2F2F2" stroke-width="1.24966" shape-rendering="crispEdges"/>
</g>
<g filter="url(#filter2_d_2135_16724)">
<rect x="585.898" y="366.846" width="160" height="167.858" rx="8" fill="white" shape-rendering="crispEdges"/>
<g clip-path="url(#clip0_2135_16724)">
<path d="M611.148 428.346H648.648V429.596H611.148V428.346Z" fill="black"/>
<path d="M643.023 394.596C641.817 394.596 640.836 395.577 640.836 396.783H642.086C642.086 396.264 642.505 395.846 643.023 395.846C643.542 395.846 643.961 396.264 643.961 396.783C643.961 397.302 643.542 397.721 643.023 397.721C642.68 397.721 642.398 398.002 642.398 398.346V399.908H643.648V398.877C644.548 398.608 645.211 397.771 645.211 396.783C645.211 395.577 644.23 394.596 643.023 394.596Z" fill="black"/>
<path d="M642.398 400.846H643.648V402.096H642.398V400.846Z" fill="black"/>
<path d="M632.398 415.846H636.148V427.096H632.398V415.846Z" fill="black"/>
<path d="M623.648 412.096H627.398V427.096H623.648V412.096Z" fill="black"/>
<path d="M614.898 418.971H618.648V427.096H614.898V418.971Z" fill="black"/>
<path d="M624.423 405.914L632.854 408.321C633.073 408.383 633.31 408.321 633.466 408.164L637.216 404.414L636.335 403.533L632.848 407.021L624.454 404.621C624.254 404.564 624.035 404.608 623.879 404.746L615.754 411.621L616.56 412.577L624.429 405.914H624.423Z" fill="black"/>
<path d="M641.148 407.577V409.346L643.398 407.096H641.63L641.148 407.577Z" fill="black"/>
<path d="M641.148 416.415L644.898 412.665V410.902L641.148 414.652V416.415Z" fill="black"/>
<path d="M641.148 412.884L644.898 409.134V407.365L641.148 411.115V412.884Z" fill="black"/>
<path d="M641.148 423.489L644.898 419.739V417.971L641.148 421.721V423.489Z" fill="black"/>
<path d="M641.148 419.952L644.898 416.202V414.434L641.148 418.184V419.952Z" fill="black"/>
<path d="M644.898 426.808V425.039L642.842 427.095H644.611L644.898 426.808Z" fill="black"/>
<path d="M641.148 427.02L644.898 423.27V421.508L641.148 425.258V427.02Z" fill="black"/>
<path d="M643.023 392.096C639.58 392.096 636.773 394.902 636.773 398.346C636.773 401.789 639.58 404.596 643.023 404.596C646.467 404.596 649.273 401.789 649.273 398.346C649.273 394.902 646.467 392.096 643.023 392.096ZM643.023 403.346C640.267 403.346 638.023 401.102 638.023 398.346C638.023 395.589 640.267 393.346 643.023 393.346C645.78 393.346 648.023 395.589 648.023 398.346C648.023 401.102 645.78 403.346 643.023 403.346Z" fill="black"/>
</g>
<path d="M603.2 461.844V452.044H604.39V461.844H603.2ZM604.278 457.546V456.468H608.478V457.546H604.278ZM604.278 453.122V452.044H609.024V453.122H604.278ZM613.492 462.012C612.811 462.012 612.204 461.858 611.672 461.55C611.149 461.232 610.739 460.798 610.44 460.248C610.141 459.697 609.992 459.062 609.992 458.344C609.992 457.625 610.137 456.99 610.426 456.44C610.725 455.889 611.135 455.46 611.658 455.152C612.19 454.834 612.792 454.676 613.464 454.676C614.155 454.676 614.761 454.834 615.284 455.152C615.816 455.46 616.227 455.889 616.516 456.44C616.815 456.99 616.964 457.625 616.964 458.344C616.964 459.062 616.815 459.697 616.516 460.248C616.227 460.798 615.821 461.232 615.298 461.55C614.775 461.858 614.173 462.012 613.492 462.012ZM613.492 460.976C613.959 460.976 614.365 460.864 614.71 460.64C615.055 460.416 615.326 460.108 615.522 459.716C615.727 459.324 615.83 458.866 615.83 458.344C615.83 457.821 615.727 457.364 615.522 456.972C615.326 456.58 615.051 456.272 614.696 456.048C614.341 455.824 613.931 455.712 613.464 455.712C613.007 455.712 612.601 455.824 612.246 456.048C611.901 456.272 611.625 456.58 611.42 456.972C611.224 457.364 611.126 457.821 611.126 458.344C611.126 458.857 611.224 459.314 611.42 459.716C611.625 460.108 611.905 460.416 612.26 460.64C612.624 460.864 613.035 460.976 613.492 460.976ZM619.135 458.05C619.135 457.294 619.28 456.682 619.569 456.216C619.858 455.74 620.227 455.39 620.675 455.166C621.132 454.932 621.613 454.816 622.117 454.816V455.866C621.706 455.866 621.31 455.936 620.927 456.076C620.554 456.206 620.246 456.426 620.003 456.734C619.76 457.042 619.639 457.462 619.639 457.994L619.135 458.05ZM618.519 461.844V454.844H619.639V461.844H618.519ZM626.316 462.012C625.634 462.012 625.032 461.858 624.51 461.55C623.987 461.232 623.576 460.798 623.278 460.248C622.988 459.697 622.844 459.062 622.844 458.344C622.844 457.625 622.988 456.99 623.278 456.44C623.576 455.889 623.982 455.46 624.496 455.152C625.018 454.834 625.616 454.676 626.288 454.676C626.932 454.676 627.492 454.839 627.968 455.166C628.453 455.483 628.826 455.931 629.088 456.51C629.349 457.088 629.48 457.77 629.48 458.554H628.36C628.36 457.956 628.28 457.448 628.122 457.028C627.963 456.598 627.725 456.267 627.408 456.034C627.1 455.8 626.722 455.684 626.274 455.684C625.816 455.684 625.41 455.796 625.056 456.02C624.71 456.234 624.444 456.542 624.258 456.944C624.071 457.345 623.978 457.816 623.978 458.358C623.978 458.89 624.08 459.352 624.286 459.744C624.491 460.126 624.776 460.43 625.14 460.654C625.504 460.868 625.914 460.976 626.372 460.976C626.857 460.976 627.268 460.859 627.604 460.626C627.94 460.392 628.206 460.089 628.402 459.716L629.382 460.206C629.204 460.57 628.966 460.887 628.668 461.158C628.378 461.428 628.033 461.638 627.632 461.788C627.24 461.937 626.801 462.012 626.316 462.012ZM623.586 458.554L623.6 457.588H628.794V458.554H623.586ZM634.014 462.012C633.323 462.012 632.712 461.858 632.18 461.55C631.648 461.232 631.233 460.798 630.934 460.248C630.635 459.697 630.486 459.062 630.486 458.344C630.486 457.625 630.631 456.99 630.92 456.44C631.219 455.889 631.634 455.46 632.166 455.152C632.698 454.834 633.305 454.676 633.986 454.676C634.658 454.676 635.26 454.83 635.792 455.138C636.324 455.446 636.73 455.88 637.01 456.44L635.988 456.902C635.801 456.528 635.531 456.239 635.176 456.034C634.821 455.819 634.415 455.712 633.958 455.712C633.501 455.712 633.095 455.824 632.74 456.048C632.395 456.272 632.119 456.584 631.914 456.986C631.718 457.378 631.62 457.83 631.62 458.344C631.62 458.857 631.718 459.314 631.914 459.716C632.119 460.108 632.399 460.416 632.754 460.64C633.118 460.864 633.529 460.976 633.986 460.976C634.443 460.976 634.849 460.859 635.204 460.626C635.568 460.392 635.843 460.066 636.03 459.646L637.052 460.108C636.772 460.705 636.366 461.172 635.834 461.508C635.302 461.844 634.695 462.012 634.014 462.012ZM642.778 461.844L642.708 460.696V458.148C642.708 457.597 642.643 457.144 642.512 456.79C642.391 456.426 642.2 456.155 641.938 455.978C641.686 455.791 641.35 455.698 640.93 455.698C640.529 455.698 640.179 455.777 639.88 455.936C639.591 456.094 639.353 456.342 639.166 456.678L638.158 456.272C638.345 455.945 638.569 455.66 638.83 455.418C639.092 455.175 639.395 454.993 639.74 454.872C640.095 454.741 640.496 454.676 640.944 454.676C641.588 454.676 642.125 454.802 642.554 455.054C642.984 455.306 643.306 455.684 643.52 456.188C643.735 456.682 643.838 457.303 643.828 458.05L643.814 461.844H642.778ZM640.678 462.012C639.857 462.012 639.213 461.825 638.746 461.452C638.289 461.069 638.06 460.542 638.06 459.87C638.06 459.16 638.294 458.619 638.76 458.246C639.236 457.863 639.899 457.672 640.748 457.672H642.75V458.61H641C640.347 458.61 639.88 458.717 639.6 458.932C639.33 459.146 639.194 459.454 639.194 459.856C639.194 460.22 639.33 460.509 639.6 460.724C639.871 460.929 640.249 461.032 640.734 461.032C641.136 461.032 641.486 460.938 641.784 460.752C642.083 460.565 642.312 460.313 642.47 459.996C642.629 459.669 642.708 459.3 642.708 458.89H643.394C643.394 459.842 643.161 460.602 642.694 461.172C642.228 461.732 641.556 462.012 640.678 462.012ZM648.053 462.012C647.54 462.012 647.092 461.937 646.709 461.788C646.326 461.629 646.004 461.424 645.743 461.172C645.491 460.92 645.309 460.644 645.197 460.346L646.177 459.94C646.336 460.257 646.574 460.514 646.891 460.71C647.208 460.906 647.558 461.004 647.941 461.004C648.38 461.004 648.748 460.92 649.047 460.752C649.346 460.574 649.495 460.327 649.495 460.01C649.495 459.72 649.383 459.487 649.159 459.31C648.944 459.132 648.622 458.988 648.193 458.876L647.521 458.694C646.886 458.526 646.392 458.274 646.037 457.938C645.682 457.592 645.505 457.205 645.505 456.776C645.505 456.113 645.72 455.6 646.149 455.236C646.588 454.862 647.236 454.676 648.095 454.676C648.506 454.676 648.879 454.736 649.215 454.858C649.551 454.979 649.84 455.152 650.083 455.376C650.326 455.59 650.503 455.847 650.615 456.146L649.635 456.58C649.514 456.262 649.313 456.034 649.033 455.894C648.753 455.754 648.412 455.684 648.011 455.684C647.582 455.684 647.246 455.777 647.003 455.964C646.76 456.141 646.639 456.393 646.639 456.72C646.639 456.906 646.737 457.084 646.933 457.252C647.138 457.41 647.437 457.541 647.829 457.644L648.529 457.826C648.986 457.938 649.369 458.106 649.677 458.33C649.985 458.544 650.218 458.792 650.377 459.072C650.536 459.352 650.615 459.65 650.615 459.968C650.615 460.388 650.503 460.752 650.279 461.06C650.055 461.368 649.752 461.606 649.369 461.774C648.986 461.932 648.548 462.012 648.053 462.012ZM654.757 462.012C654.075 462.012 653.548 461.834 653.175 461.48C652.801 461.125 652.615 460.626 652.615 459.982V452.66H653.735V459.87C653.735 460.224 653.828 460.5 654.015 460.696C654.211 460.882 654.481 460.976 654.827 460.976C654.939 460.976 655.046 460.962 655.149 460.934C655.261 460.896 655.405 460.812 655.583 460.682L656.017 461.592C655.774 461.75 655.555 461.858 655.359 461.914C655.163 461.979 654.962 462.012 654.757 462.012ZM651.397 455.838V454.844H655.835V455.838H651.397ZM657.486 461.844L657.514 454.844H658.634L658.606 461.844H657.486ZM658.06 453.22C657.873 453.22 657.71 453.15 657.57 453.01C657.43 452.87 657.36 452.706 657.36 452.52C657.36 452.324 657.43 452.16 657.57 452.03C657.71 451.89 657.873 451.82 658.06 451.82C658.256 451.82 658.419 451.89 658.55 452.03C658.69 452.16 658.76 452.324 658.76 452.52C658.76 452.706 658.69 452.87 658.55 453.01C658.419 453.15 658.256 453.22 658.06 453.22ZM660.669 461.844V454.844H661.719L661.789 456.132V461.844H660.669ZM665.583 461.844V458.26L666.703 457.84V461.844H665.583ZM665.583 458.26C665.583 457.569 665.504 457.042 665.345 456.678C665.187 456.314 664.967 456.066 664.687 455.936C664.407 455.796 664.09 455.726 663.735 455.726C663.119 455.726 662.639 455.945 662.293 456.384C661.957 456.813 661.789 457.424 661.789 458.218H661.243C661.243 457.48 661.351 456.846 661.565 456.314C661.78 455.782 662.088 455.376 662.489 455.096C662.9 454.816 663.395 454.676 663.973 454.676C664.823 454.676 665.49 454.937 665.975 455.46C666.47 455.982 666.713 456.776 666.703 457.84L665.583 458.26ZM671.276 464.812C670.828 464.812 670.417 464.765 670.044 464.672C669.68 464.588 669.367 464.49 669.106 464.378C668.854 464.275 668.672 464.186 668.56 464.112L668.98 463.202C669.101 463.267 669.274 463.346 669.498 463.44C669.722 463.542 669.983 463.626 670.282 463.692C670.59 463.766 670.917 463.804 671.262 463.804C671.71 463.804 672.111 463.71 672.466 463.524C672.83 463.346 673.11 463.062 673.306 462.67C673.511 462.287 673.614 461.792 673.614 461.186V454.844H674.734V461.172C674.734 461.974 674.585 462.646 674.286 463.188C673.987 463.729 673.577 464.135 673.054 464.406C672.531 464.676 671.939 464.812 671.276 464.812ZM671.234 461.788C670.609 461.788 670.058 461.638 669.582 461.34C669.106 461.041 668.733 460.626 668.462 460.094C668.201 459.552 668.07 458.936 668.07 458.246C668.07 457.536 668.201 456.916 668.462 456.384C668.733 455.842 669.106 455.422 669.582 455.124C670.058 454.825 670.609 454.676 671.234 454.676C671.822 454.676 672.335 454.825 672.774 455.124C673.213 455.422 673.553 455.842 673.796 456.384C674.048 456.916 674.174 457.536 674.174 458.246C674.174 458.946 674.048 459.562 673.796 460.094C673.553 460.626 673.213 461.041 672.774 461.34C672.335 461.638 671.822 461.788 671.234 461.788ZM671.5 460.822C671.911 460.822 672.275 460.71 672.592 460.486C672.909 460.262 673.157 459.958 673.334 459.576C673.511 459.184 673.6 458.731 673.6 458.218C673.6 457.723 673.507 457.284 673.32 456.902C673.143 456.51 672.895 456.206 672.578 455.992C672.27 455.768 671.906 455.656 671.486 455.656C671.047 455.656 670.655 455.768 670.31 455.992C669.974 456.206 669.708 456.51 669.512 456.902C669.325 457.284 669.232 457.723 669.232 458.218C669.232 458.731 669.33 459.184 669.526 459.576C669.722 459.958 669.988 460.262 670.324 460.486C670.669 460.71 671.061 460.822 671.5 460.822Z" fill="black"/>
<path d="M675.052 516.208C674.904 514.835 674.978 512.964 675.273 512.09C675.495 511.092 676.602 510.593 677.709 510.842C679.407 511.092 679.702 511.841 679.702 514.96C679.702 518.329 679.481 518.704 677.488 518.704C675.864 518.704 675.199 518.08 675.052 516.208Z" fill="#C8C8C9"/>
<path d="M665.456 516.208C665.308 514.835 665.382 512.964 665.677 512.09C665.898 511.092 667.006 510.593 668.113 510.842C669.811 511.092 670.106 511.841 670.106 514.96C670.106 518.329 669.885 518.704 667.892 518.704C666.268 518.704 665.603 518.08 665.456 516.208Z" fill="#C8C8C9"/>
<path d="M655.859 516.208C655.712 514.835 655.785 512.964 656.081 512.09C656.302 511.092 657.409 510.593 658.517 510.842C660.214 511.092 660.51 511.841 660.51 514.96C660.51 518.329 660.288 518.704 658.295 518.704C656.671 518.704 656.007 518.08 655.859 516.208Z" fill="#C8C8C9"/>
<path d="M602.046 516.582C601.898 515.334 602.194 513.463 602.637 512.464C603.375 510.842 606.844 510.593 626.48 510.593C639.103 510.593 649.88 511.092 650.397 511.591C650.913 512.09 651.283 513.837 650.913 518.704H626.554C603.965 518.704 602.194 518.579 602.046 516.582Z" fill="#C8C8C9"/>
<path d="M639.693 499.113C639.545 497.865 639.841 495.993 640.284 494.995C641.022 493.373 645.303 493.123 671.14 493.123C687.601 493.123 701.552 493.622 702.069 494.122C702.586 494.621 702.955 496.368 702.586 501.234H671.213C641.908 501.234 639.841 501.109 639.693 499.113Z" fill="#C8C8C9"/>
<path d="M602.046 499.113C601.898 497.865 602.194 495.993 602.637 494.995C603.301 493.373 606.032 493.123 619.098 493.123C627.661 493.123 635.116 493.622 635.633 494.122C636.15 494.621 636.519 496.368 636.15 501.234H619.172C603.596 501.234 602.194 501.109 602.046 499.113Z" fill="#C8C8C9"/>
<path d="M706.793 481.269C706.646 479.896 706.72 478.025 706.941 477.151C707.31 476.028 710.041 475.654 729.898 476.278V483.765H718.457C707.605 483.765 707.015 483.64 706.793 481.269Z" fill="#C8C8C9"/>
<path d="M681.695 481.269C681.548 479.896 681.622 478.025 681.843 477.151C682.212 476.028 684.796 475.654 703.324 476.278V483.765H692.62C682.507 483.765 681.917 483.64 681.695 481.269Z" fill="#C8C8C9"/>
<path d="M652.168 481.269C652.021 479.896 652.095 478.025 652.316 477.151C652.685 476.028 655.047 475.654 671.582 476.278V483.765H661.986C652.98 483.765 652.39 483.64 652.168 481.269Z" fill="#C8C8C9"/>
<path d="M638.143 481.269C637.995 479.896 638.069 478.025 638.364 477.151C638.66 476.028 640.21 475.654 648.699 476.278V483.765H643.532C638.955 483.765 638.364 483.515 638.143 481.269Z" fill="#C8C8C9"/>
<path d="M610.092 481.269C609.945 479.896 610.018 478.025 610.24 477.151C610.609 476.028 613.488 475.654 634.674 476.278V483.765H622.494C610.904 483.765 610.314 483.64 610.092 481.269Z" fill="#C8C8C9"/>
<path d="M601.972 481.269C601.825 479.896 601.898 478.025 602.194 477.151C602.415 476.153 603.522 475.654 604.63 475.903C606.328 476.153 606.623 476.902 606.623 480.021C606.623 483.39 606.401 483.765 604.408 483.765C602.784 483.765 602.12 483.141 601.972 481.269Z" fill="#C8C8C9"/>
<rect x="586.523" y="367.471" width="158.75" height="166.609" rx="7.37517" stroke="#F2F2F2" stroke-width="1.24966" shape-rendering="crispEdges"/>
</g>
<g filter="url(#filter3_d_2135_16724)">
<rect x="773" y="259" width="157.992" height="159.395" rx="8" fill="white" shape-rendering="crispEdges"/>
<g clip-path="url(#clip1_2135_16724)">
<path d="M800.895 305.78H806.968C807.41 305.78 807.769 305.421 807.769 304.979C807.769 304.537 807.41 304.178 806.968 304.178H800.895C800.453 304.178 800.094 304.537 800.094 304.979C800.094 305.421 800.453 305.78 800.895 305.78Z" fill="#010101"/>
<path d="M818.263 304.454C822.15 304.454 825.311 301.292 825.311 297.406C825.311 293.519 822.15 290.357 818.263 290.357C814.377 290.357 811.215 293.519 811.215 297.406C811.215 301.292 814.377 304.454 818.263 304.454ZM818.263 291.961C821.267 291.961 823.709 294.404 823.709 297.407C823.709 300.411 821.267 302.853 818.263 302.853C815.26 302.853 812.817 300.411 812.817 297.407C812.817 294.404 815.26 291.961 818.263 291.961Z" fill="#010101"/>
<path d="M818.262 295.407C819.366 295.407 820.264 296.304 820.264 297.409C820.264 297.851 820.623 298.21 821.065 298.21C821.507 298.21 821.866 297.851 821.866 297.409C821.866 295.421 820.249 293.805 818.262 293.805C817.82 293.805 817.461 294.163 817.461 294.606C817.461 295.048 817.82 295.407 818.262 295.407Z" fill="#010101"/>
<path d="M833.645 308.949L832.677 307.981V297.086C832.677 294.878 830.88 293.081 828.672 293.081H827.732C826.086 289.494 822.461 286.996 818.263 286.996C814.064 286.996 810.44 289.494 808.794 293.081H800.001C797.793 293.081 795.996 294.878 795.996 297.086V317.269C795.996 319.477 797.793 321.274 800.001 321.274H810.33V323.198C808.158 323.241 806.404 325.018 806.404 327.2C806.404 327.643 806.763 328.001 807.205 328.001H821.464C821.906 328.001 822.265 327.643 822.265 327.2C822.265 325.018 820.511 323.241 818.339 323.198V321.274H828.673C830.882 321.274 832.678 319.477 832.678 317.269V313.414C833.037 313.28 833.367 313.07 833.646 312.79C834.705 311.732 834.705 310.008 833.646 308.949H833.645ZM828.675 297.407C828.675 296.465 828.547 295.551 828.312 294.683H828.672C829.997 294.683 831.075 295.761 831.075 297.086V306.381L827.288 302.594C828.17 301.066 828.673 299.296 828.673 297.408L828.675 297.407ZM818.263 288.598C823.12 288.598 827.073 292.551 827.073 297.408C827.073 302.266 823.12 306.218 818.263 306.218C813.405 306.218 809.453 302.266 809.453 297.408C809.453 292.551 813.405 288.598 818.263 288.598ZM820.525 326.398H808.142C808.473 325.465 809.363 324.796 810.408 324.796H811.913L811.932 321.272H816.737V324.796H818.26C819.304 324.796 820.194 325.465 820.525 326.398ZM831.075 317.267C831.075 318.593 829.997 319.67 828.672 319.67H800.001C798.676 319.67 797.598 318.593 797.598 317.267V315.826H831.075V317.267ZM831.075 314.224H797.598V297.085C797.598 295.759 798.676 294.681 800.001 294.681H808.214C807.978 295.55 807.851 296.464 807.851 297.405C807.851 298.422 807.997 299.403 808.269 300.333H800.893C800.451 300.333 800.092 300.691 800.092 301.134C800.092 301.576 800.451 301.935 800.893 301.935H808.887C810.574 305.413 814.143 307.817 818.261 307.817C820.147 307.817 821.919 307.312 823.447 306.432L829.804 312.789C830.16 313.145 830.598 313.389 831.075 313.507V314.224ZM832.512 311.657C832.077 312.092 831.371 312.092 830.936 311.657L824.79 305.511C825.37 305.044 825.897 304.515 826.365 303.935L832.512 310.081C832.946 310.516 832.946 311.222 832.512 311.657Z" fill="#010101"/>
</g>
<path d="M789.298 363.998V354.198H790.488V363.998H789.298ZM792.777 363.998V356.998H793.827L793.897 358.286V363.998H792.777ZM797.691 363.998V360.414L798.811 359.994V363.998H797.691ZM797.691 360.414C797.691 359.723 797.612 359.196 797.453 358.832C797.294 358.468 797.075 358.221 796.795 358.09C796.515 357.95 796.198 357.88 795.843 357.88C795.227 357.88 794.746 358.099 794.401 358.538C794.065 358.967 793.897 359.579 793.897 360.372H793.351C793.351 359.635 793.458 359 793.673 358.468C793.888 357.936 794.196 357.53 794.597 357.25C795.008 356.97 795.502 356.83 796.081 356.83C796.93 356.83 797.598 357.091 798.083 357.614C798.578 358.137 798.82 358.93 798.811 359.994L797.691 360.414ZM803.034 364.166C802.52 364.166 802.072 364.091 801.69 363.942C801.307 363.783 800.985 363.578 800.724 363.326C800.472 363.074 800.29 362.799 800.178 362.5L801.158 362.094C801.316 362.411 801.554 362.668 801.872 362.864C802.189 363.06 802.539 363.158 802.922 363.158C803.36 363.158 803.729 363.074 804.028 362.906C804.326 362.729 804.476 362.481 804.476 362.164C804.476 361.875 804.364 361.641 804.14 361.464C803.925 361.287 803.603 361.142 803.174 361.03L802.502 360.848C801.867 360.68 801.372 360.428 801.018 360.092C800.663 359.747 800.486 359.359 800.486 358.93C800.486 358.267 800.7 357.754 801.13 357.39C801.568 357.017 802.217 356.83 803.076 356.83C803.486 356.83 803.86 356.891 804.196 357.012C804.532 357.133 804.821 357.306 805.064 357.53C805.306 357.745 805.484 358.001 805.596 358.3L804.616 358.734C804.494 358.417 804.294 358.188 804.014 358.048C803.734 357.908 803.393 357.838 802.992 357.838C802.562 357.838 802.226 357.931 801.984 358.118C801.741 358.295 801.62 358.547 801.62 358.874C801.62 359.061 801.718 359.238 801.914 359.406C802.119 359.565 802.418 359.695 802.81 359.798L803.51 359.98C803.967 360.092 804.35 360.26 804.658 360.484C804.966 360.699 805.199 360.946 805.358 361.226C805.516 361.506 805.596 361.805 805.596 362.122C805.596 362.542 805.484 362.906 805.26 363.214C805.036 363.522 804.732 363.76 804.35 363.928C803.967 364.087 803.528 364.166 803.034 364.166ZM807.175 363.998L807.203 356.998H808.323L808.295 363.998H807.175ZM807.749 355.374C807.562 355.374 807.399 355.304 807.259 355.164C807.119 355.024 807.049 354.861 807.049 354.674C807.049 354.478 807.119 354.315 807.259 354.184C807.399 354.044 807.562 353.974 807.749 353.974C807.945 353.974 808.108 354.044 808.239 354.184C808.379 354.315 808.449 354.478 808.449 354.674C808.449 354.861 808.379 355.024 808.239 355.164C808.108 355.304 807.945 355.374 807.749 355.374ZM813.159 366.966C812.711 366.966 812.3 366.919 811.927 366.826C811.563 366.742 811.25 366.644 810.989 366.532C810.737 366.429 810.555 366.341 810.443 366.266L810.863 365.356C810.984 365.421 811.157 365.501 811.381 365.594C811.605 365.697 811.866 365.781 812.165 365.846C812.473 365.921 812.8 365.958 813.145 365.958C813.593 365.958 813.994 365.865 814.349 365.678C814.713 365.501 814.993 365.216 815.189 364.824C815.394 364.441 815.497 363.947 815.497 363.34V356.998H816.617V363.326C816.617 364.129 816.468 364.801 816.169 365.342C815.87 365.883 815.46 366.289 814.937 366.56C814.414 366.831 813.822 366.966 813.159 366.966ZM813.117 363.942C812.492 363.942 811.941 363.793 811.465 363.494C810.989 363.195 810.616 362.78 810.345 362.248C810.084 361.707 809.953 361.091 809.953 360.4C809.953 359.691 810.084 359.07 810.345 358.538C810.616 357.997 810.989 357.577 811.465 357.278C811.941 356.979 812.492 356.83 813.117 356.83C813.705 356.83 814.218 356.979 814.657 357.278C815.096 357.577 815.436 357.997 815.679 358.538C815.931 359.07 816.057 359.691 816.057 360.4C816.057 361.1 815.931 361.716 815.679 362.248C815.436 362.78 815.096 363.195 814.657 363.494C814.218 363.793 813.705 363.942 813.117 363.942ZM813.383 362.976C813.794 362.976 814.158 362.864 814.475 362.64C814.792 362.416 815.04 362.113 815.217 361.73C815.394 361.338 815.483 360.885 815.483 360.372C815.483 359.877 815.39 359.439 815.203 359.056C815.026 358.664 814.778 358.361 814.461 358.146C814.153 357.922 813.789 357.81 813.369 357.81C812.93 357.81 812.538 357.922 812.193 358.146C811.857 358.361 811.591 358.664 811.395 359.056C811.208 359.439 811.115 359.877 811.115 360.372C811.115 360.885 811.213 361.338 811.409 361.73C811.605 362.113 811.871 362.416 812.207 362.64C812.552 362.864 812.944 362.976 813.383 362.976ZM818.576 363.998V354.016H819.696V363.998H818.576ZM823.504 363.998V360.414L824.624 359.994V363.998H823.504ZM823.504 360.414C823.504 359.723 823.42 359.196 823.252 358.832C823.093 358.468 822.874 358.221 822.594 358.09C822.314 357.95 821.996 357.88 821.642 357.88C821.026 357.88 820.545 358.099 820.2 358.538C819.864 358.967 819.696 359.579 819.696 360.372H819.15C819.15 359.635 819.257 359 819.472 358.468C819.686 357.936 819.999 357.53 820.41 357.25C820.82 356.97 821.315 356.83 821.894 356.83C822.734 356.83 823.401 357.091 823.896 357.614C824.39 358.137 824.633 358.93 824.624 359.994L823.504 360.414ZM829.014 364.166C828.333 364.166 827.806 363.989 827.432 363.634C827.059 363.279 826.872 362.78 826.872 362.136V354.814H827.992V362.024C827.992 362.379 828.086 362.654 828.272 362.85C828.468 363.037 828.739 363.13 829.084 363.13C829.196 363.13 829.304 363.116 829.406 363.088C829.518 363.051 829.663 362.967 829.84 362.836L830.274 363.746C830.032 363.905 829.812 364.012 829.616 364.068C829.42 364.133 829.22 364.166 829.014 364.166ZM825.654 357.992V356.998H830.092V357.992H825.654ZM834.123 364.166C833.61 364.166 833.162 364.091 832.779 363.942C832.397 363.783 832.075 363.578 831.813 363.326C831.561 363.074 831.379 362.799 831.267 362.5L832.247 362.094C832.406 362.411 832.644 362.668 832.961 362.864C833.279 363.06 833.629 363.158 834.011 363.158C834.45 363.158 834.819 363.074 835.117 362.906C835.416 362.729 835.565 362.481 835.565 362.164C835.565 361.875 835.453 361.641 835.229 361.464C835.015 361.287 834.693 361.142 834.263 361.03L833.591 360.848C832.957 360.68 832.462 360.428 832.107 360.092C831.753 359.747 831.575 359.359 831.575 358.93C831.575 358.267 831.79 357.754 832.219 357.39C832.658 357.017 833.307 356.83 834.165 356.83C834.576 356.83 834.949 356.891 835.285 357.012C835.621 357.133 835.911 357.306 836.153 357.53C836.396 357.745 836.573 358.001 836.685 358.3L835.705 358.734C835.584 358.417 835.383 358.188 835.103 358.048C834.823 357.908 834.483 357.838 834.081 357.838C833.652 357.838 833.316 357.931 833.073 358.118C832.831 358.295 832.709 358.547 832.709 358.874C832.709 359.061 832.807 359.238 833.003 359.406C833.209 359.565 833.507 359.695 833.899 359.798L834.599 359.98C835.057 360.092 835.439 360.26 835.747 360.484C836.055 360.699 836.289 360.946 836.447 361.226C836.606 361.506 836.685 361.805 836.685 362.122C836.685 362.542 836.573 362.906 836.349 363.214C836.125 363.522 835.822 363.76 835.439 363.928C835.057 364.087 834.618 364.166 834.123 364.166Z" fill="black"/>
<path d="M884.034 400.903C883.886 399.53 883.96 397.659 884.181 396.785C884.55 395.537 888.167 395.288 915.996 395.912V403.399H900.126C884.846 403.399 884.255 403.274 884.034 400.903Z" fill="#C8C8C9"/>
<path d="M826.531 401.277C826.383 400.03 826.679 398.158 827.122 397.16C827.86 395.537 831.624 395.288 853.179 395.288C866.982 395.288 878.793 395.787 879.31 396.286C879.826 396.785 880.195 398.532 879.826 403.399H853.252C828.524 403.399 826.679 403.274 826.531 401.277Z" fill="#C8C8C9"/>
<path d="M788.147 401.277C787.999 400.03 788.294 398.158 788.737 397.16C789.402 395.537 792.133 395.288 805.198 395.288C813.761 395.288 821.216 395.787 821.733 396.286C822.25 396.785 822.619 398.532 822.25 403.399H805.272C789.697 403.399 788.294 403.274 788.147 401.277Z" fill="#C8C8C9"/>
<path d="M862.627 383.434C862.479 382.061 862.553 380.189 862.849 379.316C863.07 378.318 864.177 377.819 865.284 378.068C866.982 378.318 867.278 379.066 867.278 382.186C867.278 385.555 867.056 385.929 865.063 385.929C863.439 385.929 862.775 385.305 862.627 383.434Z" fill="#C8C8C9"/>
<path d="M839.006 383.434C838.858 382.061 838.932 380.189 839.154 379.316C839.523 378.193 841.885 377.818 858.42 378.442V385.929H848.823C839.818 385.929 839.227 385.804 839.006 383.434Z" fill="#C8C8C9"/>
<path d="M825.719 383.434C825.571 382.061 825.645 380.189 825.941 379.316C826.236 378.193 827.638 377.818 830.591 378.068C834.725 378.442 834.798 378.567 834.798 382.186C834.798 385.929 834.798 385.929 830.369 385.929C826.531 385.929 825.941 385.555 825.719 383.434Z" fill="#C8C8C9"/>
<path d="M788.073 383.434C787.925 382.061 787.999 380.189 788.221 379.316C788.59 378.068 792.354 377.818 821.512 378.442V385.929H804.903C788.885 385.929 788.294 385.804 788.073 383.434Z" fill="#C8C8C9"/>
<rect x="773.625" y="259.625" width="156.742" height="158.145" rx="7.37517" stroke="#F2F2F2" stroke-width="1.24966" shape-rendering="crispEdges"/>
</g>
<path d="M88.5416 217.203C87.7163 217.071 86.8649 217 85.9999 217C85.1349 217 84.2846 217.072 83.4593 217.203C75.842 218.421 70 225.042 70 233C70 241.822 77.1791 249 85.9999 249C94.8206 249 102.001 241.822 102.001 233C102.001 225.042 96.1577 218.421 88.5416 217.203Z" fill="#C2C2C2"/>
<path d="M85.9997 237.964C83.2621 237.964 81.0352 235.737 81.0352 233C81.0352 230.262 83.2621 228.035 85.9997 228.035C88.7373 228.035 90.9643 230.262 90.9643 233C90.9643 235.737 88.7373 237.964 85.9997 237.964Z" fill="white"/>
<path d="M283.542 307.203C282.716 307.071 281.865 307 281 307C280.135 307 279.285 307.072 278.459 307.203C270.842 308.421 265 315.042 265 323C265 331.822 272.179 339 281 339C289.821 339 297.001 331.822 297.001 323C297.001 315.042 291.158 308.421 283.542 307.203Z" fill="#C2C2C2"/>
<path d="M281 327.964C278.262 327.964 276.035 325.737 276.035 323C276.035 320.262 278.262 318.035 281 318.035C283.737 318.035 285.964 320.262 285.964 323C285.964 325.737 283.737 327.964 281 327.964Z" fill="white"/>
<path d="M658.542 307.203C657.716 307.071 656.865 307 656 307C655.135 307 654.285 307.072 653.459 307.203C645.842 308.421 640 315.042 640 323C640 331.822 647.179 339 656 339C664.821 339 672.001 331.822 672.001 323C672.001 315.042 666.158 308.421 658.542 307.203Z" fill="#C2C2C2"/>
<path d="M656 327.964C653.262 327.964 651.035 325.737 651.035 323C651.035 320.262 653.262 318.035 656 318.035C658.737 318.035 660.964 320.262 660.964 323C660.964 325.737 658.737 327.964 656 327.964Z" fill="white"/>
<path d="M471.542 480.203C470.716 480.071 469.865 480 469 480C468.135 480 467.285 480.072 466.459 480.203C458.842 481.421 453 488.042 453 496C453 504.822 460.179 512 469 512C477.821 512 485.001 504.822 485.001 496C485.001 488.042 479.158 481.421 471.542 480.203Z" fill="#C2C2C2"/>
<path d="M469 500.964C466.262 500.964 464.035 498.737 464.035 496C464.035 493.262 466.262 491.035 469 491.035C471.737 491.035 473.964 493.262 473.964 496C473.964 498.737 471.737 500.964 469 500.964Z" fill="white"/>
<path d="M854.542 217.203C853.716 217.071 852.865 217 852 217C851.135 217 850.285 217.072 849.459 217.203C841.842 218.421 836 225.042 836 233C836 241.822 843.179 249 852 249C860.821 249 868.001 241.822 868.001 233C868.001 225.042 862.158 218.421 854.542 217.203Z" fill="#C2C2C2"/>
<path d="M852 237.964C849.262 237.964 847.035 235.737 847.035 233C847.035 230.262 849.262 228.035 852 228.035C854.737 228.035 856.964 230.262 856.964 233C856.964 235.737 854.737 237.964 852 237.964Z" fill="white"/>
<g filter="url(#filter4_d_2135_16724)">
<rect x="390" y="528" width="157.992" height="147.985" rx="8" fill="white" shape-rendering="crispEdges"/>
<path d="M441.404 571.488C441.335 571.252 441.158 571.06 440.923 570.974C440.875 570.957 440.49 570.82 439.892 570.733C442.447 568.014 441.604 564.837 441.404 564.217C441.335 563.981 441.158 563.789 440.923 563.703C440.813 563.663 438.901 562.988 436.722 563.747C436.845 563.242 436.917 562.687 436.917 562.078C436.917 558.182 433.967 556.47 433.375 556.166C433.159 556.048 432.898 556.037 432.671 556.143C432.524 556.211 429.082 557.858 429.082 562.078C429.082 562.688 429.155 563.244 429.278 563.75C427.095 562.986 425.178 563.663 425.068 563.703C424.833 563.789 424.655 563.981 424.586 564.217C424.387 564.837 423.543 568.014 426.099 570.733C425.5 570.82 425.115 570.957 425.068 570.974C424.833 571.06 424.655 571.253 424.586 571.488C424.383 572.121 423.507 575.419 426.262 578.173C427.856 579.767 429.626 580.148 430.951 580.148C431.442 580.148 431.871 580.095 432.209 580.033V585.145C432.209 585.577 432.558 585.926 432.99 585.926C433.421 585.926 433.771 585.577 433.771 585.145V580.031C434.11 580.094 434.543 580.148 435.04 580.148C436.365 580.148 438.135 579.767 439.729 578.173C442.483 575.418 441.608 572.121 441.404 571.488ZM432.209 577.598C432.191 577.953 432.141 578.251 432.094 578.465C431.259 578.651 429.17 578.871 427.367 577.068C425.591 575.293 425.778 573.238 425.974 572.342C426.499 572.228 427.524 572.101 428.658 572.469C428.733 572.497 428.807 572.523 428.881 572.548C429.482 572.775 430.106 573.147 430.697 573.738C431.823 574.865 432.16 576.103 432.209 577.077V577.598ZM432.209 570.327C432.191 570.682 432.141 570.98 432.094 571.194C431.576 571.309 430.578 571.437 429.464 571.089C429.351 571.046 429.239 571.006 429.127 570.97C428.545 570.74 427.941 570.372 427.367 569.797C425.591 568.022 425.778 565.967 425.974 565.071C426.808 564.89 428.904 564.674 430.697 566.467C430.708 566.479 430.719 566.49 430.73 566.502C430.798 566.579 430.867 566.652 430.936 566.723C431.871 567.778 432.163 568.905 432.209 569.806V570.327ZM433.001 566.408C432.756 566.251 432.403 565.992 432.045 565.618C432.008 565.577 431.971 565.537 431.933 565.497C431.281 564.772 430.645 563.66 430.645 562.078C430.645 559.532 432.274 558.21 432.996 557.75C433.768 558.245 435.354 559.566 435.354 562.078C435.354 563.571 434.794 564.642 434.185 565.366C434.059 565.493 433.94 565.621 433.829 565.75C433.516 566.053 433.217 566.27 433.001 566.408ZM433.776 570.074C433.775 569.157 434.012 567.943 434.983 566.803C435.098 566.689 435.214 566.566 435.329 566.434C437.122 564.67 439.186 564.886 440.016 565.069C440.213 565.965 440.4 568.021 438.624 569.797C438.05 570.371 437.448 570.739 436.867 570.969C436.753 571.006 436.639 571.046 436.524 571.09C435.411 571.437 434.412 571.309 433.897 571.194C433.839 570.934 433.778 570.552 433.776 570.094C433.776 570.087 433.776 570.081 433.776 570.074ZM438.624 577.068C436.821 578.871 434.731 578.651 433.898 578.466C433.717 577.635 433.497 575.535 435.294 573.738C435.869 573.164 436.472 572.795 437.056 572.565C437.167 572.529 437.279 572.49 437.391 572.446C438.503 572.099 439.499 572.226 440.016 572.34C440.213 573.236 440.4 575.292 438.624 577.068Z" fill="black" stroke="black" stroke-width="0.6"/>
<path d="M437.164 551.431C435.802 551.143 434.399 550.996 432.995 550.996C427.653 550.996 422.631 553.076 418.854 556.854C415.076 560.631 412.996 565.653 412.996 570.995C412.996 575.447 414.494 579.792 417.222 583.29C416.915 583.765 416.75 584.318 416.75 584.897C416.75 585.69 417.059 586.435 417.62 586.996C418.18 587.557 418.926 587.866 419.719 587.866C420.512 587.866 421.257 587.557 421.818 586.996C422.379 586.435 422.687 585.69 422.687 584.897C422.687 584.104 422.378 583.359 421.818 582.798C421.257 582.237 420.512 581.928 419.719 581.928C419.249 581.928 418.796 582.038 418.388 582.243C415.915 579.033 414.559 575.062 414.559 570.995C414.559 560.829 422.829 552.559 432.995 552.559C434.291 552.559 435.584 552.694 436.84 552.96C437.262 553.049 437.676 552.78 437.766 552.358C437.855 551.936 437.586 551.521 437.164 551.431ZM418.724 583.903C418.998 583.628 419.359 583.491 419.719 583.491C420.079 583.491 420.439 583.629 420.713 583.903C420.979 584.168 421.125 584.521 421.125 584.897C421.125 585.273 420.979 585.626 420.713 585.891C420.165 586.44 419.273 586.44 418.724 585.891C418.459 585.626 418.312 585.273 418.312 584.897C418.312 584.521 418.459 584.168 418.724 583.903Z" fill="black" stroke="black" stroke-width="0.6"/>
<path d="M448.769 558.7C449.076 558.226 449.241 557.673 449.241 557.094C449.241 556.301 448.932 555.555 448.371 554.994C447.811 554.434 447.065 554.125 446.272 554.125C445.479 554.125 444.734 554.434 444.173 554.994C443.612 555.555 443.304 556.301 443.304 557.094C443.304 557.887 443.612 558.632 444.173 559.193C444.734 559.754 445.479 560.062 446.272 560.062C446.742 560.062 447.195 559.953 447.603 559.748C450.076 562.958 451.432 566.928 451.432 570.995C451.432 581.162 443.162 589.432 432.995 589.432C431.902 589.432 430.806 589.336 429.739 589.146C429.314 589.07 428.908 589.353 428.833 589.778C428.757 590.202 429.04 590.608 429.465 590.684C430.622 590.89 431.81 590.995 432.995 590.995C438.337 590.995 443.36 588.914 447.137 585.137C450.915 581.36 452.995 576.337 452.995 570.995C452.995 566.544 451.497 562.199 448.769 558.7ZM447.267 558.088C447.001 558.354 446.648 558.5 446.272 558.5C445.897 558.5 445.543 558.354 445.278 558.088C444.73 557.54 444.73 556.648 445.278 556.099C445.543 555.834 445.897 555.687 446.272 555.687C446.648 555.687 447.001 555.834 447.267 556.099C447.532 556.365 447.678 556.718 447.678 557.094C447.678 557.469 447.532 557.822 447.267 558.088Z" fill="black" stroke="black" stroke-width="0.6"/>
<path d="M426.131 588.113L425.836 588.836L426.129 588.112C425.729 587.95 425.274 588.143 425.112 588.543C424.95 588.943 425.143 589.399 425.543 589.56L425.567 589.57C425.66 589.605 425.754 589.622 425.848 589.622C426.162 589.622 426.46 589.431 426.579 589.121C426.733 588.718 426.534 588.267 426.131 588.113Z" fill="black" stroke="black" stroke-width="0.6"/>
<path d="M440.482 552.444L440.468 552.439C440.068 552.279 439.613 552.474 439.453 552.874C439.292 553.275 439.487 553.729 439.888 553.89L439.897 553.893C439.993 553.932 440.092 553.95 440.189 553.95C440.498 553.95 440.791 553.766 440.914 553.462C441.075 553.061 440.882 552.606 440.482 552.444Z" fill="black" stroke="black" stroke-width="0.6"/>
<path d="M409.308 621.992L413.312 612.192H414.558L410.498 621.992H409.308ZM409.182 621.992L405.122 612.192H406.368L410.358 621.992H409.182ZM418.189 622.16C417.507 622.16 416.905 622.006 416.383 621.698C415.86 621.381 415.449 620.947 415.151 620.396C414.861 619.846 414.717 619.211 414.717 618.492C414.717 617.774 414.861 617.139 415.151 616.588C415.449 616.038 415.855 615.608 416.369 615.3C416.891 614.983 417.489 614.824 418.161 614.824C418.805 614.824 419.365 614.988 419.841 615.314C420.326 615.632 420.699 616.08 420.961 616.658C421.222 617.237 421.353 617.918 421.353 618.702H420.233C420.233 618.105 420.153 617.596 419.995 617.176C419.836 616.747 419.598 616.416 419.281 616.182C418.973 615.949 418.595 615.832 418.147 615.832C417.689 615.832 417.283 615.944 416.929 616.168C416.583 616.383 416.317 616.691 416.131 617.092C415.944 617.494 415.851 617.965 415.851 618.506C415.851 619.038 415.953 619.5 416.159 619.892C416.364 620.275 416.649 620.578 417.013 620.802C417.377 621.017 417.787 621.124 418.245 621.124C418.73 621.124 419.141 621.008 419.477 620.774C419.813 620.541 420.079 620.238 420.275 619.864L421.255 620.354C421.077 620.718 420.839 621.036 420.541 621.306C420.251 621.577 419.906 621.787 419.505 621.936C419.113 622.086 418.674 622.16 418.189 622.16ZM415.459 618.702L415.473 617.736H420.667V618.702H415.459ZM425.565 624.96C425.117 624.96 424.706 624.914 424.333 624.82C423.969 624.736 423.656 624.638 423.395 624.526C423.143 624.424 422.961 624.335 422.849 624.26L423.269 623.35C423.39 623.416 423.563 623.495 423.787 623.588C424.011 623.691 424.272 623.775 424.571 623.84C424.879 623.915 425.206 623.952 425.551 623.952C425.999 623.952 426.4 623.859 426.755 623.672C427.119 623.495 427.399 623.21 427.595 622.818C427.8 622.436 427.903 621.941 427.903 621.334V614.992H429.023V621.32C429.023 622.123 428.874 622.795 428.575 623.336C428.276 623.878 427.866 624.284 427.343 624.554C426.82 624.825 426.228 624.96 425.565 624.96ZM425.523 621.936C424.898 621.936 424.347 621.787 423.871 621.488C423.395 621.19 423.022 620.774 422.751 620.242C422.49 619.701 422.359 619.085 422.359 618.394C422.359 617.685 422.49 617.064 422.751 616.532C423.022 615.991 423.395 615.571 423.871 615.272C424.347 614.974 424.898 614.824 425.523 614.824C426.111 614.824 426.624 614.974 427.063 615.272C427.502 615.571 427.842 615.991 428.085 616.532C428.337 617.064 428.463 617.685 428.463 618.394C428.463 619.094 428.337 619.71 428.085 620.242C427.842 620.774 427.502 621.19 427.063 621.488C426.624 621.787 426.111 621.936 425.523 621.936ZM425.789 620.97C426.2 620.97 426.564 620.858 426.881 620.634C427.198 620.41 427.446 620.107 427.623 619.724C427.8 619.332 427.889 618.88 427.889 618.366C427.889 617.872 427.796 617.433 427.609 617.05C427.432 616.658 427.184 616.355 426.867 616.14C426.559 615.916 426.195 615.804 425.775 615.804C425.336 615.804 424.944 615.916 424.599 616.14C424.263 616.355 423.997 616.658 423.801 617.05C423.614 617.433 423.521 617.872 423.521 618.366C423.521 618.88 423.619 619.332 423.815 619.724C424.011 620.107 424.277 620.41 424.613 620.634C424.958 620.858 425.35 620.97 425.789 620.97ZM434.048 622.16C433.367 622.16 432.765 622.006 432.242 621.698C431.719 621.381 431.309 620.947 431.01 620.396C430.721 619.846 430.576 619.211 430.576 618.492C430.576 617.774 430.721 617.139 431.01 616.588C431.309 616.038 431.715 615.608 432.228 615.3C432.751 614.983 433.348 614.824 434.02 614.824C434.664 614.824 435.224 614.988 435.7 615.314C436.185 615.632 436.559 616.08 436.82 616.658C437.081 617.237 437.212 617.918 437.212 618.702H436.092C436.092 618.105 436.013 617.596 435.854 617.176C435.695 616.747 435.457 616.416 435.14 616.182C434.832 615.949 434.454 615.832 434.006 615.832C433.549 615.832 433.143 615.944 432.788 616.168C432.443 616.383 432.177 616.691 431.99 617.092C431.803 617.494 431.71 617.965 431.71 618.506C431.71 619.038 431.813 619.5 432.018 619.892C432.223 620.275 432.508 620.578 432.872 620.802C433.236 621.017 433.647 621.124 434.104 621.124C434.589 621.124 435 621.008 435.336 620.774C435.672 620.541 435.938 620.238 436.134 619.864L437.114 620.354C436.937 620.718 436.699 621.036 436.4 621.306C436.111 621.577 435.765 621.787 435.364 621.936C434.972 622.086 434.533 622.16 434.048 622.16ZM431.318 618.702L431.332 617.736H436.526V618.702H431.318ZM441.257 622.16C440.575 622.16 440.048 621.983 439.675 621.628C439.301 621.274 439.115 620.774 439.115 620.13V612.808H440.235V620.018C440.235 620.373 440.328 620.648 440.515 620.844C440.711 621.031 440.981 621.124 441.327 621.124C441.439 621.124 441.546 621.11 441.649 621.082C441.761 621.045 441.905 620.961 442.083 620.83L442.517 621.74C442.274 621.899 442.055 622.006 441.859 622.062C441.663 622.128 441.462 622.16 441.257 622.16ZM437.897 615.986V614.992H442.335V615.986H437.897ZM448.187 621.992L448.117 620.844V618.296C448.117 617.746 448.051 617.293 447.921 616.938C447.799 616.574 447.608 616.304 447.347 616.126C447.095 615.94 446.759 615.846 446.339 615.846C445.937 615.846 445.587 615.926 445.289 616.084C444.999 616.243 444.761 616.49 444.575 616.826L443.567 616.42C443.753 616.094 443.977 615.809 444.239 615.566C444.5 615.324 444.803 615.142 445.149 615.02C445.503 614.89 445.905 614.824 446.353 614.824C446.997 614.824 447.533 614.95 447.963 615.202C448.392 615.454 448.714 615.832 448.929 616.336C449.143 616.831 449.246 617.452 449.237 618.198L449.223 621.992H448.187ZM446.087 622.16C445.265 622.16 444.621 621.974 444.155 621.6C443.697 621.218 443.469 620.69 443.469 620.018C443.469 619.309 443.702 618.768 444.169 618.394C444.645 618.012 445.307 617.82 446.157 617.82H448.159V618.758H446.409C445.755 618.758 445.289 618.866 445.009 619.08C444.738 619.295 444.603 619.603 444.603 620.004C444.603 620.368 444.738 620.658 445.009 620.872C445.279 621.078 445.657 621.18 446.143 621.18C446.544 621.18 446.894 621.087 447.193 620.9C447.491 620.714 447.72 620.462 447.879 620.144C448.037 619.818 448.117 619.449 448.117 619.038H448.803C448.803 619.99 448.569 620.751 448.103 621.32C447.636 621.88 446.964 622.16 446.087 622.16ZM453.643 622.16C452.962 622.16 452.435 621.983 452.061 621.628C451.688 621.274 451.501 620.774 451.501 620.13V612.808H452.621V620.018C452.621 620.373 452.715 620.648 452.901 620.844C453.097 621.031 453.368 621.124 453.713 621.124C453.825 621.124 453.933 621.11 454.035 621.082C454.147 621.045 454.292 620.961 454.469 620.83L454.903 621.74C454.661 621.899 454.441 622.006 454.245 622.062C454.049 622.128 453.849 622.16 453.643 622.16ZM450.283 615.986V614.992H454.721V615.986H450.283ZM456.372 621.992L456.4 614.992H457.52L457.492 621.992H456.372ZM456.946 613.368C456.76 613.368 456.596 613.298 456.456 613.158C456.316 613.018 456.246 612.855 456.246 612.668C456.246 612.472 456.316 612.309 456.456 612.178C456.596 612.038 456.76 611.968 456.946 611.968C457.142 611.968 457.306 612.038 457.436 612.178C457.576 612.309 457.646 612.472 457.646 612.668C457.646 612.855 457.576 613.018 457.436 613.158C457.306 613.298 457.142 613.368 456.946 613.368ZM462.65 622.16C461.969 622.16 461.362 622.006 460.83 621.698C460.308 621.381 459.897 620.947 459.598 620.396C459.3 619.846 459.15 619.211 459.15 618.492C459.15 617.774 459.295 617.139 459.584 616.588C459.883 616.038 460.294 615.608 460.816 615.3C461.348 614.983 461.95 614.824 462.622 614.824C463.313 614.824 463.92 614.983 464.442 615.3C464.974 615.608 465.385 616.038 465.674 616.588C465.973 617.139 466.122 617.774 466.122 618.492C466.122 619.211 465.973 619.846 465.674 620.396C465.385 620.947 464.979 621.381 464.456 621.698C463.934 622.006 463.332 622.16 462.65 622.16ZM462.65 621.124C463.117 621.124 463.523 621.012 463.868 620.788C464.214 620.564 464.484 620.256 464.68 619.864C464.886 619.472 464.988 619.015 464.988 618.492C464.988 617.97 464.886 617.512 464.68 617.12C464.484 616.728 464.209 616.42 463.854 616.196C463.5 615.972 463.089 615.86 462.622 615.86C462.165 615.86 461.759 615.972 461.404 616.196C461.059 616.42 460.784 616.728 460.578 617.12C460.382 617.512 460.284 617.97 460.284 618.492C460.284 619.006 460.382 619.463 460.578 619.864C460.784 620.256 461.064 620.564 461.418 620.788C461.782 621.012 462.193 621.124 462.65 621.124ZM467.677 621.992V614.992H468.727L468.797 616.28V621.992H467.677ZM472.591 621.992V618.408L473.711 617.988V621.992H472.591ZM472.591 618.408C472.591 617.718 472.512 617.19 472.353 616.826C472.195 616.462 471.975 616.215 471.695 616.084C471.415 615.944 471.098 615.874 470.743 615.874C470.127 615.874 469.647 616.094 469.301 616.532C468.965 616.962 468.797 617.573 468.797 618.366H468.251C468.251 617.629 468.359 616.994 468.573 616.462C468.788 615.93 469.096 615.524 469.497 615.244C469.908 614.964 470.403 614.824 470.981 614.824C471.831 614.824 472.498 615.086 472.983 615.608C473.478 616.131 473.721 616.924 473.711 617.988L472.591 618.408ZM479.265 621.992V612.192H480.455V621.992H479.265ZM482.744 621.992V614.992H483.794L483.864 616.28V621.992H482.744ZM487.658 621.992V618.408L488.778 617.988V621.992H487.658ZM487.658 618.408C487.658 617.718 487.578 617.19 487.42 616.826C487.261 616.462 487.042 616.215 486.762 616.084C486.482 615.944 486.164 615.874 485.81 615.874C485.194 615.874 484.713 616.094 484.368 616.532C484.032 616.962 483.864 617.573 483.864 618.366H483.318C483.318 617.629 483.425 616.994 483.64 616.462C483.854 615.93 484.162 615.524 484.564 615.244C484.974 614.964 485.469 614.824 486.048 614.824C486.897 614.824 487.564 615.086 488.05 615.608C488.544 616.131 488.787 616.924 488.778 617.988L487.658 618.408ZM495.73 621.992L495.674 620.69V612.192H496.794V621.992H495.73ZM493.308 622.16C492.683 622.16 492.132 622.006 491.656 621.698C491.18 621.39 490.807 620.961 490.536 620.41C490.275 619.85 490.144 619.211 490.144 618.492C490.144 617.764 490.275 617.125 490.536 616.574C490.807 616.024 491.18 615.594 491.656 615.286C492.132 614.978 492.683 614.824 493.308 614.824C493.896 614.824 494.41 614.978 494.848 615.286C495.296 615.594 495.642 616.024 495.884 616.574C496.127 617.125 496.248 617.764 496.248 618.492C496.248 619.211 496.127 619.85 495.884 620.41C495.642 620.961 495.296 621.39 494.848 621.698C494.41 622.006 493.896 622.16 493.308 622.16ZM493.56 621.138C493.971 621.138 494.335 621.026 494.652 620.802C494.97 620.578 495.217 620.266 495.394 619.864C495.581 619.463 495.674 619.006 495.674 618.492C495.674 617.979 495.581 617.522 495.394 617.12C495.217 616.719 494.97 616.406 494.652 616.182C494.335 615.958 493.966 615.846 493.546 615.846C493.108 615.846 492.716 615.958 492.37 616.182C492.034 616.406 491.768 616.719 491.572 617.12C491.376 617.522 491.278 617.979 491.278 618.492C491.278 619.006 491.376 619.463 491.572 619.864C491.768 620.266 492.039 620.578 492.384 620.802C492.73 621.026 493.122 621.138 493.56 621.138ZM498.823 621.992L498.851 614.992H499.971L499.943 621.992H498.823ZM499.397 613.368C499.211 613.368 499.047 613.298 498.907 613.158C498.767 613.018 498.697 612.855 498.697 612.668C498.697 612.472 498.767 612.309 498.907 612.178C499.047 612.038 499.211 611.968 499.397 611.968C499.593 611.968 499.757 612.038 499.887 612.178C500.027 612.309 500.097 612.472 500.097 612.668C500.097 612.855 500.027 613.018 499.887 613.158C499.757 613.298 499.593 613.368 499.397 613.368ZM505.129 622.16C504.439 622.16 503.827 622.006 503.295 621.698C502.763 621.381 502.348 620.947 502.049 620.396C501.751 619.846 501.601 619.211 501.601 618.492C501.601 617.774 501.746 617.139 502.035 616.588C502.334 616.038 502.749 615.608 503.281 615.3C503.813 614.983 504.42 614.824 505.101 614.824C505.773 614.824 506.375 614.978 506.907 615.286C507.439 615.594 507.845 616.028 508.125 616.588L507.103 617.05C506.917 616.677 506.646 616.388 506.291 616.182C505.937 615.968 505.531 615.86 505.073 615.86C504.616 615.86 504.21 615.972 503.855 616.196C503.51 616.42 503.235 616.733 503.029 617.134C502.833 617.526 502.735 617.979 502.735 618.492C502.735 619.006 502.833 619.463 503.029 619.864C503.235 620.256 503.515 620.564 503.869 620.788C504.233 621.012 504.644 621.124 505.101 621.124C505.559 621.124 505.965 621.008 506.319 620.774C506.683 620.541 506.959 620.214 507.145 619.794L508.167 620.256C507.887 620.854 507.481 621.32 506.949 621.656C506.417 621.992 505.811 622.16 505.129 622.16ZM512.648 622.16C511.966 622.16 511.364 622.006 510.842 621.698C510.319 621.381 509.908 620.947 509.61 620.396C509.32 619.846 509.176 619.211 509.176 618.492C509.176 617.774 509.32 617.139 509.61 616.588C509.908 616.038 510.314 615.608 510.828 615.3C511.35 614.983 511.948 614.824 512.62 614.824C513.264 614.824 513.824 614.988 514.3 615.314C514.785 615.632 515.158 616.08 515.42 616.658C515.681 617.237 515.812 617.918 515.812 618.702H514.692C514.692 618.105 514.612 617.596 514.454 617.176C514.295 616.747 514.057 616.416 513.74 616.182C513.432 615.949 513.054 615.832 512.606 615.832C512.148 615.832 511.742 615.944 511.388 616.168C511.042 616.383 510.776 616.691 510.59 617.092C510.403 617.494 510.31 617.965 510.31 618.506C510.31 619.038 510.412 619.5 510.618 619.892C510.823 620.275 511.108 620.578 511.472 620.802C511.836 621.017 512.246 621.124 512.704 621.124C513.189 621.124 513.6 621.008 513.936 620.774C514.272 620.541 514.538 620.238 514.734 619.864L515.714 620.354C515.536 620.718 515.298 621.036 515 621.306C514.71 621.577 514.365 621.787 513.964 621.936C513.572 622.086 513.133 622.16 512.648 622.16ZM509.918 618.702L509.932 617.736H515.126V618.702H509.918ZM519.674 622.16C519.161 622.16 518.713 622.086 518.33 621.936C517.947 621.778 517.625 621.572 517.364 621.32C517.112 621.068 516.93 620.793 516.818 620.494L517.798 620.088C517.957 620.406 518.195 620.662 518.512 620.858C518.829 621.054 519.179 621.152 519.562 621.152C520.001 621.152 520.369 621.068 520.668 620.9C520.967 620.723 521.116 620.476 521.116 620.158C521.116 619.869 521.004 619.636 520.78 619.458C520.565 619.281 520.243 619.136 519.814 619.024L519.142 618.842C518.507 618.674 518.013 618.422 517.658 618.086C517.303 617.741 517.126 617.354 517.126 616.924C517.126 616.262 517.341 615.748 517.77 615.384C518.209 615.011 518.857 614.824 519.716 614.824C520.127 614.824 520.5 614.885 520.836 615.006C521.172 615.128 521.461 615.3 521.704 615.524C521.947 615.739 522.124 615.996 522.236 616.294L521.256 616.728C521.135 616.411 520.934 616.182 520.654 616.042C520.374 615.902 520.033 615.832 519.632 615.832C519.203 615.832 518.867 615.926 518.624 616.112C518.381 616.29 518.26 616.542 518.26 616.868C518.26 617.055 518.358 617.232 518.554 617.4C518.759 617.559 519.058 617.69 519.45 617.792L520.15 617.974C520.607 618.086 520.99 618.254 521.298 618.478C521.606 618.693 521.839 618.94 521.998 619.22C522.157 619.5 522.236 619.799 522.236 620.116C522.236 620.536 522.124 620.9 521.9 621.208C521.676 621.516 521.373 621.754 520.99 621.922C520.607 622.081 520.169 622.16 519.674 622.16Z" fill="black"/>
<path d="M405.148 658.901C404.999 657.673 405.296 655.831 405.742 654.849C406.409 653.252 409.155 653.007 422.292 653.007C430.901 653.007 438.396 653.498 438.916 653.989C439.435 654.48 439.806 656.199 439.435 660.988H422.366C406.706 660.988 405.296 660.865 405.148 658.901Z" fill="#C8C8C9"/>
<path d="M443.337 658.901C443.189 657.673 443.486 655.831 443.931 654.849C444.673 653.252 448.458 653.007 470.129 653.007C484.007 653.007 495.881 653.498 496.401 653.989C496.92 654.48 497.292 656.199 496.92 660.988H470.203C445.341 660.988 443.486 660.865 443.337 658.901Z" fill="#C8C8C9"/>
<path d="M500.861 658.242C500.712 656.891 500.787 655.049 501.009 654.19C501.38 652.962 505.017 652.716 532.996 653.33V660.698H517.04C501.677 660.698 501.084 660.575 500.861 658.242Z" fill="#C8C8C9"/>
<path d="M405.073 641.224C404.925 639.873 404.999 638.031 405.222 637.171C405.593 635.943 409.378 635.698 438.693 636.312V643.679H421.994C405.89 643.679 405.296 643.557 405.073 641.224Z" fill="#C8C8C9"/>
<path d="M443.223 641.341C443.074 639.99 443.148 638.148 443.445 637.289C443.742 636.184 445.152 635.815 448.121 636.061C452.277 636.429 452.351 636.552 452.351 640.113C452.351 643.797 452.351 643.797 447.898 643.797C444.039 643.797 443.445 643.429 443.223 641.341Z" fill="#C8C8C9"/>
<path d="M456.884 641.196C456.735 639.845 456.81 638.003 457.032 637.144C457.403 636.038 459.778 635.67 476.403 636.284V643.652H466.755C457.7 643.652 457.107 643.529 456.884 641.196Z" fill="#C8C8C9"/>
<path d="M480.932 641.331C480.784 639.98 480.858 638.138 481.155 637.279C481.378 636.296 482.491 635.805 483.604 636.051C485.311 636.296 485.608 637.033 485.608 640.103C485.608 643.418 485.385 643.787 483.381 643.787C481.749 643.787 481.081 643.173 480.932 641.331Z" fill="#C8C8C9"/>
<rect x="390.625" y="528.625" width="156.742" height="146.735" rx="7.37517" stroke="#F2F2F2" stroke-width="1.24966" shape-rendering="crispEdges"/>
</g>
<defs>
<filter id="filter0_d_2135_16724" x="0.997293" y="267" width="169.998" height="166.44" filterUnits="userSpaceOnUse" color-interpolation-filters="sRGB">
<feFlood flood-opacity="0" result="BackgroundImageFix"/>
<feColorMatrix in="SourceAlpha" type="matrix" values="0 0 0 0 0 0 0 0 0 0 0 0 0 0 0 0 0 0 127 0" result="hardAlpha"/>
<feMorphology radius="9.99729" operator="erode" in="SourceAlpha" result="effect1_dropShadow_2135_16724"/>
<feOffset dy="8"/>
<feGaussianBlur stdDeviation="8"/>
<feComposite in2="hardAlpha" operator="out"/>
<feColorMatrix type="matrix" values="0 0 0 0 0 0 0 0 0 0 0 0 0 0 0 0 0 0 0.08 0"/>
<feBlend mode="normal" in2="BackgroundImageFix" result="effect1_dropShadow_2135_16724"/>
<feBlend mode="normal" in="SourceGraphic" in2="effect1_dropShadow_2135_16724" result="shape"/>
</filter>
<filter id="filter1_d_2135_16724" x="185.919" y="366.846" width="169.998" height="145.524" filterUnits="userSpaceOnUse" color-interpolation-filters="sRGB">
<feFlood flood-opacity="0" result="BackgroundImageFix"/>
<feColorMatrix in="SourceAlpha" type="matrix" values="0 0 0 0 0 0 0 0 0 0 0 0 0 0 0 0 0 0 127 0" result="hardAlpha"/>
<feMorphology radius="9.99729" operator="erode" in="SourceAlpha" result="effect1_dropShadow_2135_16724"/>
<feOffset dy="8"/>
<feGaussianBlur stdDeviation="8"/>
<feComposite in2="hardAlpha" operator="out"/>
<feColorMatrix type="matrix" values="0 0 0 0 0 0 0 0 0 0 0 0 0 0 0 0 0 0 0.08 0"/>
<feBlend mode="normal" in2="BackgroundImageFix" result="effect1_dropShadow_2135_16724"/>
<feBlend mode="normal" in="SourceGraphic" in2="effect1_dropShadow_2135_16724" result="shape"/>
</filter>
<filter id="filter2_d_2135_16724" x="579.896" y="366.846" width="172.005" height="181.86" filterUnits="userSpaceOnUse" color-interpolation-filters="sRGB">
<feFlood flood-opacity="0" result="BackgroundImageFix"/>
<feColorMatrix in="SourceAlpha" type="matrix" values="0 0 0 0 0 0 0 0 0 0 0 0 0 0 0 0 0 0 127 0" result="hardAlpha"/>
<feMorphology radius="9.99729" operator="erode" in="SourceAlpha" result="effect1_dropShadow_2135_16724"/>
<feOffset dy="8"/>
<feGaussianBlur stdDeviation="8"/>
<feComposite in2="hardAlpha" operator="out"/>
<feColorMatrix type="matrix" values="0 0 0 0 0 0 0 0 0 0 0 0 0 0 0 0 0 0 0.08 0"/>
<feBlend mode="normal" in2="BackgroundImageFix" result="effect1_dropShadow_2135_16724"/>
<feBlend mode="normal" in="SourceGraphic" in2="effect1_dropShadow_2135_16724" result="shape"/>
</filter>
<filter id="filter3_d_2135_16724" x="766.997" y="259" width="169.998" height="173.397" filterUnits="userSpaceOnUse" color-interpolation-filters="sRGB">
<feFlood flood-opacity="0" result="BackgroundImageFix"/>
<feColorMatrix in="SourceAlpha" type="matrix" values="0 0 0 0 0 0 0 0 0 0 0 0 0 0 0 0 0 0 127 0" result="hardAlpha"/>
<feMorphology radius="9.99729" operator="erode" in="SourceAlpha" result="effect1_dropShadow_2135_16724"/>
<feOffset dy="8"/>
<feGaussianBlur stdDeviation="8"/>
<feComposite in2="hardAlpha" operator="out"/>
<feColorMatrix type="matrix" values="0 0 0 0 0 0 0 0 0 0 0 0 0 0 0 0 0 0 0.08 0"/>
<feBlend mode="normal" in2="BackgroundImageFix" result="effect1_dropShadow_2135_16724"/>
<feBlend mode="normal" in="SourceGraphic" in2="effect1_dropShadow_2135_16724" result="shape"/>
</filter>
<filter id="filter4_d_2135_16724" x="383.997" y="528" width="169.998" height="161.987" filterUnits="userSpaceOnUse" color-interpolation-filters="sRGB">
<feFlood flood-opacity="0" result="BackgroundImageFix"/>
<feColorMatrix in="SourceAlpha" type="matrix" values="0 0 0 0 0 0 0 0 0 0 0 0 0 0 0 0 0 0 127 0" result="hardAlpha"/>
<feMorphology radius="9.99729" operator="erode" in="SourceAlpha" result="effect1_dropShadow_2135_16724"/>
<feOffset dy="8"/>
<feGaussianBlur stdDeviation="8"/>
<feComposite in2="hardAlpha" operator="out"/>
<feColorMatrix type="matrix" values="0 0 0 0 0 0 0 0 0 0 0 0 0 0 0 0 0 0 0.08 0"/>
<feBlend mode="normal" in2="BackgroundImageFix" result="effect1_dropShadow_2135_16724"/>
<feBlend mode="normal" in="SourceGraphic" in2="effect1_dropShadow_2135_16724" result="shape"/>
</filter>
<clipPath id="clip0_2135_16724">
<rect width="40" height="40" fill="white" transform="translate(609.898 390.846)"/>
</clipPath>
<clipPath id="clip1_2135_16724">
<rect width="38.4426" height="41.0039" fill="white" transform="translate(795.996 286.996)"/>
</clipPath>
</defs>
</svg>
