<svg width="145" height="41" viewBox="0 0 145 41" fill="none" xmlns="http://www.w3.org/2000/svg">
<g clip-path="url(#clip0_1685_29153)">
<path d="M61.2554 30.0564L61.1477 28.1579C61.1477 28.0099 61.0792 27.9327 60.9389 27.9327C60.9087 27.9328 60.8789 27.9391 60.8513 27.9513C60.8238 27.9635 60.7991 27.9813 60.779 28.0035C60.0518 28.6335 59.2149 29.1285 58.3088 29.4643C57.4841 29.8193 56.5977 30.0138 55.6982 30.0371C54.7427 30.0464 53.793 29.8906 52.8919 29.577C52.1474 29.3146 51.4662 28.9026 50.8916 28.3671C50.3624 27.8678 49.9523 27.259 49.6907 26.5844C49.4197 25.8893 49.2814 25.1507 49.2828 24.406V11.8052H46.4961V11.4062H54.8759V25.6931C54.8759 26.7657 55.1761 27.5894 55.7765 28.1644C56.3148 28.6614 57.0299 28.9296 57.7671 28.9109H58.0151C58.4307 28.9123 58.8416 28.8244 59.2192 28.6532C59.5967 28.4821 59.932 28.2318 60.2014 27.9198C60.8219 27.2238 61.1549 26.3236 61.1347 25.3971V11.8052H58.3675V11.4062H66.7473V28.5601H69.4819V29.0106L68.7836 28.9849H68.1048C67.4946 28.9849 66.8713 29.0106 66.2448 29.0557C65.6183 29.1007 64.9689 29.1715 64.313 29.2648C63.0306 29.4515 62.1136 29.7153 61.5589 30.0661L61.2554 30.0564Z" fill="white"/>
<path d="M79.7596 40.5463H68.6094V40.128H71.3994L71.4157 11.8406H68.6094V11.4223H76.9892V12.0852C76.9892 12.526 77.0545 12.7288 77.185 12.7288C77.3611 12.7008 77.529 12.636 77.6777 12.5389C77.7047 12.5181 77.7344 12.5008 77.7658 12.4874C78.459 12.113 79.2013 11.8347 79.9717 11.6605C80.625 11.5043 81.2935 11.4191 81.9655 11.4062C84.0822 11.4062 85.8346 11.6798 87.2225 12.2268C88.0495 12.5277 88.7843 13.0329 89.3566 13.6941C89.8868 14.3288 90.2989 15.0511 90.5738 15.8275C90.8605 16.6347 91.0479 17.4731 91.1318 18.3244C91.2199 19.1997 91.2623 20.0524 91.2623 20.8986C91.2747 21.8185 91.1527 22.7353 90.9001 23.6209C90.6823 24.3749 90.3653 25.0976 89.957 25.7703C89.5935 26.3595 89.1549 26.9002 88.6518 27.3792C88.2123 27.8029 87.7339 28.1853 87.2225 28.5215C86.7978 28.8001 86.349 29.0413 85.8813 29.2423C85.5509 29.3847 85.212 29.5072 84.8665 29.6091C83.6917 29.8881 82.4851 30.0157 81.277 29.9888C80.8756 29.9888 80.5167 29.9888 80.2002 29.9727C79.8992 29.9602 79.5994 29.9279 79.3028 29.8762C78.9975 29.8223 78.6965 29.747 78.4021 29.651C78.0514 29.5346 77.709 29.3948 77.3775 29.2327L77.309 29.2133C77.2619 29.1679 77.1987 29.1425 77.1328 29.1426C77.0381 29.1426 76.9892 29.2841 76.9892 29.5609V40.1216H79.7596V40.5463ZM80.6962 29.6542C81.5088 29.6136 82.2847 29.308 82.9021 28.7854C83.6656 28.2062 84.3183 27.1508 84.86 25.6191C85.4213 23.9478 85.6949 22.1957 85.6692 20.4353C85.6781 19.4883 85.5984 18.5426 85.431 17.6101C85.3028 16.8473 85.0837 16.102 84.7784 15.3898C84.5216 14.8054 84.1761 14.2629 83.7538 13.781C83.3878 13.3611 82.945 13.0129 82.4485 12.7545C81.874 12.4483 81.2317 12.2869 80.5787 12.2847C80.1656 12.2892 79.7551 12.3487 79.3583 12.4617C78.9468 12.5716 78.5565 12.7477 78.2031 12.983C77.8635 13.2083 77.5728 13.4982 77.3481 13.8357C77.1252 14.1837 77.0116 14.589 77.0218 15.0005V26.2369C76.9862 26.9386 77.1845 27.6325 77.5864 28.2126C78.0251 28.7489 78.6055 29.1553 79.2636 29.3871C79.7209 29.5606 80.2062 29.6511 80.6962 29.6542Z" fill="white"/>
<path d="M105.534 29.9916C104.96 30.0005 104.394 29.85 103.903 29.5572C103.423 29.269 103.023 28.869 102.738 28.3924C101.889 28.8711 100.989 29.2574 100.055 29.5443C99.1165 29.8346 98.1382 29.9811 97.1543 29.9787H97.0467L96.9422 29.998H96.8182C95.6129 30.0187 94.4345 29.6453 93.467 28.9362C92.4771 28.2283 91.9246 27.0484 91.8093 25.3966V25.2036C91.7964 24.4792 91.9716 23.7636 92.3183 23.1249C92.6703 22.5031 93.1335 21.9493 93.6856 21.4903C94.2844 20.9911 94.9418 20.5644 95.6435 20.2193C96.3712 19.8559 97.1222 19.5399 97.8918 19.2732C98.6619 19.0062 99.4255 18.7777 100.176 18.5943C100.927 18.4109 101.618 18.2532 102.232 18.1245V17.6386C102.235 16.8382 102.185 16.0385 102.082 15.2446C102.017 14.6952 101.908 14.1518 101.755 13.6196C101.657 13.309 101.491 13.0234 101.269 12.783C101.054 12.5537 100.8 12.3632 100.519 12.2199C100.234 12.0693 99.9283 11.9609 99.6115 11.8981C99.2947 11.8345 98.9722 11.8022 98.6489 11.8016C98.1731 11.7974 97.7006 11.8804 97.2555 12.0461C97.0769 12.1124 96.9234 12.2314 96.8159 12.3869C96.7084 12.5424 96.6523 12.7268 96.6551 12.9149L96.6746 13.0887C96.3755 13.0117 96.0667 12.977 95.7577 12.9857C95.3826 12.9795 95.0092 13.0383 94.6547 13.1595C94.3046 13.2907 93.9792 13.4789 93.6921 13.7162L93.5518 13.8545C94.0145 13.4893 94.5908 13.2927 95.1834 13.2978C95.5323 13.2944 95.8781 13.3635 96.1982 13.5006C96.5041 13.6298 96.7821 13.8154 97.0173 14.0476C97.2525 14.2803 97.4418 14.5542 97.5753 14.8552C97.7089 15.1724 97.7776 15.5125 97.7776 15.856C97.7776 16.1994 97.7089 16.5395 97.5753 16.8567C97.4418 17.1578 97.2525 17.4316 97.0173 17.6644C96.7824 17.8977 96.5044 18.0844 96.1982 18.2146C95.8766 18.3463 95.5317 18.4141 95.1834 18.4141C94.8351 18.4141 94.4902 18.3463 94.1685 18.2146C93.552 17.9509 93.0607 17.4653 92.7947 16.8567C92.6558 16.541 92.5857 16.2001 92.5892 15.856C92.5819 15.3241 92.6991 14.7977 92.9317 14.3177C93.1643 13.8378 93.506 13.4172 93.9303 13.0887C95.4379 11.9432 97.6667 11.3693 100.617 11.3672H101.341C102.289 11.379 103.227 11.5566 104.111 11.8917C105.119 12.2808 105.989 12.9519 106.614 13.8223C107.308 14.7855 107.673 16.108 107.707 17.7898L107.675 19.1284C107.638 20.5314 107.62 21.7659 107.623 22.8321C107.623 23.8553 107.655 24.8464 107.727 25.8085C107.799 26.7706 107.92 27.4174 108.168 27.7553C108.289 27.932 108.452 28.0778 108.642 28.1807C108.832 28.2836 109.044 28.3407 109.261 28.3473C109.481 28.3301 109.699 28.2957 109.913 28.2443C110.24 28.1961 110.713 27.6877 111.362 26.7127L111.731 26.6966C111.453 27.1828 111.137 27.6475 110.788 28.0867C110.512 28.4325 110.201 28.7505 109.861 29.0359C109.582 29.268 109.274 29.4637 108.944 29.6183C108.653 29.7528 108.345 29.846 108.027 29.8951C107.513 29.9674 106.994 30.0029 106.474 30.0013L105.534 29.9916ZM100.577 28.7238C101.279 28.6981 101.963 28.5002 102.568 28.1478C102.416 27.6587 102.319 27.1549 102.278 26.6451C102.212 26.0016 102.176 25.239 102.163 24.3219L102.147 22.2175C102.147 21.6962 102.147 21.1975 102.147 20.7212C102.147 20.245 102.163 19.7752 102.173 19.3118L102.193 18.3883C101.461 18.5469 100.753 18.7955 100.085 19.1284C99.4812 19.4286 98.9347 19.8292 98.4694 20.3126C98.0173 20.7912 97.6638 21.3518 97.4284 21.9633C97.1707 22.6575 97.0457 23.3929 97.0597 24.132C97.0589 24.6164 97.1092 25.0995 97.2098 25.5736C97.3046 26.0384 97.4673 26.4871 97.6928 26.9058C97.9132 27.3131 98.21 27.6756 98.5673 27.9741C98.9469 28.2881 99.3929 28.5145 99.8726 28.6369C100.103 28.6921 100.34 28.7213 100.577 28.7238Z" fill="white"/>
<path d="M106.966 39.5713C107.812 39.5878 108.655 39.4527 109.452 39.1723C110.192 38.8757 110.816 38.3537 111.234 37.6825C111.794 36.757 112.173 35.7367 112.353 34.6739C112.655 33.034 112.818 31.3722 112.84 29.7057V11.8052H110.069V11.4062H118.429L118.449 24.2258V25.1332C118.449 28.6556 117.969 31.5087 117.01 33.6925C116.05 35.8762 114.695 37.453 112.944 38.4226C111.112 39.4218 109.059 39.96 106.966 39.9896V39.5713Z" fill="white"/>
<path d="M115.218 8.08928C114.206 8.0818 113.238 7.68379 112.521 6.98061C111.803 6.27743 111.394 5.32506 111.38 4.32772C111.374 3.82704 111.471 3.33035 111.666 2.86789C111.861 2.40543 112.149 1.98687 112.512 1.63767C112.958 1.20243 113.506 0.882081 114.107 0.704868C114.709 0.527654 115.345 0.49902 115.96 0.621492C116.575 0.743965 117.15 1.01378 117.634 1.40715C118.118 1.80051 118.497 2.30535 118.737 2.87713C118.977 3.44892 119.07 4.07009 119.009 4.68587C118.948 5.30165 118.734 5.89313 118.386 6.40815C118.038 6.92316 117.567 7.3459 117.015 7.63908C116.462 7.93225 115.845 8.08687 115.218 8.08928ZM115.218 1.70846C114.87 1.70078 114.524 1.76398 114.203 1.8941C113.881 2.02422 113.59 2.21845 113.348 2.46464C113.095 2.70548 112.894 2.99522 112.76 3.31576C112.625 3.6363 112.558 3.98078 112.565 4.32772C112.561 4.66814 112.628 5.00567 112.763 5.3191C112.898 5.63253 113.097 5.91508 113.348 6.14897C113.591 6.39514 113.882 6.59079 114.203 6.72437C114.524 6.85796 114.869 6.92679 115.218 6.92679C115.566 6.92679 115.911 6.85796 116.232 6.72437C116.553 6.59079 116.844 6.39514 117.087 6.14897C117.335 5.91376 117.531 5.63053 117.662 5.31709C117.794 5.00366 117.858 4.66681 117.851 4.32772C117.857 3.98399 117.793 3.64254 117.663 3.32351C117.534 3.00448 117.34 2.71434 117.095 2.4702C116.849 2.22607 116.557 2.03288 116.234 1.90205C115.912 1.77122 115.566 1.7054 115.218 1.70846Z" fill="white"/>
</g>
<path d="M18.4059 28.6744V36.6866C18.4059 36.8222 18.4059 36.9611 18.3864 37.1C18.3179 37.8169 17.7935 38.2238 17.0833 38.0268C16.3731 37.8298 15.7216 37.5779 15.0505 37.326C12.4276 36.385 9.96473 35.0532 7.74676 33.3764C3.91006 30.4675 1.32999 26.2236 0.527724 21.5018C0.270374 19.9367 0.12126 18.356 0.0814229 16.7707C-0.074946 13.3184 0.0390724 9.86617 0.0553608 6.41391C0.0553608 5.48383 0.0553598 4.55699 0.0390714 3.62691C0.0390714 3.53649 0.0390714 3.44283 0.0390714 3.35241C0.117256 2.52568 0.667805 2.16075 1.44965 2.45786C2.12725 2.71621 2.79182 3.01332 3.45313 3.30397C5.88178 4.32831 8.20269 5.58741 10.3822 7.06303C12.4964 8.4962 14.318 10.3129 15.7509 12.4174C17.0824 14.4292 17.9336 16.7154 18.2398 19.1023C18.3678 20.3467 18.4113 21.5983 18.3701 22.8485C18.3701 24.7861 18.3701 26.7238 18.3701 28.6615L18.4059 28.6744ZM1.24767 3.62045V3.8013C1.23464 6.43221 1.22053 9.06419 1.20532 11.6973C1.18927 11.8028 1.19466 11.9105 1.22119 12.014C1.24772 12.1174 1.29484 12.2146 1.35979 12.2997C1.42475 12.3849 1.50621 12.4563 1.59941 12.5098C1.6926 12.5633 1.79564 12.5977 1.90247 12.6112L2.32597 12.7371C6.65543 14.0515 10.2682 16.3928 12.9851 20.0292C13.0585 20.1249 13.1615 20.1941 13.2783 20.2262C14.147 20.4544 15.0233 20.6697 15.9073 20.8721C16.334 20.9754 16.7673 21.0465 17.2429 21.1401C17.2071 20.6395 17.1843 20.1713 17.1419 19.7256C16.9606 17.6616 16.328 15.6615 15.2883 13.8642C14.0173 11.7291 12.3135 9.87843 10.2845 8.42907C8.21177 6.93523 5.98125 5.66938 3.6323 4.65387C2.85371 4.31478 2.06535 3.97892 1.24767 3.62045ZM2.66802 21.7053C2.66802 21.8312 2.66802 21.8893 2.69409 21.9507C2.90909 23.165 3.1469 24.376 3.34562 25.5967C3.44964 26.3006 3.69918 26.9757 4.0786 27.5796C5.56699 29.9347 7.55593 31.9395 9.9066 33.4539C12.0419 34.8095 14.3402 35.8945 16.7477 36.6834L17.2494 36.8577V36.6026C17.2494 35.398 17.2136 34.1935 17.2494 32.9889C17.2582 32.3374 17.1398 31.6904 16.9008 31.0835C15.9235 28.4677 14.1579 26.5139 11.8058 25.038C9.94354 23.9078 7.92396 23.0548 5.81169 22.5062C4.7562 22.2155 3.73003 21.9701 2.66802 21.6988V21.7053ZM1.18904 14.0741C1.1953 16.2999 1.33344 18.5235 1.60276 20.7332C1.72835 20.6196 1.88036 20.5387 2.04521 20.4975C2.21006 20.4564 2.38263 20.4564 2.54749 20.4974C4.68407 20.9228 6.78402 21.5123 8.82831 22.2607C11.0053 23.0552 13.0057 24.2617 14.7182 25.8131L14.9625 26.0392C14.8094 25.6387 14.6172 25.2673 14.4315 24.8895C13.8704 23.6752 13.2169 22.5049 12.4769 21.3888C12.3843 21.2637 12.2578 21.1674 12.1121 21.111C11.7244 20.956 11.3237 20.8365 10.9328 20.6944C7.92295 19.6245 5.16896 17.9488 2.84394 15.7728C2.2771 15.2399 1.75587 14.6554 1.18904 14.0677V14.0741ZM14.1286 21.7085L17.168 27.6474C17.1875 27.5731 17.1973 27.557 17.1973 27.5441C17.1973 25.8648 17.1973 24.1844 17.1973 22.5029C17.1973 22.377 17.1517 22.3318 17.0279 22.3124C16.663 22.251 16.2982 22.18 15.9366 22.1025C15.3372 21.9701 14.7377 21.8344 14.1286 21.702V21.7085ZM3.00682 14.2259C5.21138 16.5237 7.91693 18.2911 10.9165 19.393C8.79158 17.0026 6.06079 15.2187 3.00682 14.2259Z" fill="white"/>
<path d="M20.0501 28.7967C20.0501 26.2132 20.0143 23.6297 20.0501 21.0461C20.0878 17.3114 21.4589 13.7108 23.9202 10.8831C25.7739 8.69677 28.051 7.03361 30.5301 5.62235C32.5768 4.4932 34.6918 3.49018 36.863 2.61898C36.9629 2.57645 37.0665 2.54294 37.1725 2.51887C37.3016 2.47368 37.4395 2.45876 37.5754 2.47528C37.7113 2.49181 37.8415 2.53932 37.9557 2.6141C38.07 2.68888 38.1652 2.7889 38.2339 2.90629C38.3027 3.02368 38.343 3.15526 38.3518 3.2907C38.3846 3.72047 38.3944 4.15167 38.3811 4.58247C38.4007 7.24675 38.4235 9.9078 38.4332 12.5721C38.4332 14.781 38.3876 16.9899 38.2117 19.1956C37.8859 23.1614 36.7001 26.8042 34.2276 29.9852C32.4499 32.2306 30.234 34.0978 27.7122 35.4752C25.7613 36.5407 23.7142 37.4229 21.5975 38.1104C21.5028 38.1437 21.4059 38.1707 21.3076 38.1911C21.1599 38.2367 21.0033 38.2468 20.8509 38.2206C20.6985 38.1945 20.5545 38.1329 20.4308 38.0408C20.3071 37.9487 20.2072 37.8289 20.1393 37.6911C20.0714 37.5533 20.0375 37.4015 20.0403 37.2481C20.0045 36.5603 20.0403 35.8692 20.0403 35.1781V28.7967H20.0501ZM37.1986 3.78803L37.0422 3.83971C35.2261 4.58006 33.4494 5.41219 31.7191 6.33282C29.5206 7.48372 27.5043 8.94827 25.7348 10.6796C23.1408 13.1955 21.5591 16.5611 21.2848 20.1483C21.2555 20.5197 21.2457 20.8911 21.2261 21.2754C21.2841 21.2728 21.3417 21.2663 21.3988 21.256C22.6791 20.9589 23.9561 20.6618 25.2331 20.355C25.3383 20.3126 25.4289 20.2408 25.4937 20.1483C26.0214 19.5347 26.5101 18.8888 27.0672 18.3043C29.7157 15.527 32.9701 13.7637 36.6545 12.7336C36.8298 12.6902 36.9848 12.5887 37.0938 12.4459C37.2028 12.3032 37.2593 12.1278 37.254 11.9488C37.2377 10.2534 37.2181 8.5579 37.2051 6.85922C37.1921 5.84841 37.1986 4.82145 37.1986 3.78803ZM35.7782 21.8728C35.6837 21.8728 35.6284 21.889 35.5762 21.9019C34.5566 22.1603 33.5337 22.396 32.5238 22.6834C30.3305 23.2591 28.2419 24.1723 26.3342 25.3897C24.1423 26.7741 22.4692 28.8332 21.5715 31.2511C21.3661 31.7155 21.2501 32.2139 21.2294 32.7205C21.2489 33.5698 21.2294 34.4224 21.2294 35.275C21.2294 35.8369 21.2294 36.402 21.2294 36.9672H21.288L21.6138 36.8574C23.9491 36.0896 26.1842 35.05 28.2725 33.7604C30.9939 32.0827 33.2368 29.7424 34.7879 26.9624C34.872 26.8 34.9302 26.6257 34.9605 26.4457C35.1462 25.4155 35.3221 24.3789 35.5046 23.3455C35.5958 22.8707 35.687 22.3895 35.7782 21.8793V21.8728ZM37.2474 14.2449C36.5079 14.978 35.8108 15.7272 35.0485 16.4119C32.6832 18.4926 29.9108 20.0679 26.9043 21.0396C26.6221 21.1164 26.3591 21.2505 26.132 21.4334C25.9048 21.6163 25.7185 21.844 25.5849 22.1021C24.9334 23.3584 24.2818 24.6017 23.6075 25.8483C23.5489 25.9613 23.4967 26.0775 23.4218 26.2326C23.4805 26.1906 23.5033 26.1809 23.5195 26.1647C25.2075 24.5677 27.2015 23.3224 29.3834 22.5026C31.4125 21.7323 33.5009 21.1254 35.6284 20.6876C36.0486 20.594 36.4526 20.5294 36.8402 20.8685C37.1075 18.6727 37.2435 16.4631 37.2474 14.2514V14.2449ZM21.2424 27.6987H21.3076C22.3044 25.746 23.3035 23.7922 24.3046 21.8373C24.2765 21.8341 24.2481 21.8341 24.22 21.8373C23.2752 22.0343 22.3305 22.2378 21.3858 22.4315C21.2327 22.4638 21.2392 22.5478 21.2392 22.664C21.2392 24.1582 21.2392 25.6534 21.2392 27.1497L21.2424 27.6987ZM27.4907 19.5412C29.1944 19.2796 34.2829 15.9565 35.4687 14.3224C32.3961 15.3465 29.6462 17.1475 27.4907 19.5477V19.5412Z" fill="white"/>
<path d="M131.523 21.4531L127.95 12.1197H129.776L133.456 21.4531H131.523ZM124.15 21.4531L127.83 12.1197H129.656L126.083 21.4531H124.15ZM125.883 19.3998V17.7864H131.736V19.3998H125.883ZM136.188 18.3598V16.6798H138.148C138.557 16.6798 138.89 16.5464 139.148 16.2798C139.415 16.0131 139.548 15.662 139.548 15.2264C139.548 14.942 139.481 14.6931 139.348 14.4797C139.215 14.2575 139.032 14.0842 138.801 13.9597C138.57 13.8353 138.304 13.7775 138.001 13.7864H136.188V12.1197L138.041 12.1064C138.699 12.0975 139.281 12.2308 139.788 12.5064C140.295 12.7731 140.69 13.142 140.975 13.6131C141.259 14.0753 141.401 14.6131 141.401 15.2264C141.401 15.8309 141.264 16.3686 140.988 16.8398C140.712 17.3109 140.335 17.6842 139.855 17.9598C139.375 18.2264 138.819 18.3598 138.188 18.3598H136.188ZM134.575 21.4531V12.1197H136.401V21.4531H134.575ZM142.609 21.4531V12.1197H144.435V21.4531H142.609Z" fill="white"/>
<defs>
<clipPath id="clip0_1685_29153">
<rect width="73.9425" height="40" fill="white" transform="translate(45.0977 0.539062)"/>
</clipPath>
</defs>
</svg>
