<svg width="142" height="37" viewBox="0 0 142 37" fill="none" xmlns="http://www.w3.org/2000/svg">
<g clip-path="url(#clip0_1001_26650)">
<path d="M55.6071 26.7965L55.5093 25.0732C55.5093 24.9388 55.4471 24.8687 55.3197 24.8687C55.2923 24.8688 55.2652 24.8746 55.2402 24.8856C55.2152 24.8967 55.1929 24.9128 55.1746 24.933C54.5145 25.5049 53.7548 25.9542 52.9322 26.2591C52.1837 26.5813 51.379 26.7579 50.5625 26.779C49.6951 26.7874 48.833 26.6461 48.0151 26.3613C47.3392 26.1231 46.7209 25.7491 46.1993 25.263C45.7189 24.8098 45.3466 24.2571 45.1092 23.6448C44.8631 23.0138 44.7376 22.3434 44.7389 21.6673V10.2288H42.2092V9.86664H49.816V22.8357C49.816 23.8094 50.0886 24.5571 50.6336 25.079C51.1222 25.5302 51.7713 25.7737 52.4405 25.7567H52.6656C53.0429 25.758 53.4159 25.6782 53.7586 25.5228C54.1014 25.3674 54.4057 25.1402 54.6503 24.857C55.2135 24.2252 55.5158 23.408 55.4975 22.567V10.2288H52.9856V9.86664H60.5924V25.4383H63.0747V25.8472L62.4408 25.8239H61.8246C61.2707 25.8239 60.7049 25.8472 60.1362 25.8881C59.5675 25.929 58.978 25.9933 58.3826 26.078C57.2185 26.2474 56.3861 26.4869 55.8825 26.8053L55.6071 26.7965Z" fill="#1F1F1F"/>
<path d="M72.407 36.3189H62.2853V35.9392H64.818L64.8328 10.261H62.2853V9.88124H69.8922V10.483C69.8922 10.8831 69.9514 11.0672 70.0699 11.0672C70.2297 11.0418 70.3822 10.983 70.5172 10.8948C70.5417 10.8759 70.5686 10.8602 70.5972 10.8481C71.2264 10.5082 71.9002 10.2556 72.5996 10.0974C73.1925 9.95569 73.7994 9.87831 74.4094 9.86664C76.3309 9.86664 77.9216 10.1149 79.1815 10.6115C79.9322 10.8846 80.5992 11.3433 81.1187 11.9434C81.6 12.5196 81.9741 13.1753 82.2236 13.88C82.4839 14.6129 82.654 15.3739 82.7301 16.1467C82.8101 16.9412 82.8486 17.7153 82.8486 18.4835C82.8598 19.3185 82.7491 20.1507 82.5198 20.9546C82.3222 21.6391 82.0344 22.2951 81.6638 22.9058C81.3338 23.4406 80.9356 23.9315 80.4789 24.3663C80.08 24.7509 79.6457 25.0981 79.1815 25.4032C78.7959 25.6562 78.3885 25.8751 77.964 26.0575C77.6641 26.1868 77.3564 26.298 77.0428 26.3905C75.9763 26.6438 74.8811 26.7596 73.7844 26.7352C73.4201 26.7352 73.0942 26.7352 72.8069 26.7206C72.5337 26.7092 72.2616 26.6799 71.9923 26.633C71.7152 26.5841 71.442 26.5157 71.1748 26.4285C70.8564 26.3229 70.5456 26.196 70.2447 26.0488L70.1825 26.0313C70.1397 25.99 70.0823 25.9669 70.0225 25.967C69.9366 25.967 69.8922 26.0955 69.8922 26.3467V35.9333H72.407V36.3189ZM73.2572 26.4314C73.9948 26.3946 74.6992 26.1172 75.2596 25.6428C75.9527 25.117 76.5452 24.1589 77.0369 22.7685C77.5465 21.2514 77.7948 19.6609 77.7715 18.0629C77.7796 17.2033 77.7072 16.3447 77.5553 15.4983C77.4389 14.8058 77.24 14.1293 76.9628 13.4828C76.7297 12.9523 76.4161 12.4598 76.0327 12.0223C75.7006 11.6411 75.2986 11.325 74.8479 11.0905C74.3264 10.8126 73.7433 10.6661 73.1505 10.6641C72.7756 10.6682 72.4029 10.7222 72.0427 10.8247C71.6691 10.9245 71.3149 11.0844 70.9941 11.2979C70.6858 11.5025 70.422 11.7657 70.218 12.072C70.0156 12.3879 69.9125 12.7558 69.9218 13.1294V23.3294C69.8895 23.9663 70.0694 24.5962 70.4342 25.1228C70.8325 25.6097 71.3594 25.9786 71.9568 26.189C72.3719 26.3465 72.8124 26.4286 73.2572 26.4314Z" fill="#1F1F1F"/>
<path d="M95.802 26.7377C95.2806 26.7458 94.7673 26.6091 94.3209 26.3434C93.8858 26.0818 93.5226 25.7186 93.2634 25.286C92.4926 25.7206 91.6762 26.0712 90.8285 26.3317C89.9763 26.5952 89.0882 26.7282 88.1951 26.726H88.0974L88.0026 26.7436H87.89C86.7959 26.7623 85.7262 26.4233 84.8479 25.7796C83.9494 25.137 83.4478 24.066 83.3431 22.5666V22.3913C83.3314 21.7338 83.4905 21.0842 83.8052 20.5044C84.1248 19.94 84.5453 19.4373 85.0464 19.0205C85.59 18.5674 86.1867 18.18 86.8237 17.8668C87.4842 17.5369 88.166 17.25 88.8646 17.008C89.5637 16.7655 90.2568 16.5582 90.9381 16.3917C91.6194 16.2252 92.2474 16.082 92.8043 15.9652V15.5241C92.8074 14.7976 92.7618 14.0716 92.668 13.3509C92.6095 12.8522 92.5104 12.3589 92.3718 11.8759C92.2829 11.5939 92.1322 11.3346 91.9304 11.1164C91.7352 10.9083 91.5046 10.7353 91.2491 10.6052C90.9907 10.4686 90.7132 10.3701 90.4257 10.3131C90.138 10.2554 89.8453 10.226 89.5518 10.2255C89.1199 10.2217 88.691 10.297 88.287 10.4475C88.1248 10.5076 87.9855 10.6156 87.8879 10.7568C87.7904 10.898 87.7394 11.0654 87.7419 11.2362L87.7597 11.3939C87.4881 11.324 87.2079 11.2925 86.9273 11.3004C86.5868 11.2948 86.2479 11.3482 85.9261 11.4582C85.6083 11.5773 85.3129 11.7481 85.0523 11.9635L84.9249 12.0891C85.3449 11.7576 85.8681 11.5791 86.406 11.5838C86.7228 11.5807 87.0367 11.6434 87.3272 11.7678C87.6049 11.8851 87.8573 12.0536 88.0707 12.2643C88.2843 12.4756 88.4561 12.7242 88.5773 12.9975C88.6985 13.2854 88.7609 13.5942 88.7609 13.9059C88.7609 14.2177 88.6985 14.5264 88.5773 14.8143C88.4561 15.0876 88.2843 15.3363 88.0707 15.5475C87.8575 15.7593 87.6051 15.9288 87.3272 16.047C87.0352 16.1665 86.7222 16.2281 86.406 16.2281C86.0898 16.2281 85.7768 16.1665 85.4848 16.047C84.9251 15.8076 84.4791 15.3668 84.2377 14.8143C84.1115 14.5278 84.048 14.2183 84.0511 13.9059C84.0445 13.4231 84.1509 12.9453 84.362 12.5096C84.5732 12.0739 84.8834 11.6921 85.2685 11.3939C86.6371 10.354 88.6602 9.83312 91.338 9.83118H91.9956C92.8559 9.84188 93.7074 10.0031 94.5105 10.3073C95.4249 10.6605 96.2146 11.2697 96.7825 12.0599C97.4124 12.9342 97.7432 14.1347 97.7748 15.6614L97.7452 16.8765C97.7116 18.1501 97.6958 19.2708 97.6978 20.2386C97.6978 21.1674 97.7274 22.0671 97.7925 22.9405C97.8577 23.8138 97.9673 24.4009 98.1924 24.7076C98.3031 24.8681 98.4507 25.0004 98.6232 25.0938C98.7956 25.1872 98.9881 25.2391 99.1848 25.2451C99.3844 25.2295 99.5825 25.1982 99.7772 25.1516C100.073 25.1078 100.503 24.6463 101.092 23.7613L101.427 23.7466C101.174 24.188 100.888 24.6098 100.571 25.0085C100.32 25.3225 100.038 25.6111 99.7298 25.8702C99.4765 26.0809 99.1967 26.2585 98.8974 26.3989C98.6334 26.5209 98.3532 26.6055 98.0651 26.6501C97.598 26.7157 97.1268 26.7479 96.6551 26.7465L95.802 26.7377ZM91.3025 25.5869C91.9395 25.5636 92.5606 25.3839 93.1094 25.064C92.9718 24.62 92.8834 24.1627 92.8457 23.6999C92.7865 23.1157 92.7539 22.4235 92.7421 21.591L92.7273 19.6807C92.7273 19.2075 92.7273 18.7547 92.7273 18.3224C92.7273 17.8901 92.7421 17.4637 92.751 17.043L92.7687 16.2047C92.1048 16.3486 91.4619 16.5743 90.8552 16.8765C90.3073 17.149 89.8113 17.5126 89.3889 17.9515C88.9785 18.3859 88.6576 18.8948 88.444 19.4499C88.21 20.0801 88.0966 20.7476 88.1093 21.4186C88.1085 21.8583 88.1542 22.2969 88.2455 22.7272C88.3316 23.1491 88.4792 23.5564 88.6839 23.9365C88.884 24.3063 89.1534 24.6354 89.4778 24.9063C89.8224 25.1913 90.2272 25.3969 90.6626 25.508C90.8722 25.5581 91.0868 25.5846 91.3025 25.5869Z" fill="#1F1F1F"/>
<path d="M97.1008 35.4338C97.8692 35.4488 98.6341 35.3261 99.358 35.0716C100.03 34.8024 100.596 34.3285 100.975 33.7192C101.483 32.8791 101.828 31.9529 101.991 30.9881C102.265 29.4995 102.413 27.991 102.433 26.4782V10.2288H99.9178V9.86664H107.507L107.525 21.5038V22.3275C107.525 25.525 107.089 28.1149 106.218 30.0972C105.347 32.0796 104.117 33.5109 102.528 34.391C100.865 35.2981 99.0008 35.7867 97.1008 35.8136V35.4338Z" fill="#1F1F1F"/>
<path d="M104.591 6.85563C103.673 6.84883 102.794 6.48753 102.143 5.84921C101.492 5.21089 101.12 4.34637 101.108 3.44102C101.102 2.98652 101.191 2.53565 101.367 2.11584C101.544 1.69604 101.805 1.31608 102.136 0.999092C102.541 0.603999 103.038 0.313199 103.584 0.152331C104.129 -0.00853665 104.707 -0.0345302 105.265 0.076646C105.823 0.187822 106.345 0.432751 106.785 0.789834C107.225 1.14692 107.569 1.60519 107.786 2.12423C108.004 2.64328 108.089 3.20715 108.033 3.76614C107.977 4.32512 107.783 4.86204 107.468 5.32955C107.152 5.79707 106.725 6.18081 106.223 6.44695C105.721 6.71308 105.161 6.85343 104.591 6.85563ZM104.591 1.06335C104.276 1.05638 103.962 1.11375 103.67 1.23187C103.378 1.34999 103.114 1.52631 102.894 1.74978C102.664 1.96842 102.482 2.23142 102.36 2.5224C102.238 2.81338 102.178 3.12608 102.183 3.44102C102.18 3.75004 102.241 4.05644 102.363 4.34096C102.486 4.62548 102.666 4.88196 102.894 5.09428C103.115 5.31775 103.379 5.49535 103.67 5.61661C103.962 5.73788 104.275 5.80035 104.591 5.80035C104.908 5.80035 105.221 5.73788 105.513 5.61661C105.804 5.49535 106.068 5.31775 106.289 5.09428C106.514 4.88077 106.691 4.62366 106.811 4.33914C106.93 4.05462 106.988 3.74883 106.982 3.44102C106.987 3.129 106.93 2.81904 106.812 2.52944C106.694 2.23984 106.518 1.97645 106.295 1.75484C106.073 1.53322 105.807 1.35785 105.514 1.23909C105.222 1.12033 104.908 1.06058 104.591 1.06335Z" fill="#1F1F1F"/>
</g>
<path d="M16.708 25.5407V32.8139C16.708 32.937 16.708 33.063 16.6903 33.1891C16.6282 33.8399 16.1521 34.2093 15.5074 34.0304C14.8628 33.8516 14.2713 33.623 13.6621 33.3943C11.2812 32.5401 9.04553 31.3312 7.03215 29.809C3.54937 27.1684 1.2073 23.3159 0.479044 19.0297C0.245433 17.6089 0.110075 16.174 0.073912 14.735C-0.0680326 11.6011 0.0354681 8.46728 0.050254 5.33345C0.050254 4.48916 0.0502531 3.64781 0.0354672 2.80352C0.0354672 2.72144 0.0354672 2.63642 0.0354672 2.55434C0.106439 1.80386 0.606203 1.47259 1.31593 1.7423C1.93102 1.97682 2.53428 2.24653 3.13459 2.51037C5.33921 3.44022 7.44603 4.58319 9.42451 5.9227C11.3437 7.22367 12.9972 8.87285 14.2979 10.7832C15.5066 12.6094 16.2793 14.6848 16.5572 16.8515C16.6735 17.9812 16.713 19.1173 16.6755 20.2521C16.6755 22.0111 16.6755 23.77 16.6755 25.5289L16.708 25.5407ZM1.13258 2.79766V2.96182C1.12075 5.35006 1.10794 7.73928 1.09414 10.1295C1.07956 10.2253 1.08446 10.323 1.10854 10.417C1.13262 10.5109 1.1754 10.5991 1.23436 10.6764C1.29332 10.7537 1.36727 10.8185 1.45187 10.8671C1.53647 10.9156 1.63 10.9469 1.72697 10.9591L2.11141 11.0734C6.0415 12.2666 9.32101 14.392 11.7873 17.6929C11.8539 17.7798 11.9474 17.8426 12.0534 17.8717C12.842 18.0789 13.6375 18.2743 14.4399 18.458C14.8273 18.5518 15.2206 18.6163 15.6523 18.7013C15.6198 18.247 15.5991 17.8219 15.5607 17.4173C15.396 15.5437 14.8219 13.728 13.878 12.0966C12.7242 10.1584 11.1776 8.47841 9.33579 7.16274C7.45427 5.80669 5.42951 4.6576 3.29724 3.73576C2.59047 3.42794 1.87483 3.12306 1.13258 2.79766ZM2.42191 19.2144C2.42191 19.3287 2.42191 19.3815 2.44557 19.4372C2.64074 20.5394 2.85662 21.6388 3.037 22.7469C3.13143 23.3859 3.35795 23.9987 3.70237 24.5469C5.05346 26.6848 6.85893 28.5046 8.99276 29.8794C10.9311 31.1099 13.0174 32.0948 15.2028 32.8109L15.6582 32.9692V32.7376C15.6582 31.6442 15.6257 30.5507 15.6582 29.4572C15.6662 28.8659 15.5588 28.2785 15.3418 27.7276C14.4547 25.353 12.8519 23.5795 10.7168 22.2397C9.0263 21.2138 7.19301 20.4394 5.27559 19.9414C4.31746 19.6776 3.38595 19.4548 2.42191 19.2085V19.2144ZM1.07935 12.2871C1.08504 14.3076 1.21044 16.326 1.45491 18.332C1.56892 18.2289 1.70691 18.1554 1.85655 18.118C2.0062 18.0807 2.16284 18.0807 2.3125 18.118C4.25199 18.5041 6.15822 19.0392 8.01394 19.7186C9.99013 20.4398 11.806 21.535 13.3605 22.9433L13.5823 23.1485C13.4433 22.785 13.2688 22.4479 13.1003 22.1049C12.5909 21.0026 11.9977 19.9403 11.326 18.9271C11.2419 18.8136 11.1271 18.7261 10.9948 18.675C10.6429 18.5342 10.2791 18.4258 9.92427 18.2968C7.1921 17.3255 4.69215 15.8044 2.5816 13.8291C2.06705 13.3454 1.5939 12.8148 1.07935 12.2812V12.2871ZM12.8253 19.2173L15.5843 24.6084C15.6021 24.541 15.6109 24.5263 15.6109 24.5146C15.6109 22.9902 15.6109 21.4648 15.6109 19.9385C15.6109 19.8241 15.5695 19.7831 15.4572 19.7655C15.1259 19.7098 14.7947 19.6453 14.4665 19.5749C13.9224 19.4548 13.3783 19.3316 12.8253 19.2114V19.2173ZM2.72946 12.4249C4.73065 14.5107 7.18663 16.1152 9.90948 17.1154C7.98059 14.9455 5.50171 13.3261 2.72946 12.4249Z" fill="#1F1F1F"/>
<path d="M18.2008 25.6496C18.2008 23.3044 18.1682 20.9591 18.2008 18.6139C18.235 15.2237 19.4796 11.9551 21.7139 9.38828C23.3965 7.40362 25.4636 5.89387 27.714 4.61278C29.5719 3.58778 31.4918 2.67728 33.4628 1.88643C33.5535 1.84783 33.6475 1.81741 33.7437 1.79555C33.8609 1.75453 33.9861 1.74099 34.1094 1.75599C34.2328 1.77099 34.351 1.81412 34.4547 1.88201C34.5584 1.94989 34.6448 2.04068 34.7072 2.14724C34.7696 2.25381 34.8062 2.37324 34.8142 2.4962C34.844 2.88633 34.8529 3.27775 34.8408 3.66882C34.8585 6.08735 34.8792 8.50295 34.8881 10.9215C34.8881 12.9267 34.8467 14.9319 34.687 16.9341C34.3913 20.5341 33.3149 23.8409 31.0704 26.7284C29.4568 28.7667 27.4453 30.4617 25.156 31.7121C23.3851 32.6793 21.5268 33.4802 19.6054 34.1042C19.5194 34.1344 19.4315 34.1589 19.3422 34.1775C19.2081 34.2188 19.0661 34.228 18.9277 34.2043C18.7893 34.1806 18.6586 34.1246 18.5463 34.041C18.434 33.9575 18.3433 33.8487 18.2817 33.7236C18.2201 33.5985 18.1893 33.4607 18.1919 33.3215C18.1594 32.6971 18.1919 32.0697 18.1919 31.4424V25.6496H18.2008ZM33.7673 2.94766L33.6254 2.99456C31.9768 3.66663 30.364 4.422 28.7934 5.25772C26.7976 6.30246 24.9673 7.63192 23.361 9.20359C21.0064 11.4874 19.5705 14.5426 19.3215 17.7989C19.2949 18.136 19.286 18.4732 19.2683 18.822C19.3209 18.8197 19.3732 18.8138 19.425 18.8044C20.5872 18.5347 21.7464 18.265 22.9056 17.9865C23.0012 17.948 23.0833 17.8829 23.1422 17.7989C23.6213 17.2419 24.0648 16.6556 24.5705 16.125C26.9747 13.6039 29.9289 12.0032 33.2735 11.0681C33.4326 11.0287 33.5733 10.9365 33.6722 10.807C33.7712 10.6774 33.8225 10.5182 33.8176 10.3557C33.8028 8.81663 33.7851 7.27756 33.7733 5.73556C33.7614 4.81799 33.7673 3.88576 33.7673 2.94766ZM32.478 19.3644C32.3923 19.3644 32.342 19.379 32.2947 19.3907C31.3691 19.6253 30.4405 19.8393 29.5238 20.1002C27.5328 20.6227 25.6369 21.4517 23.9052 22.5568C21.9155 23.8136 20.3967 25.6828 19.5818 27.8776C19.3954 28.2992 19.2901 28.7516 19.2713 29.2115C19.289 29.9825 19.2713 30.7564 19.2713 31.5303C19.2713 32.0404 19.2713 32.5534 19.2713 33.0665H19.3245L19.6202 32.9668C21.7401 32.2698 23.769 31.3261 25.6647 30.1554C28.135 28.6325 30.1711 26.5081 31.579 23.9845C31.6554 23.8371 31.7082 23.6789 31.7358 23.5154C31.9043 22.5803 32.064 21.6392 32.2296 20.7011C32.3124 20.2702 32.3952 19.8334 32.478 19.3702V19.3644ZM33.8117 12.44C33.1404 13.1055 32.5076 13.7856 31.8156 14.4071C29.6685 16.2959 27.1519 17.7259 24.4227 18.608C24.1665 18.6777 23.9278 18.7994 23.7216 18.9655C23.5154 19.1315 23.3463 19.3382 23.225 19.5725C22.6336 20.7129 22.0421 21.8415 21.43 22.9731C21.3768 23.0757 21.3294 23.1812 21.2614 23.322C21.3147 23.2838 21.3354 23.2751 21.3502 23.2604C22.8824 21.8106 24.6924 20.6802 26.6731 19.936C28.515 19.2368 30.4108 18.6859 32.342 18.2885C32.7235 18.2035 33.0901 18.1448 33.4421 18.4527C33.6847 16.4594 33.8081 14.4536 33.8117 12.4459V12.44ZM19.2831 24.6529H19.3422C20.2471 22.8803 21.154 21.1067 22.0628 19.3321C22.0373 19.3292 22.0115 19.3292 21.9859 19.3321C21.1284 19.5109 20.2708 19.6956 19.4132 19.8715C19.2742 19.9008 19.2801 19.9771 19.2801 20.0826C19.2801 21.4389 19.2801 22.7962 19.2801 24.1545L19.2831 24.6529ZM24.955 17.2478C26.5016 17.0103 31.1207 13.9938 32.1971 12.5104C29.4079 13.44 26.9116 15.0749 24.955 17.2536V17.2478Z" fill="#1F1F1F"/>
<path d="M121.058 20.8359L117.196 10.2743H119.972L124.016 20.8359H121.058ZM112.926 20.8359L116.97 10.2743H119.746L115.883 20.8359H112.926ZM114.827 19.1461V16.6867H122.13V19.1461H114.827ZM127.426 17.6674V15.1025H129.327C129.709 15.1025 130.016 14.9969 130.247 14.7856C130.489 14.5744 130.609 14.2978 130.609 13.9558C130.609 13.7345 130.554 13.5384 130.444 13.3674C130.333 13.1964 130.182 13.0656 129.991 12.9751C129.8 12.8745 129.578 12.8242 129.327 12.8242H127.426V10.2743L129.402 10.2592C130.197 10.2492 130.901 10.4051 131.515 10.7269C132.128 11.0388 132.606 11.4763 132.948 12.0396C133.3 12.5928 133.476 13.2316 133.476 13.9558C133.476 14.68 133.3 15.3238 132.948 15.8871C132.606 16.4403 132.128 16.8778 131.515 17.1997C130.901 17.5115 130.197 17.6674 129.402 17.6674H127.426ZM125.027 20.8359V10.2743H127.818V20.8359H125.027ZM134.457 20.8359V10.2743H137.248V20.8359H134.457Z" fill="#707070"/>
<defs>
<clipPath id="clip0_1001_26650">
<rect width="67.1216" height="36.3105" fill="white" transform="translate(40.9396)"/>
</clipPath>
</defs>
</svg>
