<svg width="182" height="48" viewBox="0 0 182 48" fill="none" xmlns="http://www.w3.org/2000/svg">
<g clip-path="url(#clip0_2167_146)">
<path d="M73.5079 35.4231L73.3787 33.145C73.3787 32.9674 73.2965 32.8747 73.1281 32.8747C73.0919 32.8748 73.0561 32.8824 73.023 32.897C72.99 32.9117 72.9604 32.933 72.9362 32.9596C72.0636 33.7157 71.0593 34.3096 69.972 34.7127C68.9824 35.1386 67.9187 35.372 66.8394 35.4C65.6928 35.4111 64.553 35.2242 63.4718 34.8478C62.5784 34.5329 61.761 34.0385 61.0714 33.396C60.4364 32.7969 59.9443 32.0662 59.6304 31.2568C59.3051 30.4226 59.1392 29.5364 59.1409 28.6427V13.5218H55.7969V13.043H65.8526V30.1872C65.8526 31.4743 66.2128 32.4628 66.9333 33.1527C67.5793 33.7492 68.4373 34.071 69.322 34.0485H69.6196C70.1183 34.0503 70.6113 33.9448 71.0645 33.7394C71.5176 33.534 71.9198 33.2336 72.2432 32.8592C72.9877 32.024 73.3873 30.9437 73.3631 29.832V13.5218H70.0425V13.043H80.0982V33.6276H83.3796V34.1682L82.5417 34.1373H81.7272C80.9949 34.1373 80.247 34.1682 79.4952 34.2223C78.7434 34.2763 77.9641 34.3613 77.177 34.4733C75.6381 34.6972 74.5378 35.0138 73.8721 35.4347L73.5079 35.4231Z" fill="#1F1F1F"/>
<path d="M95.7181 48.011H82.3379V47.5091H85.6859L85.7055 13.5642H82.3379V13.0623H92.3936V13.8577C92.3936 14.3867 92.4719 14.63 92.6286 14.63C92.8398 14.5964 93.0414 14.5187 93.2198 14.4021C93.2523 14.3772 93.2878 14.3564 93.3256 14.3404C94.1574 13.8911 95.0482 13.5571 95.9726 13.348C96.7565 13.1607 97.5588 13.0584 98.3652 13.043C100.905 13.043 103.008 13.3712 104.673 14.0276C105.666 14.3887 106.548 14.995 107.234 15.7884C107.871 16.5501 108.365 17.4168 108.695 18.3484C109.039 19.3171 109.264 20.3232 109.365 21.3448C109.47 22.3951 109.521 23.4183 109.521 24.4338C109.536 25.5377 109.39 26.6378 109.087 27.7005C108.825 28.6054 108.445 29.4725 107.955 30.2799C107.519 30.9868 106.992 31.6357 106.389 32.2105C105.861 32.719 105.287 33.1779 104.673 33.5813C104.164 33.9156 103.625 34.2051 103.064 34.4462C102.668 34.6171 102.261 34.7641 101.846 34.8864C100.437 35.2212 98.9887 35.3744 97.5389 35.3421C97.0573 35.3421 96.6266 35.3421 96.2467 35.3227C95.8856 35.3077 95.5258 35.269 95.1699 35.2069C94.8036 35.1422 94.4424 35.0519 94.0891 34.9366C93.6682 34.797 93.2574 34.6293 92.8596 34.4346L92.7774 34.4115C92.7209 34.3569 92.645 34.3264 92.5659 34.3265C92.4523 34.3265 92.3936 34.4964 92.3936 34.8285V47.5013H95.7181V48.011ZM96.8419 34.9405C97.8171 34.8918 98.7482 34.5251 99.489 33.8979C100.405 33.2029 101.188 31.9364 101.838 30.0984C102.512 28.0929 102.84 25.9903 102.81 23.8778C102.82 22.7415 102.725 21.6066 102.524 20.4876C102.37 19.5722 102.107 18.6779 101.741 17.8233C101.432 17.1219 101.018 16.4709 100.511 15.8926C100.072 15.3888 99.5406 14.9709 98.9447 14.6609C98.2553 14.2935 97.4846 14.0998 96.701 14.0971C96.2053 14.1025 95.7127 14.174 95.2365 14.3095C94.7427 14.4414 94.2743 14.6528 93.8503 14.935C93.4427 15.2055 93.094 15.5533 92.8243 15.9583C92.5568 16.3759 92.4205 16.8622 92.4328 17.3561V30.8398C92.3901 31.6818 92.628 32.5144 93.1102 33.2106C93.6367 33.8542 94.3332 34.3419 95.1229 34.62C95.6716 34.8282 96.254 34.9367 96.8419 34.9405V34.9405Z" fill="#1F1F1F"/>
<path d="M126.642 35.3454C125.953 35.356 125.275 35.1754 124.685 34.8241C124.109 34.4783 123.629 33.9982 123.287 33.4263C122.268 34.0008 121.188 34.4643 120.068 34.8087C118.941 35.157 117.767 35.3328 116.587 35.3299H116.458L116.332 35.3531H116.183C114.737 35.3779 113.323 34.9298 112.162 34.0789C110.974 33.2294 110.311 31.8136 110.173 29.8314V29.5998C110.157 28.7305 110.368 27.8718 110.784 27.1053C111.206 26.3592 111.762 25.6947 112.424 25.1438C113.143 24.5448 113.932 24.0327 114.774 23.6186C115.647 23.1825 116.548 22.8033 117.472 22.4833C118.396 22.1629 119.312 21.8887 120.213 21.6686C121.113 21.4485 121.944 21.2593 122.68 21.1049V20.5218C122.684 19.5613 122.624 18.6016 122.5 17.649C122.422 16.9897 122.291 16.3376 122.108 15.699C121.99 15.3263 121.791 14.9835 121.525 14.6951C121.266 14.4199 120.962 14.1913 120.624 14.0193C120.282 13.8387 119.915 13.7086 119.535 13.6332C119.155 13.5569 118.768 13.5181 118.38 13.5174C117.809 13.5124 117.242 13.6119 116.708 13.8108C116.494 13.8903 116.31 14.0331 116.181 14.2197C116.052 14.4063 115.984 14.6276 115.988 14.8534L116.011 15.0619C115.652 14.9695 115.282 14.9279 114.911 14.9383C114.461 14.9309 114.013 15.0015 113.587 15.1468C113.167 15.3044 112.777 15.5301 112.432 15.8149L112.264 15.9809C112.819 15.5427 113.51 15.3067 114.222 15.3129C114.64 15.3088 115.055 15.3917 115.439 15.5561C115.806 15.7112 116.14 15.934 116.422 16.2126C116.705 16.4918 116.932 16.8205 117.092 17.1818C117.252 17.5624 117.335 17.9705 117.335 18.3826C117.335 18.7948 117.252 19.2029 117.092 19.5835C116.932 19.9448 116.705 20.2734 116.422 20.5527C116.14 20.8327 115.807 21.0568 115.439 21.213C115.053 21.371 114.64 21.4524 114.222 21.4524C113.804 21.4524 113.39 21.371 113.004 21.213C112.264 20.8965 111.674 20.3138 111.355 19.5835C111.188 19.2047 111.104 18.7956 111.109 18.3826C111.1 17.7444 111.24 17.1127 111.52 16.5368C111.799 15.9608 112.209 15.4561 112.718 15.0619C114.527 13.6873 117.202 12.9987 120.741 12.9961H121.611C122.748 13.0102 123.874 13.2233 124.935 13.6255C126.144 14.0924 127.188 14.8977 127.939 15.9423C128.771 17.0981 129.209 18.6851 129.25 20.7033L129.211 22.3096C129.167 23.9931 129.146 25.4746 129.149 26.754C129.149 27.9819 129.188 29.1711 129.274 30.3257C129.36 31.4802 129.505 32.2563 129.802 32.6618C129.949 32.8738 130.144 33.0488 130.372 33.1723C130.6 33.2957 130.854 33.3643 131.114 33.3723C131.378 33.3516 131.64 33.3103 131.897 33.2487C132.289 33.1908 132.857 32.5807 133.636 31.4107L134.079 31.3914C133.745 31.9748 133.366 32.5324 132.947 33.0595C132.615 33.4745 132.243 33.8561 131.835 34.1986C131.5 34.4771 131.13 34.7119 130.734 34.8975C130.385 35.0588 130.015 35.1706 129.634 35.2295C129.017 35.3163 128.394 35.3589 127.77 35.357L126.642 35.3454ZM120.694 33.824C121.537 33.7932 122.358 33.5557 123.083 33.1329C122.901 32.546 122.784 31.9413 122.735 31.3296C122.656 30.5573 122.613 29.6422 122.597 28.5417L122.578 26.0164C122.578 25.3909 122.578 24.7924 122.578 24.2209C122.578 23.6495 122.597 23.0857 122.609 22.5297L122.633 21.4215C121.755 21.6117 120.905 21.9101 120.103 22.3096C119.379 22.6697 118.723 23.1504 118.165 23.7305C117.622 24.3049 117.198 24.9776 116.916 25.7114C116.606 26.5445 116.456 27.4269 116.473 28.3139C116.472 28.8951 116.533 29.4749 116.653 30.0438C116.767 30.6015 116.962 31.14 117.233 31.6424C117.497 32.1312 117.853 32.5662 118.282 32.9243C118.738 33.3011 119.273 33.5729 119.849 33.7198C120.126 33.786 120.409 33.821 120.694 33.824V33.824Z" fill="#1F1F1F"/>
<path d="M128.359 46.8411C129.375 46.8609 130.386 46.6987 131.343 46.3623C132.231 46.0063 132.98 45.3799 133.481 44.5745C134.153 43.4638 134.608 42.2394 134.824 40.9641C135.186 38.9963 135.381 37.0021 135.408 35.0023V13.5218H132.083V13.043H142.116L142.139 28.4264V29.5153C142.139 33.7422 141.563 37.1659 140.412 39.7864C139.261 42.407 137.635 44.299 135.533 45.4626C133.335 46.6616 130.871 47.3075 128.359 47.343V46.8411Z" fill="#1F1F1F"/>
<path d="M138.262 9.06261C137.048 9.05362 135.886 8.57602 135.025 7.7322C134.164 6.88838 133.673 5.74554 133.657 4.54873C133.649 3.94791 133.766 3.35189 133.999 2.79694C134.233 2.24199 134.579 1.73971 135.015 1.32067C135.551 0.798384 136.208 0.413966 136.929 0.20131C137.651 -0.011346 138.414 -0.0457077 139.152 0.10126C139.89 0.248227 140.58 0.572006 141.161 1.04405C141.743 1.51609 142.197 2.12189 142.485 2.80803C142.772 3.49417 142.884 4.23957 142.811 4.97851C142.738 5.71745 142.481 6.42722 142.064 7.04524C141.646 7.66326 141.081 8.17055 140.418 8.52236C139.755 8.87417 139.014 9.05971 138.262 9.06261V9.06261ZM138.262 1.40562C137.844 1.3964 137.43 1.47224 137.044 1.62839C136.658 1.78453 136.308 2.01761 136.018 2.31303C135.714 2.60205 135.474 2.94973 135.312 3.33438C135.15 3.71903 135.071 4.13241 135.078 4.54873C135.073 4.95723 135.154 5.36228 135.316 5.73839C135.478 6.11451 135.717 6.45356 136.018 6.73423C136.31 7.02964 136.659 7.26441 137.044 7.42472C137.429 7.58502 137.843 7.66761 138.262 7.66761C138.68 7.66761 139.094 7.58502 139.479 7.42472C139.865 7.26441 140.213 7.02964 140.505 6.73423C140.803 6.45198 141.038 6.1121 141.195 5.73598C141.353 5.35986 141.43 4.95564 141.422 4.54873C141.429 4.13626 141.352 3.72652 141.197 3.34368C141.041 2.96085 140.809 2.61268 140.514 2.31971C140.22 2.02675 139.868 1.79493 139.482 1.63793C139.095 1.48094 138.68 1.40195 138.262 1.40562V1.40562Z" fill="#1F1F1F"/>
</g>
<path d="M22.0869 33.7624V43.377C22.0869 43.5398 22.0869 43.7064 22.0635 43.8731C21.9814 44.7334 21.352 45.2217 20.4998 44.9853C19.6476 44.7489 18.8658 44.4466 18.0605 44.1443C14.913 43.0152 11.9576 41.417 9.29605 39.4048C4.69204 35.9142 1.59598 30.8214 0.633265 25.1553C0.324447 23.2772 0.145512 21.3803 0.0977068 19.478C-0.0899346 15.3352 0.0468865 11.1925 0.0664325 7.04981C0.0664325 5.93372 0.0664313 4.82151 0.0468853 3.70542C0.0468853 3.59691 0.0468853 3.48453 0.0468853 3.37602C0.140706 2.38394 0.801361 1.94602 1.73957 2.30255C2.55268 2.61258 3.35016 2.96911 4.14372 3.31789C7.05809 4.54709 9.84317 6.05802 12.4586 7.82876C14.9956 9.54856 17.1815 11.7287 18.9009 14.254C20.4987 16.6681 21.5202 19.4116 21.8876 22.2759C22.0412 23.7692 22.0935 25.2711 22.0439 26.7713C22.0439 29.0965 22.0439 31.4217 22.0439 33.7469L22.0869 33.7624ZM1.4972 3.69767V3.91469C1.48156 7.07178 1.46462 10.2302 1.44638 13.3898C1.42711 13.5165 1.43359 13.6457 1.46542 13.7699C1.49725 13.894 1.5538 14.0106 1.63174 14.1128C1.70968 14.215 1.80744 14.3007 1.91927 14.3649C2.03111 14.429 2.15475 14.4704 2.28295 14.4865L2.79114 14.6377C7.98647 16.2149 12.3218 19.0245 15.582 23.3881C15.67 23.503 15.7936 23.586 15.9339 23.6245C16.9763 23.8984 18.0279 24.1568 19.0886 24.3996C19.6007 24.5236 20.1206 24.6089 20.6914 24.7213C20.6484 24.1206 20.621 23.5587 20.5702 23.0239C20.3526 20.547 19.5935 18.1469 18.3458 15.9902C16.8206 13.428 14.7761 11.2072 12.3413 9.46801C9.85406 7.6754 7.17745 6.15638 4.35873 4.93777C3.42443 4.53086 2.47841 4.12783 1.4972 3.69767ZM3.20161 25.3994C3.20161 25.5506 3.20161 25.6203 3.23288 25.694C3.49089 27.1511 3.77626 28.6043 4.01472 30.0692C4.13954 30.9139 4.43898 31.724 4.89429 32.4486C6.68034 35.2748 9.06706 37.6805 11.8878 39.4978C14.4502 41.1246 17.2081 42.4265 20.0972 43.3732L20.6992 43.5824V43.2763C20.6992 41.8308 20.6562 40.3853 20.6992 38.9398C20.7097 38.158 20.5677 37.3817 20.2809 36.6534C19.1081 33.5143 16.9893 31.1698 14.1669 29.3988C11.9322 28.0425 9.50869 27.0188 6.97398 26.3605C5.7074 26.0117 4.47601 25.7172 3.20161 25.3917V25.3994ZM1.42683 16.2421C1.43435 18.913 1.60012 21.5813 1.9233 24.233C2.07401 24.0967 2.25642 23.9995 2.45424 23.9502C2.65206 23.9008 2.85913 23.9008 3.05697 23.9501C5.62085 24.4605 8.14077 25.1679 10.5939 26.066C13.2063 27.0193 15.6068 28.4672 17.6617 30.3288L17.9549 30.6001C17.7712 30.1196 17.5405 29.6739 17.3177 29.2205C16.6443 27.7634 15.8602 26.359 14.9722 25.0197C14.8611 24.8696 14.7093 24.754 14.5344 24.6864C14.0692 24.5004 13.5883 24.357 13.1192 24.1865C9.50748 22.9025 6.20272 20.8917 3.4127 18.2805C2.7325 17.6411 2.10703 16.9396 1.42683 16.2343V16.2421ZM16.9542 25.4033L20.6014 32.53C20.6249 32.4409 20.6366 32.4215 20.6366 32.406C20.6366 30.3908 20.6366 28.3744 20.6366 26.3566C20.6366 26.2055 20.5819 26.1512 20.4333 26.128C19.9955 26.0544 19.5577 25.9691 19.1238 25.8761C18.4045 25.7172 17.6852 25.5545 16.9542 25.3956V25.4033ZM3.60816 16.4242C6.25361 19.1816 9.50026 21.3025 13.0997 22.6247C10.5498 19.7562 7.2729 17.6155 3.60816 16.4242V16.4242Z" fill="#1F1F1F"/>
<path d="M24.0582 33.9061C24.0582 30.8058 24.0152 27.7056 24.0582 24.6053C24.1034 20.1237 25.7488 15.8029 28.7023 12.4097C30.9266 9.78612 33.6592 7.79033 36.6341 6.09682C39.0901 4.74184 41.6281 3.53821 44.2335 2.49277C44.3534 2.44174 44.4777 2.40153 44.6049 2.37264C44.7598 2.31841 44.9253 2.30051 45.0884 2.32034C45.2515 2.34017 45.4077 2.39719 45.5448 2.48692C45.6819 2.57666 45.7962 2.69668 45.8786 2.83755C45.9611 2.97842 46.0095 3.13631 46.02 3.29884C46.0595 3.81456 46.0712 4.332 46.0552 4.84896C46.0787 8.0461 46.1061 11.2394 46.1178 14.4365C46.1178 17.0872 46.0631 19.7379 45.852 22.3848C45.461 27.1437 44.0381 31.515 41.071 35.3322C38.9379 38.0267 36.2788 40.2673 33.2526 41.9202C30.9116 43.1988 28.455 44.2575 25.9151 45.0825C25.8014 45.1224 25.6852 45.1548 25.5671 45.1794C25.3899 45.234 25.2021 45.2461 25.0191 45.2148C24.8362 45.1834 24.6634 45.1094 24.515 44.999C24.3665 44.8885 24.2466 44.7447 24.1652 44.5793C24.0837 44.4139 24.043 44.2318 24.0465 44.0478C24.0035 43.2223 24.0465 42.393 24.0465 41.5637V33.9061H24.0582ZM44.6362 3.89564L44.4486 3.95765C42.2692 4.84607 40.1372 5.84462 38.0609 6.94939C35.4227 8.33046 33.0031 10.0879 30.8797 12.1656C27.767 15.1846 25.8689 19.2234 25.5398 23.528C25.5046 23.9737 25.4929 24.4193 25.4694 24.8805C25.5389 24.8774 25.6081 24.8696 25.6766 24.8572C27.2129 24.5007 28.7453 24.1442 30.2777 23.776C30.404 23.7251 30.5126 23.6389 30.5904 23.528C31.2237 22.7917 31.8101 22.0166 32.4786 21.3152C35.6568 17.9824 39.5621 15.8665 43.9834 14.6303C44.1936 14.5782 44.3796 14.4564 44.5105 14.2851C44.6413 14.1138 44.7091 13.9033 44.7027 13.6886C44.6831 11.654 44.6597 9.61948 44.644 7.58106C44.6284 6.36809 44.6362 5.13574 44.6362 3.89564ZM42.9318 25.5974C42.8184 25.5974 42.752 25.6168 42.6894 25.6323C41.4658 25.9423 40.2383 26.2252 39.0265 26.5701C36.3946 27.2609 33.8883 28.3567 31.599 29.8176C28.9688 31.479 26.961 33.9499 25.8838 36.8513C25.6374 37.4086 25.4982 38.0066 25.4733 38.6146C25.4968 39.6338 25.4733 40.6569 25.4733 41.68C25.4733 42.3543 25.4733 43.0325 25.4733 43.7106H25.5437L25.9346 43.5789C28.7369 42.6576 31.4191 41.41 33.925 39.8624C37.1906 37.8492 39.8822 35.0409 41.7434 31.7049C41.8443 31.51 41.9142 31.3009 41.9506 31.0848C42.1734 29.8486 42.3845 28.6046 42.6034 27.3645C42.7129 26.7949 42.8223 26.2175 42.9318 25.6052V25.5974ZM44.6948 16.4439C43.8074 17.3236 42.9709 18.2227 42.0561 19.0442C39.2178 21.5411 35.891 23.4315 32.2831 24.5976C31.9445 24.6897 31.6289 24.8506 31.3563 25.0701C31.0838 25.2896 30.8602 25.5629 30.6999 25.8726C29.9181 27.38 29.1362 28.872 28.327 30.3679C28.2567 30.5035 28.1941 30.6431 28.1042 30.8291C28.1746 30.7787 28.2019 30.7671 28.2215 30.7477C30.247 28.8312 32.6397 27.3369 35.258 26.3531C37.693 25.4288 40.199 24.7005 42.752 24.1752C43.2562 24.0628 43.741 23.9853 44.2062 24.3922C44.5269 21.7572 44.6901 19.1057 44.6948 16.4517V16.4439ZM25.489 32.5885H25.5671C26.7633 30.2452 27.9622 27.9006 29.1636 25.5548C29.1298 25.5509 29.0957 25.5509 29.062 25.5548C27.9283 25.7912 26.7946 26.0353 25.6609 26.2678C25.4772 26.3066 25.485 26.4073 25.485 26.5469C25.485 28.3398 25.485 30.1341 25.485 31.9297L25.489 32.5885ZM32.9868 22.7994C35.0313 22.4855 41.1375 18.4978 42.5604 16.5369C38.8733 17.7658 35.5734 19.927 32.9868 22.8072V22.7994Z" fill="#1F1F1F"/>
<path d="M160.033 27.7148L154.927 13.7531H158.597L163.942 27.7148H160.033ZM149.282 27.7148L154.628 13.7531H158.298L153.191 27.7148H149.282ZM151.795 25.481V22.2299H161.449V25.481H151.795ZM168.45 23.5263V20.1356H170.963C171.469 20.1356 171.874 19.996 172.18 19.7167C172.499 19.4375 172.659 19.0718 172.659 18.6197C172.659 18.3272 172.586 18.0679 172.439 17.8419C172.293 17.6158 172.094 17.443 171.841 17.3233C171.588 17.1903 171.296 17.1238 170.963 17.1238H168.45V13.7531L171.063 13.7331C172.113 13.7198 173.044 13.9259 173.855 14.3514C174.666 14.7636 175.298 15.3421 175.75 16.0867C176.216 16.818 176.448 17.6624 176.448 18.6197C176.448 19.5771 176.216 20.4281 175.75 21.1728C175.298 21.9041 174.666 22.4825 173.855 22.908C173.044 23.3202 172.113 23.5263 171.063 23.5263H168.45ZM165.279 27.7148V13.7531H168.969V27.7148H165.279ZM177.745 27.7148V13.7531H181.435V27.7148H177.745Z" fill="#1F1F1F"/>
<defs>
<clipPath id="clip0_2167_146">
<rect width="88.7304" height="48" fill="white" transform="translate(54.1191)"/>
</clipPath>
</defs>
</svg>
