<svg width="114" height="115" viewBox="0 0 114 115" fill="none" xmlns="http://www.w3.org/2000/svg">
<g filter="url(#filter0_d_1943_13324)">
<rect x="7" width="100" height="100" rx="8" fill="white" shape-rendering="crispEdges"/>
<g clip-path="url(#clip0_1943_13324)">
<path d="M42.678 35.7837H48.751C49.1932 35.7837 49.552 35.4249 49.552 34.9827C49.552 34.5404 49.1932 34.1816 48.751 34.1816H42.678C42.2357 34.1816 41.877 34.5404 41.877 34.9827C41.877 35.4249 42.2357 35.7837 42.678 35.7837Z" fill="#010101"/>
<path d="M60.0463 34.4579C63.9329 34.4579 67.0946 31.2962 67.0946 27.4096C67.0946 23.523 63.9329 20.3613 60.0463 20.3613C56.1597 20.3613 52.998 23.523 52.998 27.4096C52.998 31.2962 56.1597 34.4579 60.0463 34.4579ZM60.0463 21.9649C63.0499 21.9649 65.4925 24.4075 65.4925 27.4111C65.4925 30.4146 63.0499 32.8573 60.0463 32.8573C57.0428 32.8573 54.6001 30.4146 54.6001 27.4111C54.6001 24.4075 57.0428 21.9649 60.0463 21.9649Z" fill="#010101"/>
<path d="M60.0452 25.4107C61.1494 25.4107 62.0471 26.3084 62.0471 27.4125C62.0471 27.8548 62.4058 28.2136 62.8481 28.2136C63.2903 28.2136 63.6491 27.8548 63.6491 27.4125C63.6491 25.4253 62.0324 23.8086 60.0452 23.8086C59.6029 23.8086 59.2441 24.1674 59.2441 24.6096C59.2441 25.0519 59.6029 25.4107 60.0452 25.4107Z" fill="#010101"/>
<path d="M75.4282 38.9532L74.4602 37.9852V27.0899C74.4602 24.8815 72.6634 23.0847 70.455 23.0847H69.5149C67.8688 19.4983 64.2444 17 60.0459 17C55.8474 17 52.2229 19.4983 50.5769 23.0847H41.7845C39.5761 23.0847 37.7793 24.8815 37.7793 27.0899V47.2726C37.7793 49.4809 39.5761 51.2778 41.7845 51.2778H52.1131V53.2021C49.9413 53.2445 48.187 55.0223 48.187 57.2043C48.187 57.6466 48.5458 58.0054 48.988 58.0054H63.2471C63.6894 58.0054 64.0482 57.6466 64.0482 57.2043C64.0482 55.0223 62.2938 53.2445 60.122 53.2021V51.2778H70.4565C72.6648 51.2778 74.4617 49.4809 74.4617 47.2726V43.4182C74.8205 43.2835 75.15 43.0741 75.4297 42.7944C76.4884 41.7356 76.4884 40.012 75.4297 38.9532H75.4282ZM70.4579 27.4106C70.4579 26.469 70.3305 25.5552 70.0948 24.6868H70.455C71.7803 24.6868 72.8581 25.7646 72.8581 27.0899V36.3846L69.0711 32.5976C69.9527 31.0702 70.4565 29.2997 70.4565 27.4121L70.4579 27.4106ZM60.0459 18.6021C64.9034 18.6021 68.8559 22.5546 68.8559 27.4121C68.8559 32.2696 64.9034 36.222 60.0459 36.222C55.1884 36.222 51.2359 32.2696 51.2359 27.4121C51.2359 22.5546 55.1884 18.6021 60.0459 18.6021ZM62.3084 56.4018H49.9252C50.2562 55.469 51.1466 54.7997 52.1907 54.7997H53.6961L53.7152 51.2763H58.52V54.7997H60.043C61.0871 54.7997 61.9775 55.469 62.3084 56.4018ZM72.8581 47.2711C72.8581 48.5964 71.7803 49.6743 70.455 49.6743H41.7845C40.4592 49.6743 39.3814 48.5964 39.3814 47.2711V45.8301H72.8581V47.2711ZM72.8581 44.2281H39.3814V27.0884C39.3814 25.7631 40.4592 24.6853 41.7845 24.6853H49.997C49.7612 25.5537 49.6338 26.4675 49.6338 27.4091C49.6338 28.4254 49.7803 29.4066 50.0526 30.3365H42.6763C42.2341 30.3365 41.8753 30.6953 41.8753 31.1376C41.8753 31.5798 42.2341 31.9386 42.6763 31.9386H50.6706C52.3576 35.4166 55.9265 37.8212 60.0444 37.8212C61.9306 37.8212 63.7026 37.316 65.2299 36.4359L71.587 42.7929C71.9429 43.1488 72.3807 43.3933 72.8581 43.5105V44.2281ZM74.2947 41.6609C73.8598 42.0959 73.1539 42.0959 72.719 41.6609L66.5728 35.5147C67.1527 35.0476 67.6799 34.5189 68.1485 33.939L74.2947 40.0852C74.7297 40.5201 74.7297 41.226 74.2947 41.6609Z" fill="#010101"/>
</g>
<path d="M33.6926 73.0039V63.2039H34.8826V73.0039H33.6926ZM37.1714 73.0039V66.0039H38.2214L38.2914 67.2919V73.0039H37.1714ZM42.0854 73.0039V69.4199L43.2054 68.9999V73.0039H42.0854ZM42.0854 69.4199C42.0854 68.7292 42.0061 68.2019 41.8474 67.8379C41.6887 67.4739 41.4694 67.2266 41.1894 67.0959C40.9094 66.9559 40.5921 66.8859 40.2374 66.8859C39.6214 66.8859 39.1407 67.1052 38.7954 67.5439C38.4594 67.9732 38.2914 68.5846 38.2914 69.3779H37.7454C37.7454 68.6406 37.8527 68.0059 38.0674 67.4739C38.2821 66.9419 38.5901 66.5359 38.9914 66.2559C39.4021 65.9759 39.8967 65.8359 40.4754 65.8359C41.3247 65.8359 41.9921 66.0972 42.4774 66.6199C42.9721 67.1426 43.2147 67.9359 43.2054 68.9999L42.0854 69.4199ZM47.428 73.1719C46.9147 73.1719 46.4667 73.0972 46.084 72.9479C45.7014 72.7892 45.3794 72.5839 45.118 72.3319C44.866 72.0799 44.684 71.8046 44.572 71.5059L45.552 71.0999C45.7107 71.4172 45.9487 71.6739 46.266 71.8699C46.5834 72.0659 46.9334 72.1639 47.316 72.1639C47.7547 72.1639 48.1234 72.0799 48.422 71.9119C48.7207 71.7346 48.87 71.4872 48.87 71.1699C48.87 70.8806 48.758 70.6472 48.534 70.4699C48.3194 70.2926 47.9974 70.1479 47.568 70.0359L46.896 69.8539C46.2614 69.6859 45.7667 69.4339 45.412 69.0979C45.0574 68.7526 44.88 68.3652 44.88 67.9359C44.88 67.2732 45.0947 66.7599 45.524 66.3959C45.9627 66.0226 46.6114 65.8359 47.47 65.8359C47.8807 65.8359 48.254 65.8966 48.59 66.0179C48.926 66.1392 49.2154 66.3119 49.458 66.5359C49.7007 66.7506 49.878 67.0072 49.99 67.3059L49.01 67.7399C48.8887 67.4226 48.688 67.1939 48.408 67.0539C48.128 66.9139 47.7874 66.8439 47.386 66.8439C46.9567 66.8439 46.6207 66.9372 46.378 67.1239C46.1354 67.3012 46.014 67.5532 46.014 67.8799C46.014 68.0666 46.112 68.2439 46.308 68.4119C46.5134 68.5706 46.812 68.7012 47.204 68.8039L47.904 68.9859C48.3614 69.0979 48.744 69.2659 49.052 69.4899C49.36 69.7046 49.5934 69.9519 49.752 70.2319C49.9107 70.5119 49.99 70.8106 49.99 71.1279C49.99 71.5479 49.878 71.9119 49.654 72.2199C49.43 72.5279 49.1267 72.7659 48.744 72.9339C48.3614 73.0926 47.9227 73.1719 47.428 73.1719ZM51.5695 73.0039L51.5975 66.0039H52.7175L52.6895 73.0039H51.5695ZM52.1435 64.3799C51.9569 64.3799 51.7935 64.3099 51.6535 64.1699C51.5135 64.0299 51.4435 63.8666 51.4435 63.6799C51.4435 63.4839 51.5135 63.3206 51.6535 63.1899C51.7935 63.0499 51.9569 62.9799 52.1435 62.9799C52.3395 62.9799 52.5029 63.0499 52.6335 63.1899C52.7735 63.3206 52.8435 63.4839 52.8435 63.6799C52.8435 63.8666 52.7735 64.0299 52.6335 64.1699C52.5029 64.3099 52.3395 64.3799 52.1435 64.3799ZM57.5534 75.9719C57.1054 75.9719 56.6948 75.9252 56.3214 75.8319C55.9574 75.7479 55.6448 75.6499 55.3834 75.5379C55.1314 75.4352 54.9494 75.3466 54.8374 75.2719L55.2574 74.3619C55.3788 74.4272 55.5514 74.5066 55.7754 74.5999C55.9994 74.7026 56.2608 74.7866 56.5594 74.8519C56.8674 74.9266 57.1941 74.9639 57.5394 74.9639C57.9874 74.9639 58.3888 74.8706 58.7434 74.6839C59.1074 74.5066 59.3874 74.2219 59.5834 73.8299C59.7888 73.4472 59.8914 72.9526 59.8914 72.3459V66.0039H61.0114V72.3319C61.0114 73.1346 60.8621 73.8066 60.5634 74.3479C60.2648 74.8892 59.8541 75.2952 59.3314 75.5659C58.8088 75.8366 58.2161 75.9719 57.5534 75.9719ZM57.5114 72.9479C56.8861 72.9479 56.3354 72.7986 55.8594 72.4999C55.3834 72.2012 55.0101 71.7859 54.7394 71.2539C54.4781 70.7126 54.3474 70.0966 54.3474 69.4059C54.3474 68.6966 54.4781 68.0759 54.7394 67.5439C55.0101 67.0026 55.3834 66.5826 55.8594 66.2839C56.3354 65.9852 56.8861 65.8359 57.5114 65.8359C58.0994 65.8359 58.6128 65.9852 59.0514 66.2839C59.4901 66.5826 59.8308 67.0026 60.0734 67.5439C60.3254 68.0759 60.4514 68.6966 60.4514 69.4059C60.4514 70.1059 60.3254 70.7219 60.0734 71.2539C59.8308 71.7859 59.4901 72.2012 59.0514 72.4999C58.6128 72.7986 58.0994 72.9479 57.5114 72.9479ZM57.7774 71.9819C58.1881 71.9819 58.5521 71.8699 58.8694 71.6459C59.1868 71.4219 59.4341 71.1186 59.6114 70.7359C59.7888 70.3439 59.8774 69.8912 59.8774 69.3779C59.8774 68.8832 59.7841 68.4446 59.5974 68.0619C59.4201 67.6699 59.1728 67.3666 58.8554 67.1519C58.5474 66.9279 58.1834 66.8159 57.7634 66.8159C57.3248 66.8159 56.9328 66.9279 56.5874 67.1519C56.2514 67.3666 55.9854 67.6699 55.7894 68.0619C55.6028 68.4446 55.5094 68.8832 55.5094 69.3779C55.5094 69.8912 55.6074 70.3439 55.8034 70.7359C55.9994 71.1186 56.2654 71.4219 56.6014 71.6459C56.9468 71.8699 57.3388 71.9819 57.7774 71.9819ZM62.9702 73.0039V63.0219H64.0902V73.0039H62.9702ZM67.8982 73.0039V69.4199L69.0182 68.9999V73.0039H67.8982ZM67.8982 69.4199C67.8982 68.7292 67.8142 68.2019 67.6462 67.8379C67.4876 67.4739 67.2682 67.2266 66.9882 67.0959C66.7082 66.9559 66.3909 66.8859 66.0362 66.8859C65.4202 66.8859 64.9396 67.1052 64.5942 67.5439C64.2582 67.9732 64.0902 68.5846 64.0902 69.3779H63.5442C63.5442 68.6406 63.6516 68.0059 63.8662 67.4739C64.0809 66.9419 64.3936 66.5359 64.8042 66.2559C65.2149 65.9759 65.7096 65.8359 66.2882 65.8359C67.1282 65.8359 67.7956 66.0972 68.2902 66.6199C68.7849 67.1426 69.0276 67.9359 69.0182 68.9999L67.8982 69.4199ZM73.4089 73.1719C72.7275 73.1719 72.2002 72.9946 71.8269 72.6399C71.4535 72.2852 71.2669 71.7859 71.2669 71.1419V63.8199H72.3869V71.0299C72.3869 71.3846 72.4802 71.6599 72.6669 71.8559C72.8629 72.0426 73.1335 72.1359 73.4789 72.1359C73.5909 72.1359 73.6982 72.1219 73.8009 72.0939C73.9129 72.0566 74.0575 71.9726 74.2349 71.8419L74.6689 72.7519C74.4262 72.9106 74.2069 73.0179 74.0109 73.0739C73.8149 73.1392 73.6142 73.1719 73.4089 73.1719ZM70.0489 66.9979V66.0039H74.4869V66.9979H70.0489ZM78.5179 73.1719C78.0046 73.1719 77.5566 73.0972 77.1739 72.9479C76.7912 72.7892 76.4692 72.5839 76.2079 72.3319C75.9559 72.0799 75.7739 71.8046 75.6619 71.5059L76.6419 71.0999C76.8006 71.4172 77.0386 71.6739 77.3559 71.8699C77.6732 72.0659 78.0232 72.1639 78.4059 72.1639C78.8446 72.1639 79.2132 72.0799 79.5119 71.9119C79.8106 71.7346 79.9599 71.4872 79.9599 71.1699C79.9599 70.8806 79.8479 70.6472 79.6239 70.4699C79.4092 70.2926 79.0872 70.1479 78.6579 70.0359L77.9859 69.8539C77.3512 69.6859 76.8566 69.4339 76.5019 69.0979C76.1472 68.7526 75.9699 68.3652 75.9699 67.9359C75.9699 67.2732 76.1846 66.7599 76.6139 66.3959C77.0526 66.0226 77.7012 65.8359 78.5599 65.8359C78.9706 65.8359 79.3439 65.8966 79.6799 66.0179C80.0159 66.1392 80.3052 66.3119 80.5479 66.5359C80.7906 66.7506 80.9679 67.0072 81.0799 67.3059L80.0999 67.7399C79.9786 67.4226 79.7779 67.1939 79.4979 67.0539C79.2179 66.9139 78.8772 66.8439 78.4759 66.8439C78.0466 66.8439 77.7106 66.9372 77.4679 67.1239C77.2252 67.3012 77.1039 67.5532 77.1039 67.8799C77.1039 68.0666 77.2019 68.2439 77.3979 68.4119C77.6032 68.5706 77.9019 68.7012 78.2939 68.8039L78.9939 68.9859C79.4512 69.0979 79.8339 69.2659 80.1419 69.4899C80.4499 69.7046 80.6832 69.9519 80.8419 70.2319C81.0006 70.5119 81.0799 70.8106 81.0799 71.1279C81.0799 71.5479 80.9679 71.9119 80.7439 72.2199C80.5199 72.5279 80.2166 72.7659 79.8339 72.9339C79.4512 73.0926 79.0126 73.1719 78.5179 73.1719Z" fill="black"/>
<rect x="7.62483" y="0.624831" width="98.7503" height="98.7503" rx="7.37517" stroke="#F2F2F2" stroke-width="1.24966" shape-rendering="crispEdges"/>
</g>
<defs>
<filter id="filter0_d_1943_13324" x="0.997293" y="0" width="112.005" height="114.003" filterUnits="userSpaceOnUse" color-interpolation-filters="sRGB">
<feFlood flood-opacity="0" result="BackgroundImageFix"/>
<feColorMatrix in="SourceAlpha" type="matrix" values="0 0 0 0 0 0 0 0 0 0 0 0 0 0 0 0 0 0 127 0" result="hardAlpha"/>
<feMorphology radius="9.99729" operator="erode" in="SourceAlpha" result="effect1_dropShadow_1943_13324"/>
<feOffset dy="8"/>
<feGaussianBlur stdDeviation="8"/>
<feComposite in2="hardAlpha" operator="out"/>
<feColorMatrix type="matrix" values="0 0 0 0 0 0 0 0 0 0 0 0 0 0 0 0 0 0 0.08 0"/>
<feBlend mode="normal" in2="BackgroundImageFix" result="effect1_dropShadow_1943_13324"/>
<feBlend mode="normal" in="SourceGraphic" in2="effect1_dropShadow_1943_13324" result="shape"/>
</filter>
<clipPath id="clip0_1943_13324">
<rect width="38.4426" height="41.0039" fill="white" transform="translate(37.7793 17)"/>
</clipPath>
</defs>
</svg>
