<svg width="114" height="115" viewBox="0 0 114 115" fill="none" xmlns="http://www.w3.org/2000/svg">
<g filter="url(#filter0_d_1943_13371)">
<rect x="7" width="100" height="100" rx="8" fill="white" shape-rendering="crispEdges"/>
<path d="M65.4082 32.492C65.3393 32.2563 65.1622 32.0639 64.9268 31.9778C64.8793 31.9605 64.4942 31.8243 63.8961 31.7368C66.4513 29.0179 65.6077 25.8414 65.4082 25.221C65.3393 24.9853 65.1622 24.7929 64.9268 24.7068C64.8171 24.6666 62.9046 23.9923 60.7256 24.7506C60.8486 24.2459 60.9206 23.691 60.9206 23.0821C60.9206 19.1864 57.9705 17.4741 57.3785 17.1701C57.1631 17.0521 56.9016 17.0414 56.6744 17.147C56.5279 17.215 53.0863 18.8621 53.0863 23.0821C53.0863 23.6922 53.1586 24.2483 53.2821 24.7538C51.0993 23.9904 49.1816 24.6666 49.0718 24.7068C48.8364 24.7929 48.6593 24.9853 48.5903 25.221C48.3909 25.8414 47.5473 29.0179 50.1025 31.7368C49.5044 31.8243 49.1193 31.9605 49.0718 31.9778C48.8364 32.0639 48.6592 32.2564 48.5903 32.492C48.3867 33.1254 47.5112 36.4224 50.266 39.1772C51.8601 40.7713 53.6295 41.1516 54.955 41.1516C55.4458 41.1516 55.8748 41.0994 56.2125 41.0374V46.1491C56.2125 46.5805 56.5622 46.9303 56.9937 46.9303C57.4252 46.9303 57.7749 46.5805 57.7749 46.1491V41.0354C58.1142 41.0982 58.5474 41.1516 59.0435 41.1516C60.369 41.1516 62.1385 40.7711 63.7325 39.1771C66.4873 36.4223 65.6118 33.1253 65.4082 32.492ZM56.2125 38.6021C56.1951 38.9566 56.1454 39.2547 56.0978 39.469C55.2628 39.6545 53.1735 39.875 51.3709 38.0723C49.5954 36.297 49.7815 34.2423 49.978 33.3458C50.5031 33.2316 51.5277 33.1044 52.662 33.4726C52.7367 33.5005 52.8111 33.5269 52.8852 33.5515C53.4859 33.7793 54.1097 34.1512 54.7008 34.7423C55.8273 35.8687 56.1637 37.107 56.2125 38.0808V38.6021ZM56.2125 31.3311C56.1951 31.6857 56.1454 31.9838 56.0978 32.198C55.5804 32.3131 54.5815 32.4408 53.4677 32.0932C53.3549 32.0496 53.2426 32.01 53.1311 31.9742C52.5485 31.744 51.9451 31.3756 51.3708 30.8013C49.5954 29.0259 49.7815 26.9713 49.978 26.0749C50.8123 25.8935 52.9074 25.678 54.7008 27.4714C54.7122 27.4828 54.7225 27.4943 54.7337 27.5056C54.8022 27.5825 54.871 27.656 54.9396 27.7266C55.8747 28.7821 56.1673 29.9091 56.2125 30.8099V31.3311ZM57.0047 27.4114C56.7599 27.2544 56.4071 26.9956 56.0487 26.6215C56.0122 26.5814 55.9752 26.5413 55.9373 26.5014C55.2845 25.7764 54.6487 24.6641 54.6487 23.0821C54.6487 20.5355 56.2783 19.2143 56.9995 18.7543C57.7718 19.2485 59.3581 20.5697 59.3581 23.0821C59.3581 24.575 58.7979 25.6462 58.1891 26.3702C58.0626 26.497 57.9441 26.6249 57.8325 26.7535C57.5202 27.0572 57.221 27.2736 57.0047 27.4114ZM57.7798 31.078C57.7787 30.1608 58.0159 28.9471 58.9873 27.8073C59.1024 27.6929 59.2181 27.5699 59.3328 27.4376C61.1254 25.6743 63.1904 25.8897 64.0202 26.0733C64.2168 26.969 64.4041 29.0249 62.6276 30.8013C62.0544 31.3747 61.4522 31.7428 60.8706 31.9731C60.7572 32.0095 60.6431 32.0497 60.5283 32.094C59.4146 32.4411 58.4164 32.3129 57.901 32.1982C57.8432 31.9378 57.782 31.5554 57.7797 31.0979C57.7797 31.0912 57.7798 31.0846 57.7798 31.078ZM62.6276 38.0723C60.8247 39.8753 58.7354 39.6544 57.9023 39.4696C57.7206 38.6385 57.501 36.5389 59.2977 34.7423C59.8725 34.1674 60.4763 33.7989 61.0594 33.5688C61.1707 33.533 61.2826 33.4936 61.3952 33.4502C62.5065 33.1033 63.5032 33.2299 64.0202 33.3442C64.2168 34.2399 64.4041 36.2959 62.6276 38.0723Z" fill="black" stroke="black" stroke-width="0.6"/>
<path d="M61.1675 12.4352C59.8058 12.1465 58.4034 12 56.9993 12C51.6573 12 46.635 14.0802 42.8577 17.8577C39.0803 21.635 37 26.6573 37 31.9993C37 36.4505 38.4976 40.7956 41.2261 44.2942C40.9192 44.769 40.7539 45.3221 40.7539 45.901C40.7539 46.694 41.0627 47.4394 41.6234 48.0002C42.1841 48.5608 42.9296 48.8697 43.7226 48.8697C44.5155 48.8697 45.261 48.5608 45.8217 48.0002C46.3825 47.4394 46.6912 46.694 46.6912 45.901C46.6912 45.1081 46.3824 44.3626 45.8217 43.8019C45.261 43.2411 44.5155 42.9323 43.7226 42.9323C43.2526 42.9323 42.7996 43.0416 42.3915 43.2467C39.9188 40.0369 38.5624 36.0664 38.5624 31.9993C38.5624 21.8332 46.8332 13.5624 56.9993 13.5624C58.2947 13.5624 59.588 13.6974 60.8434 13.9637C61.2657 14.0531 61.6802 13.7835 61.7697 13.3615C61.8592 12.9394 61.5896 12.5247 61.1675 12.4352ZM42.7282 44.9066C43.0024 44.6324 43.3624 44.4954 43.7226 44.4954C44.0827 44.4954 44.4428 44.6325 44.7169 44.9066C44.9825 45.1721 45.1288 45.5253 45.1288 45.9009C45.1288 46.2766 44.9825 46.6297 44.7169 46.8953C44.1686 47.4437 43.2765 47.4435 42.7282 46.8953C42.4626 46.6297 42.3164 46.2766 42.3164 45.9009C42.3164 45.5253 42.4626 45.1722 42.7282 44.9066Z" fill="black" stroke="black" stroke-width="0.6"/>
<path d="M72.7725 19.7044C73.0795 19.2295 73.2447 18.6764 73.2447 18.0975C73.2447 17.3046 72.9359 16.5591 72.3752 15.9984C71.8145 15.4376 71.069 15.1289 70.2761 15.1289C69.4831 15.1289 68.7376 15.4377 68.1769 15.9984C67.6162 16.5591 67.3074 17.3046 67.3074 18.0975C67.3074 18.8905 67.6162 19.636 68.1769 20.1967C68.7376 20.7574 69.4831 21.0662 70.2761 21.0662C70.7461 21.0662 71.1991 20.9569 71.6072 20.7517C74.0798 23.9617 75.4362 27.9322 75.4362 31.9993C75.4362 42.1654 67.1655 50.4361 56.9994 50.4361C55.9057 50.4361 54.81 50.3397 53.7426 50.1495C53.3181 50.0739 52.9121 50.3567 52.8365 50.7816C52.7608 51.2063 53.0437 51.612 53.4685 51.6877C54.6262 51.894 55.8141 51.9986 56.9994 51.9986C62.3414 51.9986 67.3636 49.9183 71.141 46.141C74.9185 42.3637 76.9986 37.3413 76.9986 31.9993C76.9986 27.5481 75.501 23.203 72.7725 19.7044ZM71.2705 19.0919C71.0049 19.3575 70.6518 19.5037 70.2761 19.5037C69.9005 19.5037 69.5473 19.3576 69.2818 19.0919C68.7335 18.5436 68.7335 17.6515 69.2818 17.1032C69.5473 16.8376 69.9005 16.6913 70.2761 16.6913C70.6518 16.6913 71.0049 16.8376 71.2705 17.1032C71.5361 17.3687 71.6823 17.7219 71.6823 18.0975C71.6823 18.4732 71.5361 18.8263 71.2705 19.0919Z" fill="black" stroke="black" stroke-width="0.6"/>
<path d="M50.135 49.1165L49.84 49.84L50.1329 49.1157C49.7326 48.9541 49.2775 49.1472 49.1157 49.5472C48.954 49.9472 49.1472 50.4026 49.5472 50.5644L49.5714 50.5739C49.6635 50.6091 49.7583 50.6258 49.8516 50.6258C50.1663 50.6258 50.4637 50.4354 50.5828 50.1247C50.7372 49.7216 50.538 49.2708 50.135 49.1165Z" fill="black" stroke="black" stroke-width="0.6"/>
<path d="M64.486 13.4484L64.4721 13.4428C64.0715 13.2825 63.6168 13.4774 63.4565 13.8781C63.2962 14.2787 63.4911 14.7332 63.8917 14.8935L63.9006 14.8971C63.9966 14.9359 64.0956 14.9542 64.1931 14.9542C64.5021 14.9542 64.7948 14.7696 64.9177 14.4654C65.0793 14.0653 64.886 13.61 64.486 13.4484Z" fill="black" stroke="black" stroke-width="0.6"/>
<path d="M26.5581 72.998L30.5621 63.198H31.8081L27.7481 72.998H26.5581ZM26.4321 72.998L22.3721 63.198H23.6181L27.6081 72.998H26.4321ZM35.4386 73.166C34.7572 73.166 34.1552 73.012 33.6326 72.704C33.1099 72.3867 32.6992 71.9527 32.4006 71.402C32.1112 70.8514 31.9666 70.2167 31.9666 69.498C31.9666 68.7794 32.1112 68.1447 32.4006 67.594C32.6992 67.0434 33.1052 66.614 33.6186 66.306C34.1412 65.9887 34.7386 65.83 35.4106 65.83C36.0546 65.83 36.6146 65.9934 37.0906 66.32C37.5759 66.6374 37.9492 67.0854 38.2106 67.664C38.4719 68.2427 38.6026 68.924 38.6026 69.708H37.4826C37.4826 69.1107 37.4032 68.602 37.2446 68.182C37.0859 67.7527 36.8479 67.4214 36.5306 67.188C36.2226 66.9547 35.8446 66.838 35.3966 66.838C34.9392 66.838 34.5332 66.95 34.1786 67.174C33.8332 67.3887 33.5672 67.6967 33.3806 68.098C33.1939 68.4994 33.1006 68.9707 33.1006 69.512C33.1006 70.044 33.2032 70.506 33.4086 70.898C33.6139 71.2807 33.8986 71.584 34.2626 71.808C34.6266 72.0227 35.0372 72.13 35.4946 72.13C35.9799 72.13 36.3906 72.0134 36.7266 71.78C37.0626 71.5467 37.3286 71.2434 37.5246 70.87L38.5046 71.36C38.3272 71.724 38.0892 72.0414 37.7906 72.312C37.5012 72.5827 37.1559 72.7927 36.7546 72.942C36.3626 73.0914 35.9239 73.166 35.4386 73.166ZM32.7086 69.708L32.7226 68.742H37.9166V69.708H32.7086ZM42.8152 75.966C42.3672 75.966 41.9565 75.9194 41.5832 75.826C41.2192 75.742 40.9065 75.644 40.6452 75.532C40.3932 75.4294 40.2112 75.3407 40.0992 75.266L40.5192 74.356C40.6405 74.4214 40.8132 74.5007 41.0372 74.594C41.2612 74.6967 41.5225 74.7807 41.8212 74.846C42.1292 74.9207 42.4558 74.958 42.8012 74.958C43.2492 74.958 43.6505 74.8647 44.0052 74.678C44.3692 74.5007 44.6492 74.216 44.8452 73.824C45.0505 73.4414 45.1532 72.9467 45.1532 72.34V65.998H46.2732V72.326C46.2732 73.1287 46.1238 73.8007 45.8252 74.342C45.5265 74.8834 45.1158 75.2894 44.5932 75.56C44.0705 75.8307 43.4778 75.966 42.8152 75.966ZM42.7732 72.942C42.1478 72.942 41.5972 72.7927 41.1212 72.494C40.6452 72.1954 40.2718 71.78 40.0012 71.248C39.7398 70.7067 39.6092 70.0907 39.6092 69.4C39.6092 68.6907 39.7398 68.07 40.0012 67.538C40.2718 66.9967 40.6452 66.5767 41.1212 66.278C41.5972 65.9794 42.1478 65.83 42.7732 65.83C43.3612 65.83 43.8745 65.9794 44.3132 66.278C44.7518 66.5767 45.0925 66.9967 45.3352 67.538C45.5872 68.07 45.7132 68.6907 45.7132 69.4C45.7132 70.1 45.5872 70.716 45.3352 71.248C45.0925 71.78 44.7518 72.1954 44.3132 72.494C43.8745 72.7927 43.3612 72.942 42.7732 72.942ZM43.0392 71.976C43.4498 71.976 43.8138 71.864 44.1312 71.64C44.4485 71.416 44.6958 71.1127 44.8732 70.73C45.0505 70.338 45.1392 69.8854 45.1392 69.372C45.1392 68.8774 45.0458 68.4387 44.8592 68.056C44.6818 67.664 44.4345 67.3607 44.1172 67.146C43.8092 66.922 43.4452 66.81 43.0252 66.81C42.5865 66.81 42.1945 66.922 41.8492 67.146C41.5132 67.3607 41.2472 67.664 41.0512 68.056C40.8645 68.4387 40.7712 68.8774 40.7712 69.372C40.7712 69.8854 40.8692 70.338 41.0652 70.73C41.2612 71.1127 41.5272 71.416 41.8632 71.64C42.2085 71.864 42.6005 71.976 43.0392 71.976ZM51.298 73.166C50.6166 73.166 50.0146 73.012 49.492 72.704C48.9693 72.3867 48.5586 71.9527 48.26 71.402C47.9706 70.8514 47.826 70.2167 47.826 69.498C47.826 68.7794 47.9706 68.1447 48.26 67.594C48.5586 67.0434 48.9646 66.614 49.478 66.306C50.0006 65.9887 50.598 65.83 51.27 65.83C51.914 65.83 52.474 65.9934 52.95 66.32C53.4353 66.6374 53.8086 67.0854 54.07 67.664C54.3313 68.2427 54.462 68.924 54.462 69.708H53.342C53.342 69.1107 53.2626 68.602 53.104 68.182C52.9453 67.7527 52.7073 67.4214 52.39 67.188C52.082 66.9547 51.704 66.838 51.256 66.838C50.7986 66.838 50.3926 66.95 50.038 67.174C49.6926 67.3887 49.4266 67.6967 49.24 68.098C49.0533 68.4994 48.96 68.9707 48.96 69.512C48.96 70.044 49.0626 70.506 49.268 70.898C49.4733 71.2807 49.758 71.584 50.122 71.808C50.486 72.0227 50.8966 72.13 51.354 72.13C51.8393 72.13 52.25 72.0134 52.586 71.78C52.922 71.5467 53.188 71.2434 53.384 70.87L54.364 71.36C54.1866 71.724 53.9486 72.0414 53.65 72.312C53.3606 72.5827 53.0153 72.7927 52.614 72.942C52.222 73.0914 51.7833 73.166 51.298 73.166ZM48.568 69.708L48.582 68.742H53.776V69.708H48.568ZM58.5065 73.166C57.8252 73.166 57.2979 72.9887 56.9245 72.634C56.5512 72.2794 56.3645 71.78 56.3645 71.136V63.814H57.4845V71.024C57.4845 71.3787 57.5779 71.654 57.7645 71.85C57.9605 72.0367 58.2312 72.13 58.5765 72.13C58.6885 72.13 58.7959 72.116 58.8985 72.088C59.0105 72.0507 59.1552 71.9667 59.3325 71.836L59.7665 72.746C59.5239 72.9047 59.3045 73.012 59.1085 73.068C58.9125 73.1334 58.7119 73.166 58.5065 73.166ZM55.1465 66.992V65.998H59.5845V66.992H55.1465ZM65.4365 72.998L65.3665 71.85V69.302C65.3665 68.7514 65.3012 68.2987 65.1705 67.944C65.0492 67.58 64.8579 67.3094 64.5965 67.132C64.3445 66.9454 64.0085 66.852 63.5885 66.852C63.1872 66.852 62.8372 66.9314 62.5385 67.09C62.2492 67.2487 62.0112 67.496 61.8245 67.832L60.8165 67.426C61.0032 67.0994 61.2272 66.8147 61.4885 66.572C61.7499 66.3294 62.0532 66.1474 62.3985 66.026C62.7532 65.8954 63.1545 65.83 63.6025 65.83C64.2465 65.83 64.7832 65.956 65.2125 66.208C65.6419 66.46 65.9639 66.838 66.1785 67.342C66.3932 67.8367 66.4959 68.4574 66.4865 69.204L66.4725 72.998H65.4365ZM63.3365 73.166C62.5152 73.166 61.8712 72.9794 61.4045 72.606C60.9472 72.2234 60.7185 71.696 60.7185 71.024C60.7185 70.3147 60.9519 69.7734 61.4185 69.4C61.8945 69.0174 62.5572 68.826 63.4065 68.826H65.4085V69.764H63.6585C63.0052 69.764 62.5385 69.8714 62.2585 70.086C61.9879 70.3007 61.8525 70.6087 61.8525 71.01C61.8525 71.374 61.9879 71.6634 62.2585 71.878C62.5292 72.0834 62.9072 72.186 63.3925 72.186C63.7939 72.186 64.1439 72.0927 64.4425 71.906C64.7412 71.7194 64.9699 71.4674 65.1285 71.15C65.2872 70.8234 65.3665 70.4547 65.3665 70.044H66.0525C66.0525 70.996 65.8192 71.7567 65.3525 72.326C64.8859 72.886 64.2139 73.166 63.3365 73.166ZM70.8933 73.166C70.2119 73.166 69.6846 72.9887 69.3113 72.634C68.9379 72.2794 68.7513 71.78 68.7513 71.136V63.814H69.8713V71.024C69.8713 71.3787 69.9646 71.654 70.1513 71.85C70.3473 72.0367 70.6179 72.13 70.9633 72.13C71.0753 72.13 71.1826 72.116 71.2853 72.088C71.3973 72.0507 71.5419 71.9667 71.7193 71.836L72.1533 72.746C71.9106 72.9047 71.6913 73.012 71.4953 73.068C71.2993 73.1334 71.0986 73.166 70.8933 73.166ZM67.5333 66.992V65.998H71.9713V66.992H67.5333ZM73.6223 72.998L73.6503 65.998H74.7703L74.7423 72.998H73.6223ZM74.1963 64.374C74.0096 64.374 73.8463 64.304 73.7063 64.164C73.5663 64.024 73.4963 63.8607 73.4963 63.674C73.4963 63.478 73.5663 63.3147 73.7063 63.184C73.8463 63.044 74.0096 62.974 74.1963 62.974C74.3923 62.974 74.5556 63.044 74.6863 63.184C74.8263 63.3147 74.8963 63.478 74.8963 63.674C74.8963 63.8607 74.8263 64.024 74.6863 64.164C74.5556 64.304 74.3923 64.374 74.1963 64.374ZM79.9002 73.166C79.2188 73.166 78.6122 73.012 78.0802 72.704C77.5575 72.3867 77.1468 71.9527 76.8482 71.402C76.5495 70.8514 76.4002 70.2167 76.4002 69.498C76.4002 68.7794 76.5448 68.1447 76.8342 67.594C77.1328 67.0434 77.5435 66.614 78.0662 66.306C78.5982 65.9887 79.2002 65.83 79.8722 65.83C80.5628 65.83 81.1695 65.9887 81.6922 66.306C82.2242 66.614 82.6348 67.0434 82.9242 67.594C83.2228 68.1447 83.3722 68.7794 83.3722 69.498C83.3722 70.2167 83.2228 70.8514 82.9242 71.402C82.6348 71.9527 82.2288 72.3867 81.7062 72.704C81.1835 73.012 80.5815 73.166 79.9002 73.166ZM79.9002 72.13C80.3668 72.13 80.7728 72.018 81.1182 71.794C81.4635 71.57 81.7342 71.262 81.9302 70.87C82.1355 70.478 82.2382 70.0207 82.2382 69.498C82.2382 68.9754 82.1355 68.518 81.9302 68.126C81.7342 67.734 81.4588 67.426 81.1042 67.202C80.7495 66.978 80.3388 66.866 79.8722 66.866C79.4148 66.866 79.0088 66.978 78.6542 67.202C78.3088 67.426 78.0335 67.734 77.8282 68.126C77.6322 68.518 77.5342 68.9754 77.5342 69.498C77.5342 70.0114 77.6322 70.4687 77.8282 70.87C78.0335 71.262 78.3135 71.57 78.6682 71.794C79.0322 72.018 79.4428 72.13 79.9002 72.13ZM84.9273 72.998V65.998H85.9773L86.0473 67.286V72.998H84.9273ZM89.8413 72.998V69.414L90.9613 68.994V72.998H89.8413ZM89.8413 69.414C89.8413 68.7234 89.7619 68.196 89.6033 67.832C89.4446 67.468 89.2253 67.2207 88.9453 67.09C88.6653 66.95 88.3479 66.88 87.9933 66.88C87.3773 66.88 86.8966 67.0994 86.5513 67.538C86.2153 67.9674 86.0473 68.5787 86.0473 69.372H85.5013C85.5013 68.6347 85.6086 68 85.8233 67.468C86.0379 66.936 86.3459 66.53 86.7473 66.25C87.1579 65.97 87.6526 65.83 88.2313 65.83C89.0806 65.83 89.7479 66.0914 90.2333 66.614C90.7279 67.1367 90.9706 67.93 90.9613 68.994L89.8413 69.414ZM35.9006 89.998V80.198H37.0906V89.998H35.9006ZM39.3794 89.998V82.998H40.4294L40.4994 84.286V89.998H39.3794ZM44.2934 89.998V86.414L45.4134 85.994V89.998H44.2934ZM44.2934 86.414C44.2934 85.7234 44.2141 85.196 44.0554 84.832C43.8967 84.468 43.6774 84.2207 43.3974 84.09C43.1174 83.95 42.8001 83.88 42.4454 83.88C41.8294 83.88 41.3487 84.0994 41.0034 84.538C40.6674 84.9674 40.4994 85.5787 40.4994 86.372H39.9534C39.9534 85.6347 40.0607 85 40.2754 84.468C40.4901 83.936 40.7981 83.53 41.1994 83.25C41.6101 82.97 42.1047 82.83 42.6834 82.83C43.5327 82.83 44.2001 83.0914 44.6854 83.614C45.1801 84.1367 45.4227 84.93 45.4134 85.994L44.2934 86.414ZM52.3661 89.998L52.3101 88.696V80.198H53.4301V89.998H52.3661ZM49.9441 90.166C49.3187 90.166 48.7681 90.012 48.2921 89.704C47.8161 89.396 47.4427 88.9667 47.1721 88.416C46.9107 87.856 46.7801 87.2167 46.7801 86.498C46.7801 85.77 46.9107 85.1307 47.1721 84.58C47.4427 84.0294 47.8161 83.6 48.2921 83.292C48.7681 82.984 49.3187 82.83 49.9441 82.83C50.5321 82.83 51.0454 82.984 51.4841 83.292C51.9321 83.6 52.2774 84.0294 52.5201 84.58C52.7627 85.1307 52.8841 85.77 52.8841 86.498C52.8841 87.2167 52.7627 87.856 52.5201 88.416C52.2774 88.9667 51.9321 89.396 51.4841 89.704C51.0454 90.012 50.5321 90.166 49.9441 90.166ZM50.1961 89.144C50.6067 89.144 50.9707 89.032 51.2881 88.808C51.6054 88.584 51.8527 88.2714 52.0301 87.87C52.2167 87.4687 52.3101 87.0114 52.3101 86.498C52.3101 85.9847 52.2167 85.5274 52.0301 85.126C51.8527 84.7247 51.6054 84.412 51.2881 84.188C50.9707 83.964 50.6021 83.852 50.1821 83.852C49.7434 83.852 49.3514 83.964 49.0061 84.188C48.6701 84.412 48.4041 84.7247 48.2081 85.126C48.0121 85.5274 47.9141 85.9847 47.9141 86.498C47.9141 87.0114 48.0121 87.4687 48.2081 87.87C48.4041 88.2714 48.6747 88.584 49.0201 88.808C49.3654 89.032 49.7574 89.144 50.1961 89.144ZM55.4592 89.998L55.4872 82.998H56.6072L56.5792 89.998H55.4592ZM56.0332 81.374C55.8465 81.374 55.6832 81.304 55.5432 81.164C55.4032 81.024 55.3332 80.8607 55.3332 80.674C55.3332 80.478 55.4032 80.3147 55.5432 80.184C55.6832 80.044 55.8465 79.974 56.0332 79.974C56.2292 79.974 56.3925 80.044 56.5232 80.184C56.6632 80.3147 56.7332 80.478 56.7332 80.674C56.7332 80.8607 56.6632 81.024 56.5232 81.164C56.3925 81.304 56.2292 81.374 56.0332 81.374ZM61.7651 90.166C61.0744 90.166 60.4631 90.012 59.9311 89.704C59.3991 89.3867 58.9838 88.9527 58.6851 88.402C58.3864 87.8514 58.2371 87.2167 58.2371 86.498C58.2371 85.7794 58.3818 85.1447 58.6711 84.594C58.9698 84.0434 59.3851 83.614 59.9171 83.306C60.4491 82.9887 61.0558 82.83 61.7371 82.83C62.4091 82.83 63.0111 82.984 63.5431 83.292C64.0751 83.6 64.4811 84.034 64.7611 84.594L63.7391 85.056C63.5524 84.6827 63.2818 84.3934 62.9271 84.188C62.5724 83.9734 62.1664 83.866 61.7091 83.866C61.2518 83.866 60.8458 83.978 60.4911 84.202C60.1458 84.426 59.8704 84.7387 59.6651 85.14C59.4691 85.532 59.3711 85.9847 59.3711 86.498C59.3711 87.0114 59.4691 87.4687 59.6651 87.87C59.8704 88.262 60.1504 88.57 60.5051 88.794C60.8691 89.018 61.2798 89.13 61.7371 89.13C62.1944 89.13 62.6004 89.0134 62.9551 88.78C63.3191 88.5467 63.5944 88.22 63.7811 87.8L64.8031 88.262C64.5231 88.8594 64.1171 89.326 63.5851 89.662C63.0531 89.998 62.4464 90.166 61.7651 90.166ZM69.2833 90.166C68.602 90.166 68 90.012 67.4773 89.704C66.9546 89.3867 66.544 88.9527 66.2453 88.402C65.956 87.8514 65.8113 87.2167 65.8113 86.498C65.8113 85.7794 65.956 85.1447 66.2453 84.594C66.544 84.0434 66.95 83.614 67.4633 83.306C67.986 82.9887 68.5833 82.83 69.2553 82.83C69.8993 82.83 70.4593 82.9934 70.9353 83.32C71.4206 83.6374 71.794 84.0854 72.0553 84.664C72.3166 85.2427 72.4473 85.924 72.4473 86.708H71.3273C71.3273 86.1107 71.248 85.602 71.0893 85.182C70.9306 84.7527 70.6926 84.4214 70.3753 84.188C70.0673 83.9547 69.6893 83.838 69.2413 83.838C68.784 83.838 68.378 83.95 68.0233 84.174C67.678 84.3887 67.412 84.6967 67.2253 85.098C67.0386 85.4994 66.9453 85.9707 66.9453 86.512C66.9453 87.044 67.048 87.506 67.2533 87.898C67.4586 88.2807 67.7433 88.584 68.1073 88.808C68.4713 89.0227 68.882 89.13 69.3393 89.13C69.8246 89.13 70.2353 89.0134 70.5713 88.78C70.9073 88.5467 71.1733 88.2434 71.3693 87.87L72.3493 88.36C72.172 88.724 71.934 89.0414 71.6353 89.312C71.346 89.5827 71.0006 89.7927 70.5993 89.942C70.2073 90.0914 69.7686 90.166 69.2833 90.166ZM66.5533 86.708L66.5673 85.742H71.7613V86.708H66.5533ZM76.3099 90.166C75.7965 90.166 75.3485 90.0914 74.9659 89.942C74.5832 89.7834 74.2612 89.578 73.9999 89.326C73.7479 89.074 73.5659 88.7987 73.4539 88.5L74.4339 88.094C74.5925 88.4114 74.8305 88.668 75.1479 88.864C75.4652 89.06 75.8152 89.158 76.1979 89.158C76.6365 89.158 77.0052 89.074 77.3039 88.906C77.6025 88.7287 77.7519 88.4814 77.7519 88.164C77.7519 87.8747 77.6399 87.6414 77.4159 87.464C77.2012 87.2867 76.8792 87.142 76.4499 87.03L75.7779 86.848C75.1432 86.68 74.6485 86.428 74.2939 86.092C73.9392 85.7467 73.7619 85.3594 73.7619 84.93C73.7619 84.2674 73.9765 83.754 74.4059 83.39C74.8445 83.0167 75.4932 82.83 76.3519 82.83C76.7625 82.83 77.1359 82.8907 77.4719 83.012C77.8079 83.1334 78.0972 83.306 78.3399 83.53C78.5825 83.7447 78.7599 84.0014 78.8719 84.3L77.8919 84.734C77.7705 84.4167 77.5699 84.188 77.2899 84.048C77.0099 83.908 76.6692 83.838 76.2679 83.838C75.8385 83.838 75.5025 83.9314 75.2599 84.118C75.0172 84.2954 74.8959 84.5474 74.8959 84.874C74.8959 85.0607 74.9939 85.238 75.1899 85.406C75.3952 85.5647 75.6939 85.6954 76.0859 85.798L76.7859 85.98C77.2432 86.092 77.6259 86.26 77.9339 86.484C78.2419 86.6987 78.4752 86.946 78.6339 87.226C78.7925 87.506 78.8719 87.8047 78.8719 88.122C78.8719 88.542 78.7599 88.906 78.5359 89.214C78.3119 89.522 78.0085 89.76 77.6259 89.928C77.2432 90.0867 76.8045 90.166 76.3099 90.166Z" fill="black"/>
<rect x="7.62483" y="0.624831" width="98.7503" height="98.7503" rx="7.37517" stroke="#F2F2F2" stroke-width="1.24966" shape-rendering="crispEdges"/>
</g>
<defs>
<filter id="filter0_d_1943_13371" x="0.997293" y="0" width="112.005" height="114.003" filterUnits="userSpaceOnUse" color-interpolation-filters="sRGB">
<feFlood flood-opacity="0" result="BackgroundImageFix"/>
<feColorMatrix in="SourceAlpha" type="matrix" values="0 0 0 0 0 0 0 0 0 0 0 0 0 0 0 0 0 0 127 0" result="hardAlpha"/>
<feMorphology radius="9.99729" operator="erode" in="SourceAlpha" result="effect1_dropShadow_1943_13371"/>
<feOffset dy="8"/>
<feGaussianBlur stdDeviation="8"/>
<feComposite in2="hardAlpha" operator="out"/>
<feColorMatrix type="matrix" values="0 0 0 0 0 0 0 0 0 0 0 0 0 0 0 0 0 0 0.08 0"/>
<feBlend mode="normal" in2="BackgroundImageFix" result="effect1_dropShadow_1943_13371"/>
<feBlend mode="normal" in="SourceGraphic" in2="effect1_dropShadow_1943_13371" result="shape"/>
</filter>
</defs>
</svg>
