<svg width="114" height="115" viewBox="0 0 114 115" fill="none" xmlns="http://www.w3.org/2000/svg">
<g filter="url(#filter0_d_1943_13333)">
<rect x="7" width="100" height="100" rx="8" fill="white" shape-rendering="crispEdges"/>
<path d="M38.25 49.5H75.75V50.75H38.25V49.5Z" fill="black"/>
<path d="M70.125 15.75C68.9188 15.75 67.9375 16.7313 67.9375 17.9375H69.1875C69.1875 17.4188 69.6063 17 70.125 17C70.6437 17 71.0625 17.4188 71.0625 17.9375C71.0625 18.4562 70.6437 18.875 70.125 18.875C69.7812 18.875 69.5 19.1562 69.5 19.5V21.0625H70.75V20.0312C71.65 19.7625 72.3125 18.925 72.3125 17.9375C72.3125 16.7313 71.3312 15.75 70.125 15.75Z" fill="black"/>
<path d="M69.5 22H70.75V23.25H69.5V22Z" fill="black"/>
<path d="M59.5 37H63.25V48.25H59.5V37Z" fill="black"/>
<path d="M50.75 33.25H54.5V48.25H50.75V33.25Z" fill="black"/>
<path d="M42 40.125H45.75V48.25H42V40.125Z" fill="black"/>
<path d="M51.5242 27.0688L59.9555 29.475C60.1742 29.5375 60.4117 29.475 60.568 29.3187L64.318 25.5687L63.4367 24.6875L59.9492 28.175L51.5555 25.775C51.3555 25.7188 51.1367 25.7625 50.9805 25.9L42.8555 32.775L43.6617 33.7313L51.5305 27.0688H51.5242Z" fill="black"/>
<path d="M68.25 28.7313V30.5L70.5 28.25H68.7313L68.25 28.7313Z" fill="black"/>
<path d="M68.25 37.5691L72 33.8191V32.0566L68.25 35.8066V37.5691Z" fill="black"/>
<path d="M68.25 34.0383L72 30.2883V28.5195L68.25 32.2695V34.0383Z" fill="black"/>
<path d="M68.25 44.6437L72 40.8937V39.125L68.25 42.875V44.6437Z" fill="black"/>
<path d="M68.25 41.1066L72 37.3566V35.5879L68.25 39.3379V41.1066Z" fill="black"/>
<path d="M71.9996 47.9621V46.1934L69.9434 48.2496H71.7121L71.9996 47.9621Z" fill="black"/>
<path d="M68.25 48.1746L72 44.4246V42.6621L68.25 46.4121V48.1746Z" fill="black"/>
<path d="M70.125 13.25C66.6812 13.25 63.875 16.0562 63.875 19.5C63.875 22.9438 66.6812 25.75 70.125 25.75C73.5688 25.75 76.375 22.9438 76.375 19.5C76.375 16.0562 73.5688 13.25 70.125 13.25ZM70.125 24.5C67.3688 24.5 65.125 22.2563 65.125 19.5C65.125 16.7438 67.3688 14.5 70.125 14.5C72.8813 14.5 75.125 16.7438 75.125 19.5C75.125 22.2563 72.8813 24.5 70.125 24.5Z" fill="black"/>
<path d="M21.3948 73V63.2H22.5848V73H21.3948ZM22.4728 68.702V67.624H26.6728V68.702H22.4728ZM22.4728 64.278V63.2H27.2188V64.278H22.4728ZM31.6863 73.168C31.005 73.168 30.3983 73.014 29.8663 72.706C29.3436 72.3887 28.933 71.9547 28.6343 71.404C28.3356 70.8533 28.1863 70.2187 28.1863 69.5C28.1863 68.7813 28.331 68.1467 28.6203 67.596C28.919 67.0453 29.3296 66.616 29.8523 66.308C30.3843 65.9907 30.9863 65.832 31.6583 65.832C32.349 65.832 32.9556 65.9907 33.4783 66.308C34.0103 66.616 34.421 67.0453 34.7103 67.596C35.009 68.1467 35.1583 68.7813 35.1583 69.5C35.1583 70.2187 35.009 70.8533 34.7103 71.404C34.421 71.9547 34.015 72.3887 33.4923 72.706C32.9696 73.014 32.3676 73.168 31.6863 73.168ZM31.6863 72.132C32.153 72.132 32.559 72.02 32.9043 71.796C33.2496 71.572 33.5203 71.264 33.7163 70.872C33.9216 70.48 34.0243 70.0227 34.0243 69.5C34.0243 68.9773 33.9216 68.52 33.7163 68.128C33.5203 67.736 33.245 67.428 32.8903 67.204C32.5356 66.98 32.125 66.868 31.6583 66.868C31.201 66.868 30.795 66.98 30.4403 67.204C30.095 67.428 29.8196 67.736 29.6143 68.128C29.4183 68.52 29.3203 68.9773 29.3203 69.5C29.3203 70.0133 29.4183 70.4707 29.6143 70.872C29.8196 71.264 30.0996 71.572 30.4543 71.796C30.8183 72.02 31.229 72.132 31.6863 72.132ZM37.3294 69.206C37.3294 68.45 37.4741 67.8387 37.7634 67.372C38.0527 66.896 38.4214 66.546 38.8694 66.322C39.3267 66.0887 39.8074 65.972 40.3114 65.972V67.022C39.9007 67.022 39.5041 67.092 39.1214 67.232C38.7481 67.3627 38.4401 67.582 38.1974 67.89C37.9547 68.198 37.8334 68.618 37.8334 69.15L37.3294 69.206ZM36.7134 73V66H37.8334V73H36.7134ZM44.5099 73.168C43.8285 73.168 43.2265 73.014 42.7039 72.706C42.1812 72.3887 41.7705 71.9547 41.4719 71.404C41.1825 70.8533 41.0379 70.2187 41.0379 69.5C41.0379 68.7813 41.1825 68.1467 41.4719 67.596C41.7705 67.0453 42.1765 66.616 42.6899 66.308C43.2125 65.9907 43.8099 65.832 44.4819 65.832C45.1259 65.832 45.6859 65.9953 46.1619 66.322C46.6472 66.6393 47.0205 67.0873 47.2819 67.666C47.5432 68.2447 47.6739 68.926 47.6739 69.71H46.5539C46.5539 69.1127 46.4745 68.604 46.3159 68.184C46.1572 67.7547 45.9192 67.4233 45.6019 67.19C45.2939 66.9567 44.9159 66.84 44.4679 66.84C44.0105 66.84 43.6045 66.952 43.2499 67.176C42.9045 67.3907 42.6385 67.6987 42.4519 68.1C42.2652 68.5013 42.1719 68.9727 42.1719 69.514C42.1719 70.046 42.2745 70.508 42.4799 70.9C42.6852 71.2827 42.9699 71.586 43.3339 71.81C43.6979 72.0247 44.1085 72.132 44.5659 72.132C45.0512 72.132 45.4619 72.0153 45.7979 71.782C46.1339 71.5487 46.3999 71.2453 46.5959 70.872L47.5759 71.362C47.3985 71.726 47.1605 72.0433 46.8619 72.314C46.5725 72.5847 46.2272 72.7947 45.8259 72.944C45.4339 73.0933 44.9952 73.168 44.5099 73.168ZM41.7799 69.71L41.7939 68.744H46.9879V69.71H41.7799ZM52.2084 73.168C51.5178 73.168 50.9064 73.014 50.3744 72.706C49.8424 72.3887 49.4271 71.9547 49.1284 71.404C48.8298 70.8533 48.6804 70.2187 48.6804 69.5C48.6804 68.7813 48.8251 68.1467 49.1144 67.596C49.4131 67.0453 49.8284 66.616 50.3604 66.308C50.8924 65.9907 51.4991 65.832 52.1804 65.832C52.8524 65.832 53.4544 65.986 53.9864 66.294C54.5184 66.602 54.9244 67.036 55.2044 67.596L54.1824 68.058C53.9958 67.6847 53.7251 67.3953 53.3704 67.19C53.0158 66.9753 52.6098 66.868 52.1524 66.868C51.6951 66.868 51.2891 66.98 50.9344 67.204C50.5891 67.428 50.3138 67.7407 50.1084 68.142C49.9124 68.534 49.8144 68.9867 49.8144 69.5C49.8144 70.0133 49.9124 70.4707 50.1084 70.872C50.3138 71.264 50.5938 71.572 50.9484 71.796C51.3124 72.02 51.7231 72.132 52.1804 72.132C52.6378 72.132 53.0438 72.0153 53.3984 71.782C53.7624 71.5487 54.0378 71.222 54.2244 70.802L55.2464 71.264C54.9664 71.8613 54.5604 72.328 54.0284 72.664C53.4964 73 52.8898 73.168 52.2084 73.168ZM60.9727 73L60.9027 71.852V69.304C60.9027 68.7533 60.8373 68.3007 60.7067 67.946C60.5853 67.582 60.394 67.3113 60.1327 67.134C59.8807 66.9473 59.5447 66.854 59.1247 66.854C58.7233 66.854 58.3733 66.9333 58.0747 67.092C57.7853 67.2507 57.5473 67.498 57.3607 67.834L56.3527 67.428C56.5393 67.1013 56.7633 66.8167 57.0247 66.574C57.286 66.3313 57.5893 66.1493 57.9347 66.028C58.2893 65.8973 58.6907 65.832 59.1387 65.832C59.7827 65.832 60.3193 65.958 60.7487 66.21C61.178 66.462 61.5 66.84 61.7147 67.344C61.9293 67.8387 62.032 68.4593 62.0227 69.206L62.0087 73H60.9727ZM58.8727 73.168C58.0513 73.168 57.4073 72.9813 56.9407 72.608C56.4833 72.2253 56.2547 71.698 56.2547 71.026C56.2547 70.3167 56.488 69.7753 56.9547 69.402C57.4307 69.0193 58.0933 68.828 58.9427 68.828H60.9447V69.766H59.1947C58.5413 69.766 58.0747 69.8733 57.7947 70.088C57.524 70.3027 57.3887 70.6107 57.3887 71.012C57.3887 71.376 57.524 71.6653 57.7947 71.88C58.0653 72.0853 58.4433 72.188 58.9287 72.188C59.33 72.188 59.68 72.0947 59.9787 71.908C60.2773 71.7213 60.506 71.4693 60.6647 71.152C60.8233 70.8253 60.9027 70.4567 60.9027 70.046H61.5887C61.5887 70.998 61.3553 71.7587 60.8887 72.328C60.422 72.888 59.75 73.168 58.8727 73.168ZM66.2474 73.168C65.734 73.168 65.286 73.0933 64.9034 72.944C64.5207 72.7853 64.1987 72.58 63.9374 72.328C63.6854 72.076 63.5034 71.8007 63.3914 71.502L64.3714 71.096C64.53 71.4133 64.768 71.67 65.0854 71.866C65.4027 72.062 65.7527 72.16 66.1354 72.16C66.574 72.16 66.9427 72.076 67.2414 71.908C67.54 71.7307 67.6894 71.4833 67.6894 71.166C67.6894 70.8767 67.5774 70.6433 67.3534 70.466C67.1387 70.2887 66.8167 70.144 66.3874 70.032L65.7154 69.85C65.0807 69.682 64.586 69.43 64.2314 69.094C63.8767 68.7487 63.6994 68.3613 63.6994 67.932C63.6994 67.2693 63.914 66.756 64.3434 66.392C64.782 66.0187 65.4307 65.832 66.2894 65.832C66.7 65.832 67.0734 65.8927 67.4094 66.014C67.7454 66.1353 68.0347 66.308 68.2774 66.532C68.52 66.7467 68.6974 67.0033 68.8094 67.302L67.8294 67.736C67.708 67.4187 67.5074 67.19 67.2274 67.05C66.9474 66.91 66.6067 66.84 66.2054 66.84C65.776 66.84 65.44 66.9333 65.1974 67.12C64.9547 67.2973 64.8334 67.5493 64.8334 67.876C64.8334 68.0627 64.9314 68.24 65.1274 68.408C65.3327 68.5667 65.6314 68.6973 66.0234 68.8L66.7234 68.982C67.1807 69.094 67.5634 69.262 67.8714 69.486C68.1794 69.7007 68.4127 69.948 68.5714 70.228C68.73 70.508 68.8094 70.8067 68.8094 71.124C68.8094 71.544 68.6974 71.908 68.4734 72.216C68.2494 72.524 67.946 72.762 67.5634 72.93C67.1807 73.0887 66.742 73.168 66.2474 73.168ZM72.9509 73.168C72.2695 73.168 71.7422 72.9907 71.3689 72.636C70.9955 72.2813 70.8089 71.782 70.8089 71.138V63.816H71.9289V71.026C71.9289 71.3807 72.0222 71.656 72.2089 71.852C72.4049 72.0387 72.6755 72.132 73.0209 72.132C73.1329 72.132 73.2402 72.118 73.3429 72.09C73.4549 72.0527 73.5995 71.9687 73.7769 71.838L74.2109 72.748C73.9682 72.9067 73.7489 73.014 73.5529 73.07C73.3569 73.1353 73.1562 73.168 72.9509 73.168ZM69.5909 66.994V66H74.0289V66.994H69.5909ZM75.6799 73L75.7079 66H76.8279L76.7999 73H75.6799ZM76.2539 64.376C76.0672 64.376 75.9039 64.306 75.7639 64.166C75.6239 64.026 75.5539 63.8627 75.5539 63.676C75.5539 63.48 75.6239 63.3167 75.7639 63.186C75.9039 63.046 76.0672 62.976 76.2539 62.976C76.4499 62.976 76.6132 63.046 76.7439 63.186C76.8839 63.3167 76.9539 63.48 76.9539 63.676C76.9539 63.8627 76.8839 64.026 76.7439 64.166C76.6132 64.306 76.4499 64.376 76.2539 64.376ZM78.8638 73V66H79.9138L79.9838 67.288V73H78.8638ZM83.7778 73V69.416L84.8978 68.996V73H83.7778ZM83.7778 69.416C83.7778 68.7253 83.6985 68.198 83.5398 67.834C83.3811 67.47 83.1618 67.2227 82.8818 67.092C82.6018 66.952 82.2845 66.882 81.9298 66.882C81.3138 66.882 80.8331 67.1013 80.4878 67.54C80.1518 67.9693 79.9838 68.5807 79.9838 69.374H79.4378C79.4378 68.6367 79.5451 68.002 79.7598 67.47C79.9745 66.938 80.2825 66.532 80.6838 66.252C81.0945 65.972 81.5891 65.832 82.1678 65.832C83.0171 65.832 83.6845 66.0933 84.1698 66.616C84.6645 67.1387 84.9071 67.932 84.8978 68.996L83.7778 69.416ZM89.4704 75.968C89.0224 75.968 88.6118 75.9213 88.2384 75.828C87.8744 75.744 87.5618 75.646 87.3004 75.534C87.0484 75.4313 86.8664 75.3427 86.7544 75.268L87.1744 74.358C87.2958 74.4233 87.4684 74.5027 87.6924 74.596C87.9164 74.6987 88.1778 74.7827 88.4764 74.848C88.7844 74.9227 89.1111 74.96 89.4564 74.96C89.9044 74.96 90.3058 74.8667 90.6604 74.68C91.0244 74.5027 91.3044 74.218 91.5004 73.826C91.7058 73.4433 91.8084 72.9487 91.8084 72.342V66H92.9284V72.328C92.9284 73.1307 92.7791 73.8027 92.4804 74.344C92.1818 74.8853 91.7711 75.2913 91.2484 75.562C90.7258 75.8327 90.1331 75.968 89.4704 75.968ZM89.4284 72.944C88.8031 72.944 88.2524 72.7947 87.7764 72.496C87.3004 72.1973 86.9271 71.782 86.6564 71.25C86.3951 70.7087 86.2644 70.0927 86.2644 69.402C86.2644 68.6927 86.3951 68.072 86.6564 67.54C86.9271 66.9987 87.3004 66.5787 87.7764 66.28C88.2524 65.9813 88.8031 65.832 89.4284 65.832C90.0164 65.832 90.5298 65.9813 90.9684 66.28C91.4071 66.5787 91.7478 66.9987 91.9904 67.54C92.2424 68.072 92.3684 68.6927 92.3684 69.402C92.3684 70.102 92.2424 70.718 91.9904 71.25C91.7478 71.782 91.4071 72.1973 90.9684 72.496C90.5298 72.7947 90.0164 72.944 89.4284 72.944ZM89.6944 71.978C90.1051 71.978 90.4691 71.866 90.7864 71.642C91.1038 71.418 91.3511 71.1147 91.5284 70.732C91.7058 70.34 91.7944 69.8873 91.7944 69.374C91.7944 68.8793 91.7011 68.4407 91.5144 68.058C91.3371 67.666 91.0898 67.3627 90.7724 67.148C90.4644 66.924 90.1004 66.812 89.6804 66.812C89.2418 66.812 88.8498 66.924 88.5044 67.148C88.1684 67.3627 87.9024 67.666 87.7064 68.058C87.5198 68.4407 87.4264 68.8793 87.4264 69.374C87.4264 69.8873 87.5244 70.34 87.7204 70.732C87.9164 71.1147 88.1824 71.418 88.5184 71.642C88.8638 71.866 89.2558 71.978 89.6944 71.978Z" fill="black"/>
<rect x="7.62483" y="0.624831" width="98.7503" height="98.7503" rx="7.37517" stroke="#F2F2F2" stroke-width="1.24966" shape-rendering="crispEdges"/>
</g>
<defs>
<filter id="filter0_d_1943_13333" x="0.997293" y="0" width="112.005" height="114.003" filterUnits="userSpaceOnUse" color-interpolation-filters="sRGB">
<feFlood flood-opacity="0" result="BackgroundImageFix"/>
<feColorMatrix in="SourceAlpha" type="matrix" values="0 0 0 0 0 0 0 0 0 0 0 0 0 0 0 0 0 0 127 0" result="hardAlpha"/>
<feMorphology radius="9.99729" operator="erode" in="SourceAlpha" result="effect1_dropShadow_1943_13333"/>
<feOffset dy="8"/>
<feGaussianBlur stdDeviation="8"/>
<feComposite in2="hardAlpha" operator="out"/>
<feColorMatrix type="matrix" values="0 0 0 0 0 0 0 0 0 0 0 0 0 0 0 0 0 0 0.08 0"/>
<feBlend mode="normal" in2="BackgroundImageFix" result="effect1_dropShadow_1943_13333"/>
<feBlend mode="normal" in="SourceGraphic" in2="effect1_dropShadow_1943_13333" result="shape"/>
</filter>
</defs>
</svg>
