<svg width="114" height="115" viewBox="0 0 114 115" fill="none" xmlns="http://www.w3.org/2000/svg">
<g filter="url(#filter0_d_1943_13305)">
<rect x="7" width="100" height="100" rx="8" fill="white" shape-rendering="crispEdges"/>
<path d="M42.6063 26.886L45.5391 23.1133L49.3118 26.0461L46.379 29.8188L42.6063 26.886Z" fill="black"/>
<path d="M62.2659 42.5739L65.5938 38.293L69.8747 41.6208L66.5469 45.9018L62.2659 42.5739Z" fill="black"/>
<path d="M71.4964 45.2604L74.0156 47.2188L73.2111 48.2537L70.6919 46.2954L71.4964 45.2604Z" fill="black"/>
<path d="M39.4314 26.7131L44.5859 20.0824C44.7822 19.8298 45.1462 19.7842 45.3988 19.9805L47.2041 21.3839C47.4567 21.5803 47.5023 21.9442 47.3059 22.1968L42.1514 28.8276C41.9551 29.0802 41.5911 29.1258 41.3385 28.9294L39.5332 27.5261C39.2806 27.3297 39.235 26.9657 39.4314 26.7131Z" fill="white" stroke="black" stroke-width="1.48148" stroke-miterlimit="10"/>
<path d="M65.8898 41.9602C68.1886 39.0023 72.4523 38.469 75.4102 40.7678L67.0821 51.4806C64.1242 49.1817 63.5909 44.9181 65.8898 41.9602Z" fill="white" stroke="black" stroke-width="1.48148" stroke-linecap="round" stroke-linejoin="round"/>
<path d="M73.6825 49.7449C74.2772 50.2077 75.1324 50.1004 75.5952 49.5058C76.058 48.9112 75.9508 48.056 75.3561 47.5962C74.7615 47.1334 73.9063 47.2406 73.4435 47.8353C72.9806 48.4299 73.0879 49.2851 73.6825 49.7449Z" stroke="#161623" stroke-width="1.48148" stroke-miterlimit="10"/>
<path d="M62.0336 28.7613L59.2852 32.2969L57.5113 30.918L60.2597 27.3824L62.0336 28.7613Z" fill="black"/>
<path d="M72.2477 13.7908L74.4209 15.4797C74.6201 15.633 74.6661 15.9119 74.5281 16.1142L64.7564 30.5174C64.6062 30.7381 64.2966 30.7841 64.079 30.6155L61.0169 28.2369L57.9548 25.8583C57.7372 25.6898 57.7034 25.3771 57.8812 25.1779L69.4338 12.154C69.5963 11.9701 69.8783 11.9486 70.0745 12.1019L72.2477 13.7908Z" fill="white" stroke="black" stroke-width="1.48148" stroke-miterlimit="10"/>
<path d="M50.6852 39.6918L53.4336 36.1562L55.2074 37.5352L52.459 41.0708L50.6852 39.6918Z" fill="black"/>
<path d="M40.4744 54.6649L38.3012 52.976C38.102 52.8227 38.056 52.5438 38.1939 52.3415L47.9657 37.9383C48.1159 37.7176 48.4255 37.6716 48.6431 37.8402L51.7052 40.2188L54.7673 42.5973C54.9849 42.7659 55.0186 43.0786 54.8409 43.2778L43.2944 56.2986C43.1319 56.4825 42.8499 56.504 42.6538 56.3507L40.4806 54.6618L40.4744 54.6649Z" fill="white" stroke="black" stroke-width="1.48148" stroke-miterlimit="10"/>
<path d="M43.616 30.2387L49.2821 22.9497C49.6613 22.4619 50.3642 22.3738 50.852 22.753L67.4628 35.6656C67.9507 36.0448 68.0387 36.7477 67.6595 37.2355L61.9933 44.5245C61.6141 45.0123 60.9112 45.1004 60.4234 44.7212L43.8126 31.8086C43.3248 31.4294 43.2367 30.7265 43.616 30.2387Z" fill="white" stroke="black" stroke-width="1.48148" stroke-miterlimit="10"/>
<path d="M29.1961 77.6192C28.1974 77.6192 27.3154 77.4045 26.5501 76.9752C25.7847 76.5365 25.1827 75.9392 24.7441 75.1832C24.3147 74.4178 24.1001 73.5452 24.1001 72.5652C24.1001 71.5665 24.3147 70.6892 24.7441 69.9332C25.1827 69.1678 25.7847 68.5705 26.5501 68.1412C27.3154 67.7025 28.1974 67.4832 29.1961 67.4832C29.7187 67.4832 30.2274 67.5718 30.7221 67.7492C31.2167 67.9172 31.6694 68.1505 32.0801 68.4492C32.4907 68.7478 32.8221 69.0885 33.0741 69.4712L32.1361 70.1152C31.9494 69.8165 31.6974 69.5505 31.3801 69.3172C31.0627 69.0745 30.7127 68.8878 30.3301 68.7572C29.9567 68.6265 29.5787 68.5612 29.1961 68.5612C28.4401 68.5612 27.7681 68.7338 27.1801 69.0792C26.5921 69.4152 26.1301 69.8818 25.7941 70.4792C25.4581 71.0765 25.2901 71.7718 25.2901 72.5652C25.2901 73.3305 25.4534 74.0165 25.7801 74.6232C26.1161 75.2205 26.5781 75.6918 27.1661 76.0372C27.7634 76.3825 28.4401 76.5552 29.1961 76.5552C29.8307 76.5552 30.3907 76.4245 30.8761 76.1632C31.3707 75.8925 31.7581 75.5238 32.0381 75.0572C32.3181 74.5812 32.4581 74.0352 32.4581 73.4192L33.5921 73.3352C33.5921 74.1938 33.4054 74.9452 33.0321 75.5892C32.6587 76.2238 32.1407 76.7232 31.4781 77.0872C30.8154 77.4418 30.0547 77.6192 29.1961 77.6192ZM30.0501 73.4752V72.4532H33.5921V73.3772L33.0321 73.4752H30.0501ZM38.1388 77.6192C37.4574 77.6192 36.8554 77.4652 36.3328 77.1572C35.8101 76.8398 35.3994 76.4058 35.1008 75.8552C34.8114 75.3045 34.6668 74.6698 34.6668 73.9512C34.6668 73.2325 34.8114 72.5978 35.1008 72.0472C35.3994 71.4965 35.8054 71.0672 36.3188 70.7592C36.8414 70.4418 37.4388 70.2832 38.1108 70.2832C38.7548 70.2832 39.3148 70.4465 39.7908 70.7732C40.2761 71.0905 40.6494 71.5385 40.9108 72.1172C41.1721 72.6958 41.3028 73.3772 41.3028 74.1612H40.1828C40.1828 73.5638 40.1034 73.0552 39.9448 72.6352C39.7861 72.2058 39.5481 71.8745 39.2308 71.6412C38.9228 71.4078 38.5448 71.2912 38.0968 71.2912C37.6394 71.2912 37.2334 71.4032 36.8788 71.6272C36.5334 71.8418 36.2674 72.1498 36.0808 72.5512C35.8941 72.9525 35.8008 73.4238 35.8008 73.9652C35.8008 74.4972 35.9034 74.9592 36.1088 75.3512C36.3141 75.7338 36.5988 76.0372 36.9628 76.2612C37.3268 76.4758 37.7374 76.5832 38.1948 76.5832C38.6801 76.5832 39.0908 76.4665 39.4268 76.2332C39.7628 75.9998 40.0288 75.6965 40.2248 75.3232L41.2048 75.8132C41.0274 76.1772 40.7894 76.4945 40.4908 76.7652C40.2014 77.0358 39.8561 77.2458 39.4548 77.3952C39.0628 77.5445 38.6241 77.6192 38.1388 77.6192ZM35.4088 74.1612L35.4228 73.1952H40.6168V74.1612H35.4088ZM45.8094 77.6192C45.128 77.6192 44.5214 77.4652 43.9894 77.1572C43.4667 76.8398 43.056 76.4058 42.7574 75.8552C42.4587 75.3045 42.3094 74.6698 42.3094 73.9512C42.3094 73.2325 42.454 72.5978 42.7434 72.0472C43.042 71.4965 43.4527 71.0672 43.9754 70.7592C44.5074 70.4418 45.1094 70.2832 45.7814 70.2832C46.472 70.2832 47.0787 70.4418 47.6014 70.7592C48.1334 71.0672 48.544 71.4965 48.8334 72.0472C49.132 72.5978 49.2814 73.2325 49.2814 73.9512C49.2814 74.6698 49.132 75.3045 48.8334 75.8552C48.544 76.4058 48.138 76.8398 47.6154 77.1572C47.0927 77.4652 46.4907 77.6192 45.8094 77.6192ZM45.8094 76.5832C46.276 76.5832 46.682 76.4712 47.0274 76.2472C47.3727 76.0232 47.6434 75.7152 47.8394 75.3232C48.0447 74.9312 48.1474 74.4738 48.1474 73.9512C48.1474 73.4285 48.0447 72.9712 47.8394 72.5792C47.6434 72.1872 47.368 71.8792 47.0134 71.6552C46.6587 71.4312 46.248 71.3192 45.7814 71.3192C45.324 71.3192 44.918 71.4312 44.5634 71.6552C44.218 71.8792 43.9427 72.1872 43.7374 72.5792C43.5414 72.9712 43.4434 73.4285 43.4434 73.9512C43.4434 74.4645 43.5414 74.9218 43.7374 75.3232C43.9427 75.7152 44.2227 76.0232 44.5774 76.2472C44.9414 76.4712 45.352 76.5832 45.8094 76.5832ZM53.2864 77.6192C52.7731 77.6192 52.3251 77.5445 51.9424 77.3952C51.5598 77.2365 51.2378 77.0312 50.9764 76.7792C50.7244 76.5272 50.5424 76.2518 50.4304 75.9532L51.4104 75.5472C51.5691 75.8645 51.8071 76.1212 52.1244 76.3172C52.4418 76.5132 52.7918 76.6112 53.1744 76.6112C53.6131 76.6112 53.9818 76.5272 54.2804 76.3592C54.5791 76.1818 54.7284 75.9345 54.7284 75.6172C54.7284 75.3278 54.6164 75.0945 54.3924 74.9172C54.1778 74.7398 53.8558 74.5952 53.4264 74.4832L52.7544 74.3012C52.1198 74.1332 51.6251 73.8812 51.2704 73.5452C50.9158 73.1998 50.7384 72.8125 50.7384 72.3832C50.7384 71.7205 50.9531 71.2072 51.3824 70.8432C51.8211 70.4698 52.4698 70.2832 53.3284 70.2832C53.7391 70.2832 54.1124 70.3438 54.4484 70.4652C54.7844 70.5865 55.0738 70.7592 55.3164 70.9832C55.5591 71.1978 55.7364 71.4545 55.8484 71.7532L54.8684 72.1872C54.7471 71.8698 54.5464 71.6412 54.2664 71.5012C53.9864 71.3612 53.6458 71.2912 53.2444 71.2912C52.8151 71.2912 52.4791 71.3845 52.2364 71.5712C51.9938 71.7485 51.8724 72.0005 51.8724 72.3272C51.8724 72.5138 51.9704 72.6912 52.1664 72.8592C52.3718 73.0178 52.6704 73.1485 53.0624 73.2512L53.7624 73.4332C54.2198 73.5452 54.6024 73.7132 54.9104 73.9372C55.2184 74.1518 55.4518 74.3992 55.6104 74.6792C55.7691 74.9592 55.8484 75.2578 55.8484 75.5752C55.8484 75.9952 55.7364 76.3592 55.5124 76.6672C55.2884 76.9752 54.9851 77.2132 54.6024 77.3812C54.2198 77.5398 53.7811 77.6192 53.2864 77.6192ZM57.4279 80.2512V70.4512H58.4779L58.5479 71.7392V80.2512H57.4279ZM60.9139 77.6192C60.3259 77.6192 59.8079 77.4652 59.3599 77.1572C58.9213 76.8492 58.5806 76.4198 58.3379 75.8692C58.0953 75.3092 57.9739 74.6698 57.9739 73.9512C57.9739 73.2232 58.0953 72.5838 58.3379 72.0332C58.5806 71.4825 58.9213 71.0532 59.3599 70.7452C59.8079 70.4372 60.3259 70.2832 60.9139 70.2832C61.5393 70.2832 62.0899 70.4372 62.5659 70.7452C63.0419 71.0532 63.4106 71.4825 63.6719 72.0332C63.9426 72.5838 64.0779 73.2232 64.0779 73.9512C64.0779 74.6698 63.9426 75.3092 63.6719 75.8692C63.4106 76.4198 63.0419 76.8492 62.5659 77.1572C62.0899 77.4652 61.5393 77.6192 60.9139 77.6192ZM60.6619 76.5972C61.1006 76.5972 61.4879 76.4852 61.8239 76.2612C62.1693 76.0372 62.4399 75.7245 62.6359 75.3232C62.8413 74.9218 62.9439 74.4645 62.9439 73.9512C62.9439 73.4378 62.8459 72.9805 62.6499 72.5792C62.4633 72.1778 62.1973 71.8652 61.8519 71.6412C61.5066 71.4172 61.1146 71.3052 60.6759 71.3052C60.2653 71.3052 59.8966 71.4172 59.5699 71.6412C59.2526 71.8652 59.0006 72.1778 58.8139 72.5792C58.6366 72.9805 58.5479 73.4378 58.5479 73.9512C58.5479 74.4645 58.6366 74.9218 58.8139 75.3232C59.0006 75.7245 59.2526 76.0372 59.5699 76.2612C59.8873 76.4852 60.2513 76.5972 60.6619 76.5972ZM69.9414 77.4512L69.8714 76.3032V73.7552C69.8714 73.2045 69.8061 72.7518 69.6754 72.3972C69.5541 72.0332 69.3627 71.7625 69.1014 71.5852C68.8494 71.3985 68.5134 71.3052 68.0934 71.3052C67.6921 71.3052 67.3421 71.3845 67.0434 71.5432C66.7541 71.7018 66.5161 71.9492 66.3294 72.2852L65.3214 71.8792C65.5081 71.5525 65.7321 71.2678 65.9934 71.0252C66.2547 70.7825 66.5581 70.6005 66.9034 70.4792C67.2581 70.3485 67.6594 70.2832 68.1074 70.2832C68.7514 70.2832 69.2881 70.4092 69.7174 70.6612C70.1467 70.9132 70.4687 71.2912 70.6834 71.7952C70.8981 72.2898 71.0007 72.9105 70.9914 73.6572L70.9774 77.4512H69.9414ZM67.8414 77.6192C67.0201 77.6192 66.3761 77.4325 65.9094 77.0592C65.4521 76.6765 65.2234 76.1492 65.2234 75.4772C65.2234 74.7678 65.4567 74.2265 65.9234 73.8532C66.3994 73.4705 67.0621 73.2792 67.9114 73.2792H69.9134V74.2172H68.1634C67.5101 74.2172 67.0434 74.3245 66.7634 74.5392C66.4927 74.7538 66.3574 75.0618 66.3574 75.4632C66.3574 75.8272 66.4927 76.1165 66.7634 76.3312C67.0341 76.5365 67.4121 76.6392 67.8974 76.6392C68.2987 76.6392 68.6487 76.5458 68.9474 76.3592C69.2461 76.1725 69.4747 75.9205 69.6334 75.6032C69.7921 75.2765 69.8714 74.9078 69.8714 74.4972H70.5574C70.5574 75.4492 70.3241 76.2098 69.8574 76.7792C69.3907 77.3392 68.7187 77.6192 67.8414 77.6192ZM75.3981 77.6192C74.7168 77.6192 74.1895 77.4418 73.8161 77.0872C73.4428 76.7325 73.2561 76.2332 73.2561 75.5892V68.2672H74.3761V75.4772C74.3761 75.8318 74.4695 76.1072 74.6561 76.3032C74.8521 76.4898 75.1228 76.5832 75.4681 76.5832C75.5801 76.5832 75.6875 76.5692 75.7901 76.5412C75.9021 76.5038 76.0468 76.4198 76.2241 76.2892L76.6581 77.1992C76.4155 77.3578 76.1961 77.4652 76.0001 77.5212C75.8041 77.5865 75.6035 77.6192 75.3981 77.6192ZM72.0381 71.4452V70.4512H76.4761V71.4452H72.0381ZM78.1271 77.4512L78.1551 70.4512H79.2751L79.2471 77.4512H78.1271ZM78.7011 68.8272C78.5145 68.8272 78.3511 68.7572 78.2111 68.6172C78.0711 68.4772 78.0011 68.3138 78.0011 68.1272C78.0011 67.9312 78.0711 67.7678 78.2111 67.6372C78.3511 67.4972 78.5145 67.4272 78.7011 67.4272C78.8971 67.4272 79.0605 67.4972 79.1911 67.6372C79.3311 67.7678 79.4011 67.9312 79.4011 68.1272C79.4011 68.3138 79.3311 68.4772 79.1911 68.6172C79.0605 68.7572 78.8971 68.8272 78.7011 68.8272ZM85.6231 77.4512L85.5531 76.3032V73.7552C85.5531 73.2045 85.4877 72.7518 85.3571 72.3972C85.2357 72.0332 85.0444 71.7625 84.7831 71.5852C84.5311 71.3985 84.1951 71.3052 83.7751 71.3052C83.3737 71.3052 83.0237 71.3845 82.7251 71.5432C82.4357 71.7018 82.1977 71.9492 82.0111 72.2852L81.0031 71.8792C81.1897 71.5525 81.4137 71.2678 81.6751 71.0252C81.9364 70.7825 82.2397 70.6005 82.5851 70.4792C82.9397 70.3485 83.3411 70.2832 83.7891 70.2832C84.4331 70.2832 84.9697 70.4092 85.3991 70.6612C85.8284 70.9132 86.1504 71.2912 86.3651 71.7952C86.5797 72.2898 86.6824 72.9105 86.6731 73.6572L86.6591 77.4512H85.6231ZM83.5231 77.6192C82.7017 77.6192 82.0577 77.4325 81.5911 77.0592C81.1337 76.6765 80.9051 76.1492 80.9051 75.4772C80.9051 74.7678 81.1384 74.2265 81.6051 73.8532C82.0811 73.4705 82.7437 73.2792 83.5931 73.2792H85.5951V74.2172H83.8451C83.1917 74.2172 82.7251 74.3245 82.4451 74.5392C82.1744 74.7538 82.0391 75.0618 82.0391 75.4632C82.0391 75.8272 82.1744 76.1165 82.4451 76.3312C82.7157 76.5365 83.0937 76.6392 83.5791 76.6392C83.9804 76.6392 84.3304 76.5458 84.6291 76.3592C84.9277 76.1725 85.1564 75.9205 85.3151 75.6032C85.4737 75.2765 85.5531 74.9078 85.5531 74.4972H86.2391C86.2391 75.4492 86.0057 76.2098 85.5391 76.7792C85.0724 77.3392 84.4004 77.6192 83.5231 77.6192ZM88.4478 77.4512V67.6512H89.5678V77.4512H88.4478Z" fill="black"/>
<rect x="7.62483" y="0.624831" width="98.7503" height="98.7503" rx="7.37517" stroke="#F2F2F2" stroke-width="1.24966" shape-rendering="crispEdges"/>
</g>
<defs>
<filter id="filter0_d_1943_13305" x="0.997293" y="0" width="112.005" height="114.003" filterUnits="userSpaceOnUse" color-interpolation-filters="sRGB">
<feFlood flood-opacity="0" result="BackgroundImageFix"/>
<feColorMatrix in="SourceAlpha" type="matrix" values="0 0 0 0 0 0 0 0 0 0 0 0 0 0 0 0 0 0 127 0" result="hardAlpha"/>
<feMorphology radius="9.99729" operator="erode" in="SourceAlpha" result="effect1_dropShadow_1943_13305"/>
<feOffset dy="8"/>
<feGaussianBlur stdDeviation="8"/>
<feComposite in2="hardAlpha" operator="out"/>
<feColorMatrix type="matrix" values="0 0 0 0 0 0 0 0 0 0 0 0 0 0 0 0 0 0 0.08 0"/>
<feBlend mode="normal" in2="BackgroundImageFix" result="effect1_dropShadow_1943_13305"/>
<feBlend mode="normal" in="SourceGraphic" in2="effect1_dropShadow_1943_13305" result="shape"/>
</filter>
</defs>
</svg>
