<svg width="114" height="115" viewBox="0 0 114 115" fill="none" xmlns="http://www.w3.org/2000/svg">
<g filter="url(#filter0_d_1943_13392)">
<rect x="7" width="100" height="100" rx="8" fill="white" shape-rendering="crispEdges"/>
<path d="M51.4336 19.7035C52.0808 19.7035 52.6055 19.1788 52.6055 18.5316V16.1719C52.6055 15.5247 52.0808 15 51.4336 15C50.7864 15 50.2617 15.5247 50.2617 16.1719V18.5316C50.2617 19.1788 50.7864 19.7035 51.4336 19.7035Z" fill="black"/>
<path d="M40.8016 23.9934L38.758 22.8135C38.1974 22.4898 37.4807 22.682 37.1572 23.2424C36.8336 23.803 37.0256 24.5197 37.5861 24.8432L39.6298 26.0231C40.189 26.3461 40.9063 26.156 41.2306 25.5942C41.5541 25.0337 41.3621 24.3169 40.8016 23.9934Z" fill="black"/>
<path d="M39.6298 36.9464L37.5861 38.1262C37.0256 38.4498 36.8336 39.1664 37.1572 39.727C37.4824 40.2903 38.2002 40.4781 38.758 40.1559L40.8016 38.976C41.3621 38.6524 41.5541 37.9357 41.2306 37.3752C40.907 36.8148 40.1904 36.6225 39.6298 36.9464Z" fill="black"/>
<path d="M63.2365 26.0231L65.2802 24.8432C65.8406 24.5196 66.0327 23.803 65.7091 23.2424C65.3855 22.682 64.6689 22.4898 64.1083 22.8135L62.0646 23.9934C61.5041 24.317 61.3121 25.0337 61.6357 25.5942C61.9609 26.1575 62.6787 26.3453 63.2365 26.0231Z" fill="black"/>
<path d="M68.1651 33.148C66.8236 29.833 63.5695 27.6412 59.9897 27.6566C58.5227 24.3903 55.24 22.1094 51.4335 22.1094C46.2641 22.1094 42.0586 26.315 42.0586 31.4844C42.0586 34.8009 43.7905 37.7195 46.3965 39.3865C43.6178 43.7762 46.7772 49.5312 51.9754 49.5312C70.4138 49.512 69.4049 49.5784 69.726 49.4788C73.8219 49.0168 77.0005 45.5429 77.0005 41.3282C77.0005 36.5152 72.8879 32.7781 68.1651 33.148ZM44.4023 31.4845C44.4023 27.6074 47.5566 24.4532 51.4336 24.4532C54.048 24.4532 56.3324 25.8884 57.5438 28.0116C53.8408 29.0966 51.2696 32.4773 51.2284 36.3561C50.0643 36.4838 48.9667 36.9187 48.0214 37.6296C45.8648 36.4273 44.4023 34.1238 44.4023 31.4845ZM69.2827 47.1674C68.8653 47.2013 58.2309 47.1816 51.9754 47.1876C48.1112 47.1876 46.2282 42.3977 49.1033 39.7723C49.9662 38.9842 51.1154 38.5649 52.3676 38.6788C53.123 38.747 53.7385 38.0934 53.6342 37.3491C53.0909 33.4717 56.0935 30.0001 60.0162 30.0001C62.918 30.0001 65.4757 31.9534 66.2359 34.7502C66.3984 35.3477 66.9978 35.7155 67.604 35.5904C71.2566 34.835 74.6568 37.6272 74.6568 41.3282C74.6568 44.356 72.2962 46.9209 69.2827 47.1674Z" fill="black"/>
<path d="M39.5284 73.5352L42.5524 63.7352H43.7424L40.7044 73.5352H39.5284ZM33.5644 73.5352L30.5684 63.7352H31.7584L34.7264 73.5352H33.5644ZM33.6904 73.5352L36.5744 63.7352H37.7084L34.8244 73.5352H33.6904ZM39.4304 73.5352L36.6164 63.7352H37.7504L40.6064 73.5352H39.4304ZM47.3536 73.7032C46.6723 73.7032 46.0703 73.5492 45.5476 73.2412C45.025 72.9238 44.6143 72.4898 44.3156 71.9392C44.0263 71.3885 43.8816 70.7538 43.8816 70.0352C43.8816 69.3165 44.0263 68.6818 44.3156 68.1312C44.6143 67.5805 45.0203 67.1512 45.5336 66.8432C46.0563 66.5258 46.6536 66.3672 47.3256 66.3672C47.9696 66.3672 48.5296 66.5305 49.0056 66.8572C49.491 67.1745 49.8643 67.6225 50.1256 68.2012C50.387 68.7798 50.5176 69.4612 50.5176 70.2452H49.3976C49.3976 69.6478 49.3183 69.1392 49.1596 68.7192C49.001 68.2898 48.763 67.9585 48.4456 67.7252C48.1376 67.4918 47.7596 67.3752 47.3116 67.3752C46.8543 67.3752 46.4483 67.4872 46.0936 67.7112C45.7483 67.9258 45.4823 68.2338 45.2956 68.6352C45.109 69.0365 45.0156 69.5078 45.0156 70.0492C45.0156 70.5812 45.1183 71.0432 45.3236 71.4352C45.529 71.8178 45.8136 72.1212 46.1776 72.3452C46.5416 72.5598 46.9523 72.6672 47.4096 72.6672C47.895 72.6672 48.3056 72.5505 48.6416 72.3172C48.9776 72.0838 49.2436 71.7805 49.4396 71.4072L50.4196 71.8972C50.2423 72.2612 50.0043 72.5785 49.7056 72.8492C49.4163 73.1198 49.071 73.3298 48.6696 73.4792C48.2776 73.6285 47.839 73.7032 47.3536 73.7032ZM44.6236 70.2452L44.6376 69.2792H49.8316V70.2452H44.6236ZM56.2422 73.5352L56.1722 72.3872V69.8392C56.1722 69.2885 56.1069 68.8358 55.9762 68.4812C55.8549 68.1172 55.6635 67.8465 55.4022 67.6692C55.1502 67.4825 54.8142 67.3892 54.3942 67.3892C53.9929 67.3892 53.6429 67.4685 53.3442 67.6272C53.0549 67.7858 52.8169 68.0332 52.6302 68.3692L51.6222 67.9632C51.8089 67.6365 52.0329 67.3518 52.2942 67.1092C52.5555 66.8665 52.8589 66.6845 53.2042 66.5632C53.5589 66.4325 53.9602 66.3672 54.4082 66.3672C55.0522 66.3672 55.5889 66.4932 56.0182 66.7452C56.4475 66.9972 56.7695 67.3752 56.9842 67.8792C57.1989 68.3738 57.3015 68.9945 57.2922 69.7412L57.2782 73.5352H56.2422ZM54.1422 73.7032C53.3209 73.7032 52.6769 73.5165 52.2102 73.1432C51.7529 72.7605 51.5242 72.2332 51.5242 71.5612C51.5242 70.8518 51.7575 70.3105 52.2242 69.9372C52.7002 69.5545 53.3629 69.3632 54.2122 69.3632H56.2142V70.3012H54.4642C53.8109 70.3012 53.3442 70.4085 53.0642 70.6232C52.7935 70.8378 52.6582 71.1458 52.6582 71.5472C52.6582 71.9112 52.7935 72.2005 53.0642 72.4152C53.3349 72.6205 53.7129 72.7232 54.1982 72.7232C54.5995 72.7232 54.9495 72.6298 55.2482 72.4432C55.5469 72.2565 55.7755 72.0045 55.9342 71.6872C56.0929 71.3605 56.1722 70.9918 56.1722 70.5812H56.8582C56.8582 71.5332 56.6249 72.2938 56.1582 72.8632C55.6915 73.4232 55.0195 73.7032 54.1422 73.7032ZM61.6989 73.7032C61.0176 73.7032 60.4902 73.5258 60.1169 73.1712C59.7436 72.8165 59.5569 72.3172 59.5569 71.6732V64.3512H60.6769V71.5612C60.6769 71.9158 60.7702 72.1912 60.9569 72.3872C61.1529 72.5738 61.4236 72.6672 61.7689 72.6672C61.8809 72.6672 61.9882 72.6532 62.0909 72.6252C62.2029 72.5878 62.3476 72.5038 62.5249 72.3732L62.9589 73.2832C62.7162 73.4418 62.4969 73.5492 62.3009 73.6052C62.1049 73.6705 61.9042 73.7032 61.6989 73.7032ZM58.3389 67.5292V66.5352H62.7769V67.5292H58.3389ZM64.3579 73.5352V63.5532H65.4779V73.5352H64.3579ZM69.2859 73.5352V69.9512L70.4059 69.5312V73.5352H69.2859ZM69.2859 69.9512C69.2859 69.2605 69.2019 68.7332 69.0339 68.3692C68.8753 68.0052 68.6559 67.7578 68.3759 67.6272C68.0959 67.4872 67.7786 67.4172 67.4239 67.4172C66.8079 67.4172 66.3273 67.6365 65.9819 68.0752C65.6459 68.5045 65.4779 69.1158 65.4779 69.9092H64.9319C64.9319 69.1718 65.0393 68.5372 65.2539 68.0052C65.4686 67.4732 65.7813 67.0672 66.1919 66.7872C66.6026 66.5072 67.0973 66.3672 67.6759 66.3672C68.5159 66.3672 69.1833 66.6285 69.6779 67.1512C70.1726 67.6738 70.4153 68.4672 70.4059 69.5312L69.2859 69.9512ZM75.2306 73.7032C74.5492 73.7032 73.9472 73.5492 73.4246 73.2412C72.9019 72.9238 72.4912 72.4898 72.1926 71.9392C71.9032 71.3885 71.7586 70.7538 71.7586 70.0352C71.7586 69.3165 71.9032 68.6818 72.1926 68.1312C72.4912 67.5805 72.8972 67.1512 73.4106 66.8432C73.9332 66.5258 74.5306 66.3672 75.2026 66.3672C75.8466 66.3672 76.4066 66.5305 76.8826 66.8572C77.3679 67.1745 77.7412 67.6225 78.0026 68.2012C78.2639 68.7798 78.3946 69.4612 78.3946 70.2452H77.2746C77.2746 69.6478 77.1952 69.1392 77.0366 68.7192C76.8779 68.2898 76.6399 67.9585 76.3226 67.7252C76.0146 67.4918 75.6366 67.3752 75.1886 67.3752C74.7312 67.3752 74.3252 67.4872 73.9706 67.7112C73.6252 67.9258 73.3592 68.2338 73.1726 68.6352C72.9859 69.0365 72.8926 69.5078 72.8926 70.0492C72.8926 70.5812 72.9952 71.0432 73.2006 71.4352C73.4059 71.8178 73.6906 72.1212 74.0546 72.3452C74.4186 72.5598 74.8292 72.6672 75.2866 72.6672C75.7719 72.6672 76.1826 72.5505 76.5186 72.3172C76.8546 72.0838 77.1206 71.7805 77.3166 71.4072L78.2966 71.8972C78.1192 72.2612 77.8812 72.5785 77.5826 72.8492C77.2932 73.1198 76.9479 73.3298 76.5466 73.4792C76.1546 73.6285 75.7159 73.7032 75.2306 73.7032ZM72.5006 70.2452L72.5146 69.2792H77.7086V70.2452H72.5006ZM80.4231 69.7412C80.4231 68.9852 80.5678 68.3738 80.8571 67.9072C81.1465 67.4312 81.5151 67.0812 81.9631 66.8572C82.4205 66.6238 82.9011 66.5072 83.4051 66.5072V67.5572C82.9945 67.5572 82.5978 67.6272 82.2151 67.7672C81.8418 67.8978 81.5338 68.1172 81.2911 68.4252C81.0485 68.7332 80.9271 69.1532 80.9271 69.6852L80.4231 69.7412ZM79.8071 73.5352V66.5352H80.9271V73.5352H79.8071Z" fill="black"/>
<rect x="7.62483" y="0.624831" width="98.7503" height="98.7503" rx="7.37517" stroke="#F2F2F2" stroke-width="1.24966" shape-rendering="crispEdges"/>
</g>
<defs>
<filter id="filter0_d_1943_13392" x="0.997293" y="0" width="112.005" height="114.003" filterUnits="userSpaceOnUse" color-interpolation-filters="sRGB">
<feFlood flood-opacity="0" result="BackgroundImageFix"/>
<feColorMatrix in="SourceAlpha" type="matrix" values="0 0 0 0 0 0 0 0 0 0 0 0 0 0 0 0 0 0 127 0" result="hardAlpha"/>
<feMorphology radius="9.99729" operator="erode" in="SourceAlpha" result="effect1_dropShadow_1943_13392"/>
<feOffset dy="8"/>
<feGaussianBlur stdDeviation="8"/>
<feComposite in2="hardAlpha" operator="out"/>
<feColorMatrix type="matrix" values="0 0 0 0 0 0 0 0 0 0 0 0 0 0 0 0 0 0 0.08 0"/>
<feBlend mode="normal" in2="BackgroundImageFix" result="effect1_dropShadow_1943_13392"/>
<feBlend mode="normal" in="SourceGraphic" in2="effect1_dropShadow_1943_13392" result="shape"/>
</filter>
</defs>
</svg>
