<svg width="48" height="48" viewBox="0 0 48 48" fill="none" xmlns="http://www.w3.org/2000/svg">
<g clip-path="url(#clip0_1685_12222)">
<path d="M42.9757 35.6871C42.1448 35.069 40.9703 35.2416 40.3522 36.0723C40.0123 36.5293 39.6485 36.9775 39.271 37.4045C38.5852 38.1803 38.6581 39.3653 39.4338 40.0512C39.7907 40.3666 40.2336 40.5214 40.675 40.5214C41.1936 40.5214 41.71 40.3074 42.0805 39.8882C42.5276 39.3826 42.9584 38.8517 43.3609 38.3105C43.979 37.4798 43.8066 36.3051 42.9757 35.6871Z" fill="black"/>
<path d="M46.1118 26.8948C45.1007 26.6746 44.1012 27.3163 43.881 28.3281C43.7597 28.8847 43.6133 29.4423 43.4454 29.9857C43.1397 30.9751 43.6939 32.0249 44.6833 32.3307C44.8677 32.3876 45.0541 32.4147 45.2374 32.4147C46.0381 32.4147 46.7794 31.8977 47.0282 31.0926C47.2276 30.4478 47.4014 29.786 47.5452 29.1257C47.7654 28.114 47.1237 27.1152 46.1118 26.8948Z" fill="black"/>
<path d="M33.9501 41.6952C33.4523 41.9731 32.9368 42.2328 32.4182 42.4671C31.4744 42.8932 31.0549 44.0038 31.4811 44.9476C31.7942 45.641 32.4766 46.0513 33.191 46.0513C33.449 46.0513 33.7112 45.9978 33.9616 45.8847C34.5769 45.6068 35.188 45.2989 35.7782 44.9693C36.6824 44.4646 37.0061 43.3223 36.5012 42.4182C35.9966 41.5142 34.8543 41.1905 33.9501 41.6952Z" fill="black"/>
<path d="M22.1258 9V23.2234L15.2503 30.0988C14.5181 30.8311 14.5181 32.0183 15.2503 32.7504C15.6165 33.1166 16.0962 33.2996 16.5762 33.2996C17.056 33.2996 17.5359 33.1165 17.9021 32.7504L25.3268 25.3258C25.6783 24.9743 25.8758 24.4972 25.8758 24V9C25.8758 7.96444 25.0364 7.125 24.0008 7.125C22.9653 7.125 22.1258 7.96444 22.1258 9Z" fill="black"/>
<path d="M46.125 4.03125C45.0894 4.03125 44.25 4.87069 44.25 5.90625V11.1128C39.8857 4.26825 32.2642 0 24 0C17.5894 0 11.5625 2.49647 7.02938 7.02938C2.49647 11.5625 0 17.5894 0 24C0 30.4106 2.49647 36.4375 7.02938 40.9706C11.5625 45.5035 17.5894 48 24 48C24.0158 48 24.0311 47.998 24.0469 47.9977C24.0626 47.998 24.0779 48 24.0938 48C24.7695 48 25.4519 47.9715 26.1222 47.9154C27.1541 47.829 27.9206 46.9224 27.8343 45.8905C27.7477 44.8586 26.8424 44.0918 25.8093 44.1786C25.2427 44.2259 24.6655 44.25 24.0938 44.25C24.0779 44.25 24.0626 44.252 24.0469 44.2523C24.0311 44.252 24.0158 44.25 24 44.25C12.8341 44.25 3.75 35.1659 3.75 24C3.75 12.8341 12.8341 3.75 24 3.75C31.1961 3.75 37.8147 7.58559 41.4315 13.6875H36.2759C35.2403 13.6875 34.4009 14.5269 34.4009 15.5625C34.4009 16.5981 35.2403 17.4375 36.2759 17.4375H42C43.1419 17.4375 44.2102 17.1166 45.1197 16.5607C45.1782 16.5273 45.2345 16.4914 45.2881 16.4527C46.9199 15.3791 48 13.5325 48 11.4375V5.90625C48 4.87069 47.1606 4.03125 46.125 4.03125Z" fill="black"/>
</g>
<defs>
<clipPath id="clip0_1685_12222">
<rect width="48" height="48" fill="white"/>
</clipPath>
</defs>
</svg>
